<svg xmlns="http://www.w3.org/2000/svg" xmlns:xlink="http://www.w3.org/1999/xlink" width="1080" zoomAndPan="magnify" viewBox="0 0 810 1447.9199" height="1920" preserveAspectRatio="xMidYMid meet" version="1.0"><defs><clipPath id="d2134acbdf"><path d="M 0.0234375 0 L 809.976562 0 L 809.976562 1439.921875 L 0.0234375 1439.921875 Z M 0.0234375 0 " clip-rule="nonzero"/></clipPath><clipPath id="188d83923a"><path d="M 390 719 L 428 719 L 428 1439.921875 L 390 1439.921875 Z M 390 719 " clip-rule="nonzero"/></clipPath><clipPath id="dd880c1e4f"><path d="M 697 1437 L 699 1437 L 699 1439.921875 L 697 1439.921875 Z M 697 1437 " clip-rule="nonzero"/></clipPath><clipPath id="21abd87e4e"><path d="M 652 1439 L 653 1439 L 653 1439.921875 L 652 1439.921875 Z M 652 1439 " clip-rule="nonzero"/></clipPath><clipPath id="1f638c2605"><path d="M 564 1437 L 566 1437 L 566 1439.921875 L 564 1439.921875 Z M 564 1437 " clip-rule="nonzero"/></clipPath><clipPath id="9adc9b6d62"><path d="M 538 1438 L 539 1438 L 539 1439.921875 L 538 1439.921875 Z M 538 1438 " clip-rule="nonzero"/></clipPath><clipPath id="8db2b894d8"><path d="M 474 1439 L 476 1439 L 476 1439.921875 L 474 1439.921875 Z M 474 1439 " clip-rule="nonzero"/></clipPath><clipPath id="c042e76341"><path d="M 768 1439 L 770 1439 L 770 1439.921875 L 768 1439.921875 Z M 768 1439 " clip-rule="nonzero"/></clipPath><clipPath id="e33d4c83e5"><path d="M 789 1438 L 792 1438 L 792 1439.921875 L 789 1439.921875 Z M 789 1438 " clip-rule="nonzero"/></clipPath><clipPath id="2ba1fda683"><path d="M 793 1437 L 795 1437 L 795 1439.921875 L 793 1439.921875 Z M 793 1437 " clip-rule="nonzero"/></clipPath><clipPath id="a9fa20d4c9"><path d="M 681 1438 L 683 1438 L 683 1439.921875 L 681 1439.921875 Z M 681 1438 " clip-rule="nonzero"/></clipPath><clipPath id="341a0685b5"><path d="M 752 1439 L 753 1439 L 753 1439.921875 L 752 1439.921875 Z M 752 1439 " clip-rule="nonzero"/></clipPath><clipPath id="d04cf3457e"><path d="M 691 1439 L 692 1439 L 692 1439.921875 L 691 1439.921875 Z M 691 1439 " clip-rule="nonzero"/></clipPath><clipPath id="abd4e0e077"><path d="M 808 1418 L 809.976562 1418 L 809.976562 1420 L 808 1420 Z M 808 1418 " clip-rule="nonzero"/></clipPath><clipPath id="a96b2ba8ba"><path d="M 808 1435 L 809.976562 1435 L 809.976562 1437 L 808 1437 Z M 808 1435 " clip-rule="nonzero"/></clipPath><clipPath id="e44b0106dc"><path d="M 809 1410 L 809.976562 1410 L 809.976562 1412 L 809 1412 Z M 809 1410 " clip-rule="nonzero"/></clipPath><clipPath id="0c47313ddc"><path d="M 808 1429 L 809.976562 1429 L 809.976562 1433 L 808 1433 Z M 808 1429 " clip-rule="nonzero"/></clipPath><clipPath id="9ba7a3f9a6"><path d="M 809 1423 L 809.976562 1423 L 809.976562 1425 L 809 1425 Z M 809 1423 " clip-rule="nonzero"/></clipPath><clipPath id="5fef65274f"><path d="M 809 1377 L 809.976562 1377 L 809.976562 1379 L 809 1379 Z M 809 1377 " clip-rule="nonzero"/></clipPath><clipPath id="02e2245201"><path d="M 808 1400 L 809.976562 1400 L 809.976562 1403 L 808 1403 Z M 808 1400 " clip-rule="nonzero"/></clipPath><clipPath id="e2ece31a62"><path d="M 808 1413 L 809.976562 1413 L 809.976562 1415 L 808 1415 Z M 808 1413 " clip-rule="nonzero"/></clipPath><clipPath id="de89ba01e2"><path d="M 809 1431 L 809.976562 1431 L 809.976562 1434 L 809 1434 Z M 809 1431 " clip-rule="nonzero"/></clipPath><clipPath id="8e1f231d06"><path d="M 808 1407 L 809.976562 1407 L 809.976562 1410 L 808 1410 Z M 808 1407 " clip-rule="nonzero"/></clipPath><clipPath id="6acc6c5c4b"><path d="M 808 1367 L 809.976562 1367 L 809.976562 1370 L 808 1370 Z M 808 1367 " clip-rule="nonzero"/></clipPath></defs><g clip-path="url(#d2134acbdf)"><path fill="#fffbed" d="M -310.878906 0 L 1128.753906 0 L 1128.753906 1439.632812 L -310.878906 1439.632812 Z M -310.878906 0 " fill-opacity="1" fill-rule="nonzero"/><path fill="#eee8e2" d="M 1128.753906 701.382812 L 409.070312 719.800781 L 1128.753906 589.128906 L 1128.753906 550.660156 L 409.089844 719.769531 L 1128.753906 449.773438 L 1128.753906 406.863281 L 409.054688 719.753906 L 1128.753906 264.394531 L 1128.753906 211.003906 L 409.046875 719.726562 L 1128.753906 35.945312 L 1128.753906 0 L 1092.808594 0 L 409.023438 719.710938 L 907.539062 0 L 854.820312 0 L 409.011719 719.675781 L 736.007812 0 L 692.511719 0 L 408.976562 719.6875 L 570.875 0 L 532.554688 0 L 408.949219 719.671875 L 427.371094 0 L 390.5 0 L 408.921875 719.683594 L 278.25 0 L 239.78125 0 L 408.890625 719.660156 L 138.894531 0 L 95.984375 0 L 408.875 719.699219 L -46.484375 0 L -99.875 0 L 408.84375 719.707031 L -274.933594 0 L -310.878906 0 L -310.878906 35.945312 L 408.832031 719.730469 L -310.878906 221.210938 L -310.878906 273.933594 L 408.796875 719.742188 L -310.878906 392.746094 L -310.878906 436.242188 L 408.808594 719.777344 L -310.878906 557.875 L -310.878906 596.195312 L 408.796875 719.800781 L -310.878906 701.382812 L -310.878906 738.25 L 408.804688 719.828125 L -310.878906 850.503906 L -310.878906 888.96875 L 408.78125 719.863281 L -310.878906 989.859375 L -310.878906 1032.769531 L 408.820312 719.878906 L -310.878906 1175.238281 L -310.878906 1228.628906 L 408.828125 719.90625 L -310.878906 1403.6875 L -310.878906 1439.632812 L -274.933594 1439.632812 L 408.851562 719.921875 L -89.667969 1439.632812 L -36.945312 1439.632812 L 408.859375 719.957031 L 81.863281 1439.632812 L 125.363281 1439.632812 L 408.898438 719.941406 L 246.996094 1439.632812 L 285.316406 1439.632812 L 408.921875 719.957031 L 408.921875 719.921875 L 408.929688 719.898438 L 408.929688 719.921875 L 408.9375 719.875 L 408.945312 719.917969 L 408.945312 719.894531 L 408.949219 719.914062 L 408.949219 719.949219 L 539.621094 1439.632812 L 578.089844 1439.632812 L 408.984375 719.96875 L 678.980469 1439.632812 L 721.890625 1439.632812 L 409 719.933594 L 864.359375 1439.632812 L 917.746094 1439.632812 L 409.027344 719.925781 L 1092.808594 1439.632812 L 1128.753906 1439.632812 L 1128.753906 1403.6875 L 409.039062 719.902344 L 1128.753906 1218.417969 L 1128.753906 1165.699219 L 409.078125 719.890625 L 1128.753906 1046.886719 L 1128.753906 1003.390625 L 409.0625 719.855469 L 1128.753906 881.753906 L 1128.753906 843.4375 L 409.078125 719.828125 L 1128.753906 738.25 Z M 408.9375 719.414062 L 408.945312 719.710938 L 408.9375 719.757812 L 408.929688 719.714844 Z M 408.9375 719.414062 " fill-opacity="1" fill-rule="nonzero"/></g><g clip-path="url(#188d83923a)"><path fill="#eee8e2" d="M 408.9375 720.21875 L 408.929688 719.921875 L 408.921875 719.957031 L 390.5 1439.632812 L 427.371094 1439.632812 L 408.949219 719.949219 L 408.945312 719.917969 Z M 408.9375 720.21875 " fill-opacity="1" fill-rule="nonzero"/></g><path fill="#eee8e2" d="M 782.289062 1434.070312 L 781.5625 1433.085938 L 780.992188 1434.4375 Z M 782.289062 1434.070312 " fill-opacity="1" fill-rule="nonzero"/><path fill="#eee8e2" d="M 723.671875 1431.507812 C 723.675781 1431.625 724.003906 1431.734375 724.183594 1431.847656 C 724.269531 1431.519531 724.355469 1431.1875 724.4375 1430.871094 C 724.222656 1430.734375 724.042969 1430.621094 723.863281 1430.507812 C 723.789062 1430.839844 723.664062 1431.175781 723.671875 1431.507812 Z M 723.671875 1431.507812 " fill-opacity="1" fill-rule="nonzero"/><path fill="#eee8e2" d="M 729.070312 1425.421875 C 729.214844 1425.71875 729.476562 1425.957031 729.691406 1426.21875 C 729.800781 1426.035156 729.910156 1425.851562 730.039062 1425.628906 C 729.820312 1425.386719 729.59375 1425.132812 729.367188 1424.882812 C 729.257812 1425.066406 729.019531 1425.316406 729.070312 1425.421875 Z M 729.070312 1425.421875 " fill-opacity="1" fill-rule="nonzero"/><path fill="#eee8e2" d="M 722.546875 1436.515625 C 722.472656 1436.847656 722.347656 1437.183594 722.351562 1437.515625 C 722.355469 1437.632812 722.683594 1437.742188 722.863281 1437.855469 C 722.953125 1437.527344 723.039062 1437.195312 723.121094 1436.878906 C 722.90625 1436.742188 722.726562 1436.628906 722.546875 1436.515625 Z M 722.546875 1436.515625 " fill-opacity="1" fill-rule="nonzero"/><path fill="#eee8e2" d="M 725.089844 1427.867188 C 724.871094 1427.730469 724.691406 1427.617188 724.511719 1427.503906 C 724.441406 1427.839844 724.316406 1428.171875 724.324219 1428.503906 C 724.328125 1428.621094 724.65625 1428.734375 724.835938 1428.847656 C 724.921875 1428.515625 725.007812 1428.1875 725.089844 1427.867188 Z M 725.089844 1427.867188 " fill-opacity="1" fill-rule="nonzero"/><path fill="#eee8e2" d="M 726.085938 1433.0625 C 725.796875 1433.207031 725.566406 1433.476562 725.316406 1433.699219 C 725.496094 1433.8125 725.742188 1434.0625 725.84375 1434.011719 C 726.132812 1433.867188 726.359375 1433.597656 726.613281 1433.375 C 726.433594 1433.261719 726.1875 1433.011719 726.085938 1433.0625 Z M 726.085938 1433.0625 " fill-opacity="1" fill-rule="nonzero"/><path fill="#eee8e2" d="M 718.214844 1425.074219 C 718.101562 1425.074219 717.996094 1425.414062 717.890625 1425.597656 C 718.207031 1425.6875 718.527344 1425.78125 718.835938 1425.867188 C 718.964844 1425.648438 719.074219 1425.460938 719.183594 1425.277344 C 718.859375 1425.199219 718.535156 1425.066406 718.214844 1425.074219 Z M 718.214844 1425.074219 " fill-opacity="1" fill-rule="nonzero"/><path fill="#eee8e2" d="M 713.867188 1383.273438 C 713.765625 1383.457031 713.660156 1383.640625 713.535156 1383.863281 C 713.746094 1384.109375 713.96875 1384.359375 714.191406 1384.613281 C 714.296875 1384.429688 714.527344 1384.179688 714.480469 1384.074219 C 714.339844 1383.777344 714.082031 1383.539062 713.867188 1383.273438 Z M 713.867188 1383.273438 " fill-opacity="1" fill-rule="nonzero"/><path fill="#eee8e2" d="M 711.390625 1426.847656 C 711.429688 1427.167969 711.933594 1427.425781 712.230469 1427.710938 C 712.371094 1427.117188 712.507812 1426.523438 712.628906 1426.019531 C 712.191406 1425.597656 711.898438 1425.3125 711.601562 1425.027344 C 711.519531 1425.636719 711.316406 1426.261719 711.390625 1426.847656 Z M 711.390625 1426.847656 " fill-opacity="1" fill-rule="nonzero"/><path fill="#eee8e2" d="M 716.902344 1421.632812 C 716.851562 1421.449219 716.300781 1421.425781 715.976562 1421.328125 C 715.96875 1421.945312 715.894531 1422.582031 715.996094 1423.179688 C 716.023438 1423.34375 716.589844 1423.410156 717.136719 1423.601562 C 717.0625 1422.847656 717.078125 1422.210938 716.902344 1421.632812 Z M 716.902344 1421.632812 " fill-opacity="1" fill-rule="nonzero"/><path fill="#eee8e2" d="M 718.089844 1434.742188 C 718.496094 1434.792969 718.933594 1434.570312 719.359375 1434.464844 C 720.207031 1434.253906 721.074219 1434.089844 721.890625 1433.792969 C 722.050781 1433.734375 722.023438 1433.148438 722.082031 1432.804688 L 717.351562 1434.035156 C 717.597656 1434.285156 717.820312 1434.707031 718.089844 1434.742188 Z M 718.089844 1434.742188 " fill-opacity="1" fill-rule="nonzero"/><path fill="#eee8e2" d="M 714.871094 1410.011719 C 714.765625 1410.199219 714.527344 1410.449219 714.574219 1410.554688 C 714.71875 1410.851562 714.976562 1411.089844 715.191406 1411.355469 C 715.296875 1411.167969 715.535156 1410.917969 715.488281 1410.8125 C 715.34375 1410.515625 715.085938 1410.273438 714.871094 1410.011719 Z M 714.871094 1410.011719 " fill-opacity="1" fill-rule="nonzero"/><path fill="#eee8e2" d="M 743.101562 1405.855469 C 742.894531 1405.539062 742.730469 1405.164062 742.457031 1404.9375 C 742.375 1404.867188 741.984375 1405.203125 741.738281 1405.351562 L 742.53125 1405.996094 Z M 743.101562 1405.855469 " fill-opacity="1" fill-rule="nonzero"/><path fill="#eee8e2" d="M 740.949219 1412.535156 C 741.097656 1412.832031 741.359375 1413.070312 741.578125 1413.332031 C 741.683594 1413.148438 741.921875 1412.898438 741.871094 1412.792969 C 741.726562 1412.496094 741.460938 1412.257812 741.242188 1411.996094 C 741.136719 1412.179688 740.898438 1412.429688 740.949219 1412.535156 Z M 740.949219 1412.535156 " fill-opacity="1" fill-rule="nonzero"/><path fill="#eee8e2" d="M 735.613281 1414.101562 C 735.433594 1413.988281 735.253906 1413.875 735.039062 1413.738281 C 734.808594 1413.960938 734.566406 1414.1875 734.328125 1414.417969 C 734.507812 1414.53125 734.753906 1414.785156 734.855469 1414.734375 C 735.140625 1414.585938 735.367188 1414.320312 735.613281 1414.101562 Z M 735.613281 1414.101562 " fill-opacity="1" fill-rule="nonzero"/><path fill="#eee8e2" d="M 732.785156 1430.425781 C 732.964844 1430.539062 733.210938 1430.789062 733.3125 1430.738281 C 733.601562 1430.59375 733.832031 1430.324219 734.082031 1430.105469 C 733.902344 1429.992188 733.722656 1429.878906 733.503906 1429.742188 C 733.269531 1429.964844 733.027344 1430.195312 732.785156 1430.425781 Z M 732.785156 1430.425781 " fill-opacity="1" fill-rule="nonzero"/><path fill="#eee8e2" d="M 741.34375 1419.539062 C 741.488281 1419.835938 741.753906 1420.074219 741.972656 1420.335938 C 742.078125 1420.152344 742.183594 1419.96875 742.3125 1419.746094 C 742.089844 1419.503906 741.863281 1419.25 741.636719 1419 C 741.53125 1419.183594 741.289062 1419.433594 741.34375 1419.539062 Z M 741.34375 1419.539062 " fill-opacity="1" fill-rule="nonzero"/><path fill="#eee8e2" d="M 711.273438 1405.429688 C 711.042969 1405.652344 710.800781 1405.882812 710.5625 1406.113281 C 710.738281 1406.226562 710.980469 1406.476562 711.082031 1406.425781 C 711.363281 1406.28125 711.589844 1406.015625 711.839844 1405.792969 C 711.664062 1405.679688 711.484375 1405.566406 711.273438 1405.429688 Z M 711.273438 1405.429688 " fill-opacity="1" fill-rule="nonzero"/><path fill="#eee8e2" d="M 730.023438 1438.921875 C 730.109375 1438.589844 730.195312 1438.261719 730.277344 1437.945312 C 730.0625 1437.808594 729.878906 1437.695312 729.699219 1437.582031 C 729.628906 1437.914062 729.5 1438.25 729.507812 1438.582031 C 729.511719 1438.699219 729.84375 1438.808594 730.023438 1438.921875 Z M 730.023438 1438.921875 " fill-opacity="1" fill-rule="nonzero"/><path fill="#eee8e2" d="M 726.9375 1423.351562 C 727.261719 1423.429688 727.585938 1423.5625 727.90625 1423.558594 C 728.019531 1423.554688 728.121094 1423.214844 728.230469 1423.03125 C 727.910156 1422.941406 727.589844 1422.851562 727.28125 1422.761719 C 727.152344 1422.984375 727.046875 1423.167969 726.9375 1423.351562 Z M 726.9375 1423.351562 " fill-opacity="1" fill-rule="nonzero"/><path fill="#eee8e2" d="M 738.957031 1410.207031 C 739.269531 1410.632812 739.585938 1411.054688 739.722656 1411.242188 C 740.601562 1410.574219 740.914062 1410.335938 741.226562 1410.09375 C 740.785156 1409.890625 740.34375 1409.546875 739.902344 1409.535156 C 739.589844 1409.527344 739.273438 1409.964844 738.957031 1410.207031 Z M 738.957031 1410.207031 " fill-opacity="1" fill-rule="nonzero"/><path fill="#eee8e2" d="M 728.191406 1411.679688 C 728.371094 1411.792969 728.617188 1412.042969 728.71875 1411.992188 C 729.003906 1411.847656 729.230469 1411.578125 729.476562 1411.359375 C 729.296875 1411.246094 729.121094 1411.132812 728.902344 1410.996094 C 728.671875 1411.21875 728.433594 1411.449219 728.191406 1411.679688 Z M 728.191406 1411.679688 " fill-opacity="1" fill-rule="nonzero"/><path fill="#eee8e2" d="M 731.191406 1409.070312 C 730.90625 1409.214844 730.679688 1409.484375 730.433594 1409.703125 C 730.613281 1409.816406 730.792969 1409.929688 731.007812 1410.066406 C 731.238281 1409.84375 731.476562 1409.613281 731.714844 1409.382812 C 731.539062 1409.273438 731.289062 1409.019531 731.191406 1409.070312 Z M 731.191406 1409.070312 " fill-opacity="1" fill-rule="nonzero"/><path fill="#eee8e2" d="M 733.699219 1421.917969 C 733.703125 1422.035156 734.03125 1422.148438 734.214844 1422.257812 C 734.296875 1421.929688 734.378906 1421.601562 734.460938 1421.285156 C 734.242188 1421.148438 734.0625 1421.035156 733.882812 1420.921875 C 733.8125 1421.253906 733.691406 1421.585938 733.699219 1421.917969 Z M 733.699219 1421.917969 " fill-opacity="1" fill-rule="nonzero"/><path fill="#eee8e2" d="M 686.0625 1433.335938 L 686.695312 1432.546875 L 686.566406 1431.949219 C 686.253906 1432.144531 685.894531 1432.296875 685.667969 1432.566406 C 685.601562 1432.648438 685.917969 1433.070312 686.0625 1433.335938 Z M 686.0625 1433.335938 " fill-opacity="1" fill-rule="nonzero"/><path fill="#eee8e2" d="M 688.917969 1417.972656 C 689.21875 1418.121094 689.511719 1418.304688 689.828125 1418.402344 C 689.882812 1418.417969 690.03125 1418.085938 690.144531 1417.898438 L 689.359375 1417.246094 Z M 688.917969 1417.972656 " fill-opacity="1" fill-rule="nonzero"/><path fill="#eee8e2" d="M 689.019531 1430.714844 C 689.34375 1430.804688 689.664062 1430.945312 689.988281 1430.949219 C 690.097656 1430.949219 690.210938 1430.617188 690.320312 1430.4375 C 690.003906 1430.335938 689.683594 1430.234375 689.378906 1430.136719 C 689.242188 1430.355469 689.132812 1430.535156 689.019531 1430.714844 Z M 689.019531 1430.714844 " fill-opacity="1" fill-rule="nonzero"/><path fill="#eee8e2" d="M 686.433594 1431.347656 L 687.148438 1431.824219 C 687.289062 1431.515625 687.457031 1431.214844 687.546875 1430.886719 C 687.5625 1430.832031 687.238281 1430.671875 687.050781 1430.546875 Z M 686.433594 1431.347656 " fill-opacity="1" fill-rule="nonzero"/><path fill="#eee8e2" d="M 696.953125 1415.414062 C 697.1875 1415.199219 697.429688 1414.980469 697.675781 1414.757812 C 697.496094 1414.640625 697.253906 1414.382812 697.15625 1414.429688 C 696.867188 1414.5625 696.636719 1414.824219 696.382812 1415.035156 C 696.558594 1415.152344 696.738281 1415.273438 696.953125 1415.414062 Z M 696.953125 1415.414062 " fill-opacity="1" fill-rule="nonzero"/><path fill="#eee8e2" d="M 711.007812 1423.488281 C 711.296875 1423.34375 711.523438 1423.074219 711.777344 1422.855469 C 711.597656 1422.742188 711.421875 1422.628906 711.207031 1422.492188 C 710.972656 1422.714844 710.730469 1422.945312 710.488281 1423.175781 C 710.664062 1423.289062 710.910156 1423.539062 711.007812 1423.488281 Z M 711.007812 1423.488281 " fill-opacity="1" fill-rule="nonzero"/><path fill="#eee8e2" d="M 677.804688 1419.730469 C 677.695312 1419.910156 677.449219 1420.152344 677.496094 1420.261719 C 677.632812 1420.5625 677.886719 1420.808594 678.09375 1421.078125 C 678.207031 1420.898438 678.453125 1420.652344 678.40625 1420.546875 C 678.269531 1420.246094 678.015625 1419.996094 677.804688 1419.730469 Z M 677.804688 1419.730469 " fill-opacity="1" fill-rule="nonzero"/><path fill="#eee8e2" d="M 677.136719 1433.125 C 677.15625 1433.070312 676.832031 1432.910156 676.644531 1432.785156 L 676.027344 1433.585938 L 676.734375 1434.0625 C 676.878906 1433.753906 677.046875 1433.449219 677.136719 1433.125 Z M 677.136719 1433.125 " fill-opacity="1" fill-rule="nonzero"/><path fill="#eee8e2" d="M 688.785156 1417.371094 C 688.589844 1417.046875 688.4375 1416.671875 688.167969 1416.433594 C 688.089844 1416.363281 687.6875 1416.683594 687.4375 1416.824219 L 688.210938 1417.496094 Z M 688.785156 1417.371094 " fill-opacity="1" fill-rule="nonzero"/><path fill="#eee8e2" d="M 688.035156 1423.171875 C 688.148438 1422.992188 688.390625 1422.746094 688.34375 1422.640625 C 688.207031 1422.339844 687.949219 1422.09375 687.738281 1421.824219 C 687.628906 1422.007812 687.382812 1422.25 687.433594 1422.355469 C 687.570312 1422.65625 687.824219 1422.902344 688.035156 1423.171875 Z M 688.035156 1423.171875 " fill-opacity="1" fill-rule="nonzero"/><path fill="#eee8e2" d="M 692.421875 1430.691406 C 692.332031 1431.015625 692.238281 1431.34375 692.152344 1431.65625 C 692.367188 1431.796875 692.542969 1431.917969 692.722656 1432.035156 C 692.800781 1431.707031 692.929688 1431.375 692.925781 1431.042969 C 692.925781 1430.929688 692.601562 1430.808594 692.421875 1430.691406 Z M 692.421875 1430.691406 " fill-opacity="1" fill-rule="nonzero"/><path fill="#eee8e2" d="M 694.859375 1408.3125 C 695.039062 1408.429688 695.277344 1408.691406 695.378906 1408.640625 C 695.667969 1408.507812 695.894531 1408.246094 696.148438 1408.035156 C 695.96875 1407.917969 695.792969 1407.800781 695.582031 1407.65625 C 695.347656 1407.867188 695.105469 1408.089844 694.859375 1408.3125 Z M 694.859375 1408.3125 " fill-opacity="1" fill-rule="nonzero"/><path fill="#eee8e2" d="M 701.84375 1424.4375 L 701.402344 1425.160156 C 701.703125 1425.3125 702 1425.492188 702.320312 1425.589844 C 702.375 1425.605469 702.523438 1425.277344 702.636719 1425.085938 Z M 701.84375 1424.4375 " fill-opacity="1" fill-rule="nonzero"/><path fill="#eee8e2" d="M 700.640625 1423.628906 C 700.558594 1423.558594 700.160156 1423.878906 699.90625 1424.019531 L 700.683594 1424.6875 L 701.265625 1424.5625 C 701.066406 1424.238281 700.910156 1423.863281 700.640625 1423.628906 Z M 700.640625 1423.628906 " fill-opacity="1" fill-rule="nonzero"/><path fill="#eee8e2" d="M 704.742188 1424.019531 C 704.507812 1424.230469 704.261719 1424.453125 704.015625 1424.675781 C 704.195312 1424.792969 704.4375 1425.050781 704.539062 1425.003906 C 704.828125 1424.867188 705.058594 1424.609375 705.316406 1424.398438 C 705.136719 1424.28125 704.957031 1424.160156 704.742188 1424.019531 Z M 704.742188 1424.019531 " fill-opacity="1" fill-rule="nonzero"/><path fill="#eee8e2" d="M 703.5625 1434.640625 C 703.882812 1434.742188 704.203125 1434.84375 704.511719 1434.941406 C 704.648438 1434.722656 704.757812 1434.542969 704.871094 1434.363281 C 704.542969 1434.273438 704.21875 1434.132812 703.894531 1434.128906 C 703.785156 1434.128906 703.675781 1434.460938 703.5625 1434.640625 Z M 703.5625 1434.640625 " fill-opacity="1" fill-rule="nonzero"/><path fill="#eee8e2" d="M 675.640625 1435.574219 L 676.28125 1434.789062 L 676.152344 1434.1875 C 675.84375 1434.382812 675.480469 1434.535156 675.253906 1434.804688 C 675.1875 1434.886719 675.503906 1435.308594 675.640625 1435.574219 Z M 675.640625 1435.574219 " fill-opacity="1" fill-rule="nonzero"/><path fill="#eee8e2" d="M 698.46875 1432.414062 C 698.226562 1432.628906 697.980469 1432.851562 697.734375 1433.074219 C 697.914062 1433.191406 698.15625 1433.449219 698.257812 1433.402344 C 698.546875 1433.265625 698.78125 1433.003906 699.039062 1432.792969 C 698.859375 1432.675781 698.679688 1432.558594 698.46875 1432.414062 Z M 698.46875 1432.414062 " fill-opacity="1" fill-rule="nonzero"/><g clip-path="url(#dd880c1e4f)"><path fill="#eee8e2" d="M 697.828125 1438.453125 C 697.96875 1438.753906 698.230469 1439 698.441406 1439.265625 C 698.554688 1439.085938 698.664062 1438.90625 698.800781 1438.6875 C 698.585938 1438.4375 698.363281 1438.179688 698.140625 1437.921875 C 698.027344 1438.101562 697.78125 1438.347656 697.828125 1438.453125 Z M 697.828125 1438.453125 " fill-opacity="1" fill-rule="nonzero"/></g><path fill="#eee8e2" d="M 697.65625 1403.6875 C 697.445312 1403.4375 697.222656 1403.175781 697.003906 1402.917969 C 696.894531 1403.097656 696.652344 1403.339844 696.703125 1403.445312 C 696.839844 1403.746094 697.097656 1403.996094 697.308594 1404.261719 C 697.417969 1404.082031 697.527344 1403.902344 697.65625 1403.6875 Z M 697.65625 1403.6875 " fill-opacity="1" fill-rule="nonzero"/><path fill="#eee8e2" d="M 696.488281 1425.382812 C 696.726562 1425.167969 696.972656 1424.945312 697.21875 1424.726562 C 697.039062 1424.605469 696.796875 1424.347656 696.695312 1424.394531 C 696.40625 1424.53125 696.175781 1424.792969 695.917969 1425.003906 C 696.097656 1425.121094 696.273438 1425.242188 696.488281 1425.382812 Z M 696.488281 1425.382812 " fill-opacity="1" fill-rule="nonzero"/><path fill="#eee8e2" d="M 697.128906 1430.382812 C 697.308594 1430.503906 697.550781 1430.761719 697.652344 1430.710938 C 697.941406 1430.578125 698.175781 1430.316406 698.433594 1430.105469 C 698.253906 1429.984375 698.074219 1429.867188 697.859375 1429.726562 C 697.621094 1429.941406 697.375 1430.160156 697.128906 1430.382812 Z M 697.128906 1430.382812 " fill-opacity="1" fill-rule="nonzero"/><path fill="#eee8e2" d="M 776.492188 1411.085938 C 776.773438 1410.933594 776.996094 1410.65625 777.238281 1410.429688 C 777.054688 1410.320312 776.875 1410.214844 776.652344 1410.085938 C 776.429688 1410.3125 776.191406 1410.550781 775.957031 1410.789062 C 776.140625 1410.898438 776.394531 1411.140625 776.492188 1411.085938 Z M 776.492188 1411.085938 " fill-opacity="1" fill-rule="nonzero"/><path fill="#eee8e2" d="M 769 1423.488281 C 769.105469 1423.300781 769.210938 1423.113281 769.335938 1422.886719 C 769.113281 1422.648438 768.878906 1422.402344 768.648438 1422.15625 C 768.542969 1422.34375 768.308594 1422.605469 768.359375 1422.707031 C 768.511719 1423.003906 768.78125 1423.234375 769 1423.488281 Z M 769 1423.488281 " fill-opacity="1" fill-rule="nonzero"/><path fill="#eee8e2" d="M 768.652344 1414.234375 C 768.683594 1414.394531 769.253906 1414.441406 769.808594 1414.613281 C 769.714844 1413.867188 769.707031 1413.226562 769.519531 1412.65625 C 769.457031 1412.472656 768.90625 1412.464844 768.582031 1412.378906 C 768.589844 1413 768.535156 1413.632812 768.652344 1414.234375 Z M 768.652344 1414.234375 " fill-opacity="1" fill-rule="nonzero"/><path fill="#eee8e2" d="M 770.820312 1400.332031 C 770.707031 1400.335938 770.617188 1400.679688 770.515625 1400.867188 C 770.835938 1400.945312 771.152344 1401.027344 771.464844 1401.109375 C 771.585938 1400.882812 771.6875 1400.695312 771.789062 1400.507812 C 771.464844 1400.4375 771.140625 1400.316406 770.820312 1400.332031 Z M 770.820312 1400.332031 " fill-opacity="1" fill-rule="nonzero"/><path fill="#eee8e2" d="M 770.136719 1433.144531 C 770.292969 1433.113281 770.339844 1432.523438 770.503906 1431.949219 C 769.773438 1432.042969 769.15625 1432.046875 768.597656 1432.242188 C 768.421875 1432.304688 768.414062 1432.875 768.328125 1433.207031 C 768.9375 1433.210938 769.550781 1433.265625 770.136719 1433.144531 Z M 770.136719 1433.144531 " fill-opacity="1" fill-rule="nonzero"/><path fill="#eee8e2" d="M 768.9375 1407.753906 C 768.835938 1407.941406 768.601562 1408.203125 768.65625 1408.304688 C 768.804688 1408.597656 769.074219 1408.828125 769.292969 1409.085938 C 769.398438 1408.898438 769.5 1408.710938 769.625 1408.484375 C 769.398438 1408.246094 769.167969 1408 768.9375 1407.753906 Z M 768.9375 1407.753906 " fill-opacity="1" fill-rule="nonzero"/><path fill="#eee8e2" d="M 763.695312 1406.542969 C 764.140625 1406.949219 764.445312 1407.226562 764.746094 1407.503906 C 764.8125 1406.890625 764.992188 1406.261719 764.898438 1405.675781 C 764.851562 1405.359375 764.339844 1405.113281 764.039062 1404.839844 C 763.917969 1405.4375 763.796875 1406.035156 763.695312 1406.542969 Z M 763.695312 1406.542969 " fill-opacity="1" fill-rule="nonzero"/><path fill="#eee8e2" d="M 759.652344 1395.085938 C 759.800781 1395.382812 760.066406 1395.613281 760.285156 1395.871094 C 760.386719 1395.683594 760.492188 1395.496094 760.613281 1395.269531 C 760.390625 1395.03125 760.160156 1394.785156 759.933594 1394.535156 C 759.832031 1394.726562 759.601562 1394.984375 759.652344 1395.085938 Z M 759.652344 1395.085938 " fill-opacity="1" fill-rule="nonzero"/><path fill="#eee8e2" d="M 764.273438 1414.75 C 764.820312 1414.578125 765.289062 1414.148438 765.910156 1413.75 C 765.320312 1413.546875 764.855469 1413.210938 764.570312 1413.328125 C 764.039062 1413.539062 763.613281 1414.039062 763.136719 1414.386719 C 763.519531 1414.53125 763.957031 1414.851562 764.273438 1414.75 Z M 764.273438 1414.75 " fill-opacity="1" fill-rule="nonzero"/><path fill="#eee8e2" d="M 760.085938 1408.042969 C 760.265625 1408.15625 760.519531 1408.402344 760.617188 1408.351562 C 760.902344 1408.207031 761.125 1407.941406 761.375 1407.722656 C 761.191406 1407.609375 761.007812 1407.496094 760.789062 1407.363281 C 760.5625 1407.582031 760.324219 1407.8125 760.085938 1408.042969 Z M 760.085938 1408.042969 " fill-opacity="1" fill-rule="nonzero"/><path fill="#eee8e2" d="M 772.054688 1410.703125 C 772.058594 1410.816406 772.390625 1410.917969 772.574219 1411.027344 C 772.648438 1410.695312 772.726562 1410.363281 772.796875 1410.042969 C 772.578125 1409.910156 772.394531 1409.804688 772.214844 1409.695312 C 772.152344 1410.03125 772.039062 1410.371094 772.054688 1410.703125 Z M 772.054688 1410.703125 " fill-opacity="1" fill-rule="nonzero"/><path fill="#eee8e2" d="M 772.507812 1383.117188 C 772.691406 1383.226562 772.871094 1383.335938 773.089844 1383.464844 C 773.3125 1383.238281 773.542969 1383 773.773438 1382.761719 C 773.589844 1382.65625 773.339844 1382.410156 773.242188 1382.464844 C 772.964844 1382.617188 772.75 1382.890625 772.507812 1383.117188 Z M 772.507812 1383.117188 " fill-opacity="1" fill-rule="nonzero"/><path fill="#eee8e2" d="M 766.195312 1384.894531 C 766.015625 1384.789062 765.835938 1384.679688 765.617188 1384.550781 C 765.394531 1384.777344 765.164062 1385.015625 764.933594 1385.25 C 765.113281 1385.359375 765.363281 1385.605469 765.460938 1385.550781 C 765.738281 1385.398438 765.957031 1385.121094 766.195312 1384.894531 Z M 766.195312 1384.894531 " fill-opacity="1" fill-rule="nonzero"/><path fill="#eee8e2" d="M 782.285156 1431.207031 L 782.863281 1431.042969 C 782.648438 1430.734375 782.476562 1430.367188 782.195312 1430.148438 C 782.113281 1430.082031 781.722656 1430.429688 781.46875 1430.585938 Z M 782.285156 1431.207031 " fill-opacity="1" fill-rule="nonzero"/><path fill="#eee8e2" d="M 782.65625 1371.464844 C 782.4375 1371.335938 782.257812 1371.226562 782.074219 1371.117188 C 782.019531 1371.453125 781.910156 1371.789062 781.933594 1372.121094 C 781.941406 1372.234375 782.269531 1372.335938 782.449219 1372.445312 C 782.519531 1372.113281 782.589844 1371.785156 782.65625 1371.464844 Z M 782.65625 1371.464844 " fill-opacity="1" fill-rule="nonzero"/><path fill="#eee8e2" d="M 773.0625 1400.148438 C 773.246094 1400.257812 773.496094 1400.5 773.59375 1400.445312 C 773.875 1400.292969 774.09375 1400.015625 774.335938 1399.789062 C 774.15625 1399.679688 773.972656 1399.574219 773.753906 1399.445312 C 773.53125 1399.671875 773.296875 1399.910156 773.0625 1400.148438 Z M 773.0625 1400.148438 " fill-opacity="1" fill-rule="nonzero"/><path fill="#eee8e2" d="M 774.746094 1431.886719 C 775.109375 1433.003906 774.882812 1434.863281 776.984375 1434.101562 C 777.324219 1433.980469 777.550781 1433.523438 777.785156 1433.265625 L 774.859375 1430.667969 C 774.8125 1431.078125 774.632812 1431.53125 774.746094 1431.886719 Z M 774.746094 1431.886719 " fill-opacity="1" fill-rule="nonzero"/><path fill="#eee8e2" d="M 777.003906 1403.582031 C 777.011719 1403.695312 777.339844 1403.796875 777.523438 1403.90625 C 777.597656 1403.574219 777.671875 1403.242188 777.742188 1402.921875 C 777.523438 1402.792969 777.339844 1402.683594 777.160156 1402.574219 C 777.097656 1402.910156 776.984375 1403.25 777.003906 1403.582031 Z M 777.003906 1403.582031 " fill-opacity="1" fill-rule="nonzero"/><path fill="#eee8e2" d="M 776.160156 1374.214844 C 776.105469 1374.546875 775.996094 1374.886719 776.015625 1375.214844 C 776.023438 1375.332031 776.351562 1375.433594 776.53125 1375.542969 C 776.601562 1375.210938 776.671875 1374.878906 776.738281 1374.558594 C 776.523438 1374.429688 776.34375 1374.320312 776.160156 1374.214844 Z M 776.160156 1374.214844 " fill-opacity="1" fill-rule="nonzero"/><path fill="#eee8e2" d="M 774.554688 1425.277344 C 774.878906 1425.695312 775.203125 1426.109375 775.34375 1426.292969 C 776.21875 1425.59375 776.53125 1425.339844 776.84375 1425.089844 C 776.398438 1424.898438 775.945312 1424.570312 775.5 1424.574219 C 775.183594 1424.574219 774.871094 1425.027344 774.554688 1425.277344 Z M 774.554688 1425.277344 " fill-opacity="1" fill-rule="nonzero"/><path fill="#eee8e2" d="M 773.148438 1420.558594 C 773.320312 1421.179688 773.949219 1421.675781 774.71875 1422.640625 C 775.308594 1421.476562 775.894531 1420.722656 775.75 1420.519531 C 775.355469 1419.957031 774.6875 1419.519531 774.042969 1419.273438 C 773.894531 1419.21875 773.054688 1420.21875 773.148438 1420.558594 Z M 773.148438 1420.558594 " fill-opacity="1" fill-rule="nonzero"/><path fill="#eee8e2" d="M 736.320312 1405.199219 C 736.539062 1405.441406 736.765625 1405.695312 736.992188 1405.949219 C 737.097656 1405.761719 737.332031 1405.511719 737.28125 1405.40625 C 737.136719 1405.109375 736.871094 1404.871094 736.65625 1404.609375 C 736.550781 1404.792969 736.445312 1404.976562 736.320312 1405.199219 Z M 736.320312 1405.199219 " fill-opacity="1" fill-rule="nonzero"/><path fill="#eee8e2" d="M 739.398438 1424.378906 C 739.410156 1424.324219 739.082031 1424.175781 738.890625 1424.054688 L 738.296875 1424.875 L 739.023438 1425.328125 C 739.15625 1425.015625 739.316406 1424.707031 739.398438 1424.378906 Z M 739.398438 1424.378906 " fill-opacity="1" fill-rule="nonzero"/><path fill="#eee8e2" d="M 735.773438 1425.292969 L 736.570312 1425.9375 L 737.148438 1425.792969 C 736.941406 1425.476562 736.78125 1425.105469 736.503906 1424.875 C 736.421875 1424.808594 736.027344 1425.140625 735.773438 1425.292969 Z M 735.773438 1425.292969 " fill-opacity="1" fill-rule="nonzero"/><path fill="#eee8e2" d="M 735.71875 1392.769531 C 736.035156 1392.863281 736.351562 1392.953125 736.65625 1393.042969 C 736.78125 1392.824219 736.886719 1392.640625 736.988281 1392.453125 C 736.667969 1392.375 736.347656 1392.246094 736.03125 1392.25 C 735.917969 1392.25 735.820312 1392.585938 735.71875 1392.769531 Z M 735.71875 1392.769531 " fill-opacity="1" fill-rule="nonzero"/><path fill="#eee8e2" d="M 736.820312 1381.136719 C 737 1381.25 737.175781 1381.363281 737.390625 1381.5 C 737.617188 1381.28125 737.851562 1381.050781 738.085938 1380.824219 C 737.90625 1380.707031 737.660156 1380.457031 737.5625 1380.507812 C 737.285156 1380.652344 737.0625 1380.917969 736.820312 1381.136719 Z M 736.820312 1381.136719 " fill-opacity="1" fill-rule="nonzero"/><path fill="#eee8e2" d="M 737.425781 1387.84375 C 737.574219 1388.140625 737.835938 1388.378906 738.050781 1388.640625 C 738.15625 1388.457031 738.257812 1388.273438 738.382812 1388.054688 C 738.164062 1387.8125 737.941406 1387.558594 737.714844 1387.304688 C 737.609375 1387.488281 737.375 1387.738281 737.425781 1387.84375 Z M 737.425781 1387.84375 " fill-opacity="1" fill-rule="nonzero"/><path fill="#eee8e2" d="M 737.734375 1400.792969 C 737.917969 1400.90625 738.097656 1401.019531 738.3125 1401.15625 C 738.539062 1400.933594 738.777344 1400.703125 739.015625 1400.476562 C 738.835938 1400.363281 738.589844 1400.109375 738.488281 1400.160156 C 738.207031 1400.304688 737.984375 1400.574219 737.734375 1400.792969 Z M 737.734375 1400.792969 " fill-opacity="1" fill-rule="nonzero"/><path fill="#eee8e2" d="M 737.429688 1414.09375 C 737.714844 1413.949219 737.941406 1413.679688 738.191406 1413.460938 C 738.011719 1413.347656 737.832031 1413.234375 737.613281 1413.097656 C 737.382812 1413.320312 737.144531 1413.550781 736.902344 1413.78125 C 737.082031 1413.894531 737.332031 1414.144531 737.429688 1414.09375 Z M 737.429688 1414.09375 " fill-opacity="1" fill-rule="nonzero"/><path fill="#eee8e2" d="M 738.445312 1425.472656 L 737.148438 1425.792969 C 737.257812 1426.230469 737.3125 1426.691406 737.488281 1427.097656 C 737.652344 1427.472656 737.941406 1427.789062 738.175781 1428.132812 C 738.375 1427.683594 738.683594 1427.246094 738.738281 1426.78125 C 738.785156 1426.363281 738.554688 1425.910156 738.445312 1425.472656 Z M 738.445312 1425.472656 " fill-opacity="1" fill-rule="nonzero"/><path fill="#eee8e2" d="M 735.984375 1436.957031 C 736.589844 1436.96875 737.210938 1437.050781 737.792969 1436.949219 C 737.953125 1436.917969 738.007812 1436.332031 738.183594 1435.769531 C 737.453125 1435.839844 736.832031 1435.824219 736.269531 1436 C 736.09375 1436.054688 736.074219 1436.625 735.984375 1436.957031 Z M 735.984375 1436.957031 " fill-opacity="1" fill-rule="nonzero"/><path fill="#eee8e2" d="M 737.195312 1395.953125 C 737.09375 1396.136719 736.859375 1396.386719 736.90625 1396.492188 C 737.054688 1396.789062 737.316406 1397.03125 737.535156 1397.292969 C 737.636719 1397.109375 737.742188 1396.925781 737.867188 1396.703125 C 737.648438 1396.460938 737.421875 1396.207031 737.195312 1395.953125 Z M 737.195312 1395.953125 " fill-opacity="1" fill-rule="nonzero"/><path fill="#eee8e2" d="M 757.132812 1414.085938 C 757.050781 1414.015625 756.660156 1414.351562 756.410156 1414.5 L 757.210938 1415.140625 L 757.789062 1415 C 757.578125 1414.683594 757.410156 1414.3125 757.132812 1414.085938 Z M 757.132812 1414.085938 " fill-opacity="1" fill-rule="nonzero"/><path fill="#eee8e2" d="M 764.746094 1438.789062 C 764.859375 1438.394531 764.972656 1437.996094 765.25 1437.019531 C 764.34375 1436.84375 763.496094 1436.53125 762.671875 1436.566406 C 762.121094 1436.585938 761.601562 1437.101562 761.070312 1437.394531 Z M 764.746094 1438.789062 " fill-opacity="1" fill-rule="nonzero"/><path fill="#eee8e2" d="M 762.273438 1429.511719 C 762.203125 1429.84375 762.085938 1430.175781 762.097656 1430.507812 C 762.101562 1430.625 762.4375 1430.734375 762.621094 1430.84375 C 762.699219 1430.515625 762.78125 1430.1875 762.859375 1429.871094 C 762.640625 1429.734375 762.453125 1429.625 762.273438 1429.511719 Z M 762.273438 1429.511719 " fill-opacity="1" fill-rule="nonzero"/><path fill="#eee8e2" d="M 766.148438 1427.082031 C 766.6875 1426.890625 767.125 1426.40625 767.597656 1426.03125 C 767.210938 1425.898438 766.828125 1425.765625 766.261719 1425.570312 C 765.882812 1425.910156 765.445312 1426.308594 765.003906 1426.707031 C 765.390625 1426.847656 765.855469 1427.191406 766.148438 1427.082031 Z M 766.148438 1427.082031 " fill-opacity="1" fill-rule="nonzero"/><path fill="#eee8e2" d="M 743.253906 1406.449219 C 743.558594 1406.59375 743.859375 1406.761719 744.179688 1406.851562 C 744.230469 1406.867188 744.371094 1406.53125 744.480469 1406.339844 L 743.675781 1405.710938 Z M 743.253906 1406.449219 " fill-opacity="1" fill-rule="nonzero"/><path fill="#eee8e2" d="M 763.949219 1422.707031 C 764.132812 1422.820312 764.316406 1422.929688 764.535156 1423.066406 C 764.765625 1422.84375 765.007812 1422.613281 765.25 1422.382812 C 765.0625 1422.273438 764.8125 1422.023438 764.710938 1422.074219 C 764.421875 1422.21875 764.199219 1422.484375 763.949219 1422.707031 Z M 763.949219 1422.707031 " fill-opacity="1" fill-rule="nonzero"/><path fill="#eee8e2" d="M 758.363281 1414.855469 L 757.945312 1415.59375 C 758.253906 1415.738281 758.554688 1415.90625 758.878906 1415.996094 C 758.933594 1416.007812 759.070312 1415.671875 759.179688 1415.480469 Z M 758.363281 1414.855469 " fill-opacity="1" fill-rule="nonzero"/><path fill="#eee8e2" d="M 764.144531 1402.660156 C 764.324219 1402.769531 764.503906 1402.875 764.722656 1403.007812 C 764.949219 1402.777344 765.183594 1402.539062 765.417969 1402.300781 C 765.238281 1402.191406 764.984375 1401.949219 764.886719 1402.003906 C 764.605469 1402.15625 764.386719 1402.433594 764.144531 1402.660156 Z M 764.144531 1402.660156 " fill-opacity="1" fill-rule="nonzero"/><path fill="#eee8e2" d="M 745.960938 1430.710938 C 746.03125 1430.378906 746.152344 1430.042969 746.140625 1429.710938 C 746.136719 1429.597656 745.808594 1429.484375 745.625 1429.371094 C 745.542969 1429.703125 745.457031 1430.03125 745.378906 1430.347656 C 745.597656 1430.484375 745.78125 1430.597656 745.960938 1430.710938 Z M 745.960938 1430.710938 " fill-opacity="1" fill-rule="nonzero"/><path fill="#eee8e2" d="M 744.859375 1436.398438 C 744.976562 1436.394531 745.078125 1436.058594 745.1875 1435.875 C 744.863281 1435.78125 744.539062 1435.691406 744.226562 1435.605469 C 744.097656 1435.828125 743.988281 1436.011719 743.882812 1436.195312 C 744.207031 1436.273438 744.539062 1436.402344 744.859375 1436.398438 Z M 744.859375 1436.398438 " fill-opacity="1" fill-rule="nonzero"/><path fill="#eee8e2" d="M 746.460938 1414.457031 C 746.242188 1414.214844 746.011719 1413.964844 745.785156 1413.710938 C 745.679688 1413.894531 745.441406 1414.144531 745.492188 1414.25 C 745.640625 1414.546875 745.90625 1414.785156 746.125 1415.046875 C 746.230469 1414.863281 746.335938 1414.679688 746.460938 1414.457031 Z M 746.460938 1414.457031 " fill-opacity="1" fill-rule="nonzero"/><path fill="#eee8e2" d="M 494.140625 1421.808594 C 494.015625 1421.976562 493.886719 1422.144531 493.734375 1422.347656 C 493.917969 1422.617188 494.105469 1422.898438 494.292969 1423.175781 C 494.421875 1423.007812 494.683594 1422.789062 494.648438 1422.679688 C 494.542969 1422.363281 494.320312 1422.09375 494.140625 1421.808594 Z M 494.140625 1421.808594 " fill-opacity="1" fill-rule="nonzero"/><path fill="#eee8e2" d="M 514.617188 1433.960938 C 514.921875 1434.09375 515.222656 1434.222656 515.515625 1434.351562 C 515.667969 1434.148438 515.792969 1433.976562 515.917969 1433.808594 C 515.609375 1433.691406 515.308594 1433.519531 514.992188 1433.484375 C 514.882812 1433.472656 514.742188 1433.792969 514.617188 1433.960938 Z M 514.617188 1433.960938 " fill-opacity="1" fill-rule="nonzero"/><path fill="#eee8e2" d="M 671.761719 1404.109375 C 671.652344 1404.289062 671.542969 1404.46875 671.410156 1404.683594 C 671.617188 1404.9375 671.835938 1405.195312 672.050781 1405.457031 C 672.160156 1405.273438 672.402344 1405.03125 672.355469 1404.925781 C 672.222656 1404.625 671.96875 1404.375 671.761719 1404.109375 Z M 671.761719 1404.109375 " fill-opacity="1" fill-rule="nonzero"/><g clip-path="url(#21abd87e4e)"><path fill="#eee8e2" d="M 652.207031 1439.457031 L 652.0625 1439.632812 L 652.488281 1439.632812 C 652.394531 1439.574219 652.289062 1439.511719 652.207031 1439.457031 Z M 652.207031 1439.457031 " fill-opacity="1" fill-rule="nonzero"/></g><path fill="#eee8e2" d="M 648.632812 1427.648438 C 648.339844 1427.777344 648.101562 1428.027344 647.84375 1428.230469 C 648.015625 1428.355469 648.191406 1428.480469 648.398438 1428.628906 C 648.640625 1428.421875 648.894531 1428.207031 649.144531 1427.996094 C 648.96875 1427.871094 648.734375 1427.605469 648.632812 1427.648438 Z M 648.632812 1427.648438 " fill-opacity="1" fill-rule="nonzero"/><path fill="#eee8e2" d="M 650.214844 1433.402344 C 650.390625 1433.527344 650.628906 1433.792969 650.730469 1433.75 C 651.023438 1433.625 651.257812 1433.355469 651.515625 1433.144531 C 651.34375 1433.027344 651.167969 1432.90625 650.960938 1432.761719 C 650.71875 1432.972656 650.46875 1433.1875 650.214844 1433.402344 Z M 650.214844 1433.402344 " fill-opacity="1" fill-rule="nonzero"/><path fill="#eee8e2" d="M 627.820312 1429.074219 C 627.503906 1428.976562 627.1875 1428.824219 626.871094 1428.8125 C 626.757812 1428.804688 626.636719 1429.136719 626.523438 1429.3125 C 626.832031 1429.421875 627.144531 1429.535156 627.449219 1429.640625 C 627.585938 1429.429688 627.703125 1429.253906 627.820312 1429.074219 Z M 627.820312 1429.074219 " fill-opacity="1" fill-rule="nonzero"/><path fill="#eee8e2" d="M 651.765625 1429.832031 C 651.472656 1429.96875 651.238281 1430.226562 650.980469 1430.441406 C 651.152344 1430.558594 651.386719 1430.820312 651.488281 1430.769531 C 651.78125 1430.632812 652.015625 1430.375 652.273438 1430.160156 C 652.101562 1430.042969 651.867188 1429.78125 651.765625 1429.832031 Z M 651.765625 1429.832031 " fill-opacity="1" fill-rule="nonzero"/><path fill="#eee8e2" d="M 646.28125 1421.308594 C 646.070312 1421.160156 645.898438 1421.035156 645.726562 1420.910156 C 645.640625 1421.238281 645.503906 1421.5625 645.5 1421.890625 C 645.496094 1422.007812 645.816406 1422.140625 645.992188 1422.261719 C 646.089844 1421.941406 646.1875 1421.617188 646.28125 1421.308594 Z M 646.28125 1421.308594 " fill-opacity="1" fill-rule="nonzero"/><path fill="#eee8e2" d="M 643.976562 1413.023438 C 643.839844 1413.234375 643.726562 1413.414062 643.613281 1413.589844 C 643.929688 1413.6875 644.246094 1413.839844 644.5625 1413.855469 C 644.671875 1413.859375 644.789062 1413.53125 644.902344 1413.355469 C 644.589844 1413.242188 644.277344 1413.132812 643.976562 1413.023438 Z M 643.976562 1413.023438 " fill-opacity="1" fill-rule="nonzero"/><path fill="#eee8e2" d="M 630.65625 1433.460938 C 630.558594 1433.785156 630.457031 1434.109375 630.359375 1434.421875 C 630.566406 1434.570312 630.738281 1434.695312 630.914062 1434.816406 C 631 1434.492188 631.140625 1434.164062 631.148438 1433.832031 C 631.152344 1433.71875 630.832031 1433.585938 630.65625 1433.460938 Z M 630.65625 1433.460938 " fill-opacity="1" fill-rule="nonzero"/><path fill="#eee8e2" d="M 636.0625 1435.328125 C 635.515625 1435.492188 635.054688 1435.929688 634.554688 1436.253906 C 634.925781 1436.421875 635.34375 1436.777344 635.664062 1436.710938 C 636.222656 1436.589844 636.71875 1436.207031 637.371094 1435.871094 C 636.792969 1435.613281 636.355469 1435.238281 636.0625 1435.328125 Z M 636.0625 1435.328125 " fill-opacity="1" fill-rule="nonzero"/><path fill="#eee8e2" d="M 639.105469 1429.324219 C 638.964844 1429.535156 638.851562 1429.710938 638.734375 1429.890625 C 639.050781 1429.988281 639.371094 1430.136719 639.6875 1430.152344 C 639.800781 1430.160156 639.921875 1429.828125 640.035156 1429.652344 C 639.722656 1429.539062 639.40625 1429.429688 639.105469 1429.324219 Z M 639.105469 1429.324219 " fill-opacity="1" fill-rule="nonzero"/><path fill="#eee8e2" d="M 650.753906 1436.109375 C 650.929688 1436.230469 651.164062 1436.496094 651.265625 1436.453125 C 651.5625 1436.328125 651.796875 1436.058594 652.054688 1435.847656 C 651.882812 1435.730469 651.707031 1435.609375 651.496094 1435.46875 C 651.253906 1435.675781 651.003906 1435.890625 650.753906 1436.109375 Z M 650.753906 1436.109375 " fill-opacity="1" fill-rule="nonzero"/><path fill="#eee8e2" d="M 669.558594 1438.425781 C 669.707031 1438.039062 670.050781 1437.582031 669.953125 1437.277344 C 669.769531 1436.714844 669.328125 1436.238281 668.996094 1435.726562 C 668.851562 1436.113281 668.703125 1436.5 668.488281 1437.070312 C 668.808594 1437.472656 669.183594 1437.949219 669.558594 1438.425781 Z M 669.558594 1438.425781 " fill-opacity="1" fill-rule="nonzero"/><path fill="#eee8e2" d="M 667.976562 1421.136719 C 668.152344 1421.257812 668.390625 1421.515625 668.492188 1421.46875 C 668.777344 1421.332031 669.011719 1421.074219 669.269531 1420.859375 C 669.09375 1420.742188 668.917969 1420.621094 668.707031 1420.480469 C 668.472656 1420.695312 668.222656 1420.917969 667.976562 1421.136719 Z M 667.976562 1421.136719 " fill-opacity="1" fill-rule="nonzero"/><path fill="#eee8e2" d="M 671.285156 1435.699219 C 671.421875 1436 671.675781 1436.246094 671.882812 1436.515625 C 671.996094 1436.335938 672.109375 1436.152344 672.246094 1435.9375 C 672.035156 1435.683594 671.816406 1435.425781 671.597656 1435.164062 C 671.488281 1435.347656 671.238281 1435.589844 671.285156 1435.699219 Z M 671.285156 1435.699219 " fill-opacity="1" fill-rule="nonzero"/><path fill="#eee8e2" d="M 515.855469 1438.675781 C 515.980469 1438.503906 516.105469 1438.335938 516.257812 1438.132812 C 516.070312 1437.863281 515.878906 1437.585938 515.6875 1437.304688 C 515.558594 1437.476562 515.296875 1437.695312 515.335938 1437.804688 C 515.441406 1438.117188 515.671875 1438.386719 515.855469 1438.675781 Z M 515.855469 1438.675781 " fill-opacity="1" fill-rule="nonzero"/><path fill="#eee8e2" d="M 670.992188 1416.257812 C 671.3125 1416.347656 671.628906 1416.488281 671.949219 1416.496094 C 672.058594 1416.496094 672.167969 1416.164062 672.28125 1415.984375 C 671.96875 1415.878906 671.652344 1415.777344 671.347656 1415.679688 C 671.214844 1415.898438 671.105469 1416.078125 670.992188 1416.257812 Z M 670.992188 1416.257812 " fill-opacity="1" fill-rule="nonzero"/><path fill="#eee8e2" d="M 662.304688 1423.066406 C 662.417969 1422.882812 662.664062 1422.640625 662.617188 1422.535156 C 662.484375 1422.230469 662.234375 1421.984375 662.027344 1421.714844 C 661.914062 1421.894531 661.800781 1422.078125 661.667969 1422.292969 C 661.875 1422.542969 662.089844 1422.804688 662.304688 1423.066406 Z M 662.304688 1423.066406 " fill-opacity="1" fill-rule="nonzero"/><path fill="#eee8e2" d="M 660.859375 1412.800781 C 661.171875 1412.902344 661.484375 1413.003906 661.785156 1413.101562 C 661.921875 1412.882812 662.03125 1412.703125 662.144531 1412.523438 C 661.828125 1412.433594 661.511719 1412.292969 661.195312 1412.289062 C 661.085938 1412.285156 660.972656 1412.617188 660.859375 1412.800781 Z M 660.859375 1412.800781 " fill-opacity="1" fill-rule="nonzero"/><path fill="#eee8e2" d="M 658.238281 1428.433594 C 657.949219 1428.574219 657.710938 1428.832031 657.453125 1429.046875 C 657.628906 1429.164062 657.863281 1429.421875 657.964844 1429.375 C 658.253906 1429.238281 658.492188 1428.980469 658.75 1428.765625 C 658.574219 1428.648438 658.339844 1428.386719 658.238281 1428.433594 Z M 658.238281 1428.433594 " fill-opacity="1" fill-rule="nonzero"/><path fill="#eee8e2" d="M 663.511719 1435.496094 C 663.398438 1435.675781 663.152344 1435.921875 663.199219 1436.027344 C 663.332031 1436.332031 663.582031 1436.578125 663.789062 1436.847656 C 663.90625 1436.664062 664.152344 1436.421875 664.105469 1436.316406 C 663.972656 1436.011719 663.71875 1435.765625 663.511719 1435.496094 Z M 663.511719 1435.496094 " fill-opacity="1" fill-rule="nonzero"/><path fill="#eee8e2" d="M 652.996094 1423.660156 C 652.882812 1423.839844 652.632812 1424.085938 652.679688 1424.191406 C 652.8125 1424.496094 653.0625 1424.742188 653.265625 1425.011719 C 653.378906 1424.832031 653.492188 1424.648438 653.628906 1424.433594 C 653.421875 1424.179688 653.207031 1423.921875 652.996094 1423.660156 Z M 652.996094 1423.660156 " fill-opacity="1" fill-rule="nonzero"/><path fill="#eee8e2" d="M 666.671875 1437.636719 C 666.589844 1437.96875 666.457031 1438.296875 666.453125 1438.628906 C 666.453125 1438.746094 666.777344 1438.867188 666.953125 1438.988281 C 667.046875 1438.660156 667.144531 1438.332031 667.234375 1438.015625 C 667.023438 1437.875 666.847656 1437.753906 666.671875 1437.636719 Z M 666.671875 1437.636719 " fill-opacity="1" fill-rule="nonzero"/><path fill="#eee8e2" d="M 545.292969 1429.542969 C 545.042969 1429.742188 544.785156 1429.949219 544.527344 1430.152344 C 544.691406 1430.285156 544.910156 1430.558594 545.011719 1430.515625 C 545.304688 1430.398438 545.554688 1430.152344 545.824219 1429.957031 C 545.65625 1429.828125 545.492188 1429.699219 545.292969 1429.542969 Z M 545.292969 1429.542969 " fill-opacity="1" fill-rule="nonzero"/><path fill="#eee8e2" d="M 553.113281 1428.425781 C 552.820312 1428.542969 552.570312 1428.785156 552.304688 1428.980469 C 552.472656 1429.113281 552.636719 1429.242188 552.835938 1429.398438 C 553.085938 1429.199219 553.34375 1428.992188 553.601562 1428.785156 C 553.4375 1428.65625 553.21875 1428.382812 553.113281 1428.425781 Z M 553.113281 1428.425781 " fill-opacity="1" fill-rule="nonzero"/><path fill="#eee8e2" d="M 557.570312 1421.019531 C 557.367188 1420.863281 557.203125 1420.730469 557.035156 1420.601562 C 556.9375 1420.925781 556.789062 1421.246094 556.765625 1421.578125 C 556.761719 1421.695312 557.070312 1421.835938 557.238281 1421.964844 C 557.347656 1421.644531 557.460938 1421.328125 557.570312 1421.019531 Z M 557.570312 1421.019531 " fill-opacity="1" fill-rule="nonzero"/><path fill="#eee8e2" d="M 563.820312 1418.683594 C 563.621094 1418.527344 563.453125 1418.398438 563.289062 1418.269531 C 563.1875 1418.59375 563.042969 1418.914062 563.023438 1419.246094 C 563.015625 1419.359375 563.328125 1419.503906 563.492188 1419.632812 C 563.601562 1419.3125 563.714844 1418.992188 563.820312 1418.683594 Z M 563.820312 1418.683594 " fill-opacity="1" fill-rule="nonzero"/><g clip-path="url(#1f638c2605)"><path fill="#eee8e2" d="M 565.894531 1438.101562 C 565.6875 1438.050781 565.1875 1437.859375 564.6875 1437.851562 C 564.59375 1437.851562 564.324219 1438.667969 564.453125 1438.96875 C 564.558594 1439.222656 564.773438 1439.429688 565.003906 1439.632812 L 565.535156 1439.632812 C 565.613281 1439.308594 565.710938 1438.886719 565.894531 1438.101562 Z M 565.894531 1438.101562 " fill-opacity="1" fill-rule="nonzero"/></g><path fill="#eee8e2" d="M 518.457031 1422.40625 C 518.296875 1422.269531 518.082031 1421.988281 517.980469 1422.027344 C 517.683594 1422.132812 517.433594 1422.371094 517.164062 1422.554688 C 517.328125 1422.691406 517.488281 1422.828125 517.683594 1422.988281 C 517.9375 1422.800781 518.195312 1422.601562 518.457031 1422.40625 Z M 518.457031 1422.40625 " fill-opacity="1" fill-rule="nonzero"/><g clip-path="url(#9adc9b6d62)"><path fill="#eee8e2" d="M 538.992188 1439.554688 C 538.800781 1439.289062 538.605469 1439.015625 538.410156 1438.742188 C 538.285156 1438.917969 538.023438 1439.144531 538.0625 1439.253906 C 538.109375 1439.386719 538.1875 1439.511719 538.269531 1439.632812 L 538.9375 1439.632812 C 538.957031 1439.605469 538.972656 1439.582031 538.992188 1439.554688 Z M 538.992188 1439.554688 " fill-opacity="1" fill-rule="nonzero"/></g><path fill="#eee8e2" d="M 570.625 1435.988281 C 570.316406 1435.867188 570.007812 1435.746094 569.710938 1435.628906 C 569.566406 1435.835938 569.441406 1436.007812 569.320312 1436.183594 C 569.632812 1436.289062 569.945312 1436.453125 570.261719 1436.476562 C 570.375 1436.484375 570.503906 1436.160156 570.625 1435.988281 Z M 570.625 1435.988281 " fill-opacity="1" fill-rule="nonzero"/><path fill="#eee8e2" d="M 517.449219 1430.15625 C 517.574219 1429.988281 517.699219 1429.820312 517.851562 1429.617188 C 517.664062 1429.347656 517.472656 1429.070312 517.277344 1428.789062 C 517.152344 1428.957031 516.890625 1429.175781 516.929688 1429.289062 C 517.035156 1429.601562 517.265625 1429.871094 517.449219 1430.15625 Z M 517.449219 1430.15625 " fill-opacity="1" fill-rule="nonzero"/><path fill="#eee8e2" d="M 533.96875 1427.085938 C 533.859375 1427.074219 533.722656 1427.394531 533.597656 1427.5625 C 533.90625 1427.695312 534.207031 1427.824219 534.503906 1427.953125 C 534.652344 1427.75 534.773438 1427.578125 534.898438 1427.410156 C 534.589844 1427.292969 534.285156 1427.121094 533.96875 1427.085938 Z M 533.96875 1427.085938 " fill-opacity="1" fill-rule="nonzero"/><path fill="#eee8e2" d="M 598.480469 1433.734375 C 598.359375 1433.914062 598.242188 1434.089844 598.097656 1434.300781 C 598.296875 1434.5625 598.503906 1434.828125 598.707031 1435.09375 C 598.828125 1434.917969 599.082031 1434.679688 599.039062 1434.574219 C 598.914062 1434.265625 598.671875 1434.011719 598.480469 1433.734375 Z M 598.480469 1433.734375 " fill-opacity="1" fill-rule="nonzero"/><path fill="#eee8e2" d="M 626.089844 1409.070312 C 625.988281 1409.394531 625.890625 1409.71875 625.796875 1410.027344 C 626 1410.179688 626.171875 1410.304688 626.34375 1410.425781 C 626.429688 1410.097656 626.566406 1409.777344 626.574219 1409.445312 C 626.578125 1409.328125 626.257812 1409.195312 626.089844 1409.070312 Z M 626.089844 1409.070312 " fill-opacity="1" fill-rule="nonzero"/><path fill="#eee8e2" d="M 571.75 1427.253906 C 571.546875 1427.097656 571.378906 1426.964844 571.210938 1426.835938 C 571.113281 1427.160156 570.964844 1427.480469 570.945312 1427.8125 C 570.941406 1427.929688 571.253906 1428.070312 571.421875 1428.199219 C 571.535156 1427.878906 571.644531 1427.5625 571.75 1427.253906 Z M 571.75 1427.253906 " fill-opacity="1" fill-rule="nonzero"/><path fill="#eee8e2" d="M 590.425781 1429.332031 C 590.570312 1429.125 590.691406 1428.953125 590.808594 1428.78125 C 590.496094 1428.671875 590.183594 1428.511719 589.867188 1428.484375 C 589.753906 1428.476562 589.628906 1428.800781 589.507812 1428.972656 C 589.816406 1429.09375 590.128906 1429.21875 590.425781 1429.332031 Z M 590.425781 1429.332031 " fill-opacity="1" fill-rule="nonzero"/><path fill="#eee8e2" d="M 612.304688 1427.265625 C 612.011719 1427.390625 611.773438 1427.644531 611.511719 1427.847656 C 611.679688 1427.972656 611.851562 1428.097656 612.058594 1428.246094 C 612.300781 1428.039062 612.554688 1427.824219 612.808594 1427.613281 C 612.636719 1427.488281 612.40625 1427.21875 612.304688 1427.265625 Z M 612.304688 1427.265625 " fill-opacity="1" fill-rule="nonzero"/><path fill="#eee8e2" d="M 608.152344 1427.761719 C 608.046875 1428.085938 607.945312 1428.410156 607.84375 1428.71875 C 608.046875 1428.871094 608.21875 1428.996094 608.390625 1429.121094 C 608.480469 1428.789062 608.625 1428.464844 608.632812 1428.132812 C 608.640625 1428.019531 608.324219 1427.886719 608.152344 1427.761719 Z M 608.152344 1427.761719 " fill-opacity="1" fill-rule="nonzero"/><path fill="#eee8e2" d="M 589.417969 1418.992188 L 590.640625 1419.746094 L 590.414062 1418.386719 Z M 589.417969 1418.992188 " fill-opacity="1" fill-rule="nonzero"/><path fill="#eee8e2" d="M 580.691406 1410.285156 C 580.445312 1410.484375 580.191406 1410.6875 579.9375 1410.894531 C 580.105469 1411.023438 580.328125 1411.296875 580.429688 1411.253906 C 580.722656 1411.136719 580.964844 1410.894531 581.226562 1410.699219 C 581.058594 1410.570312 580.890625 1410.441406 580.691406 1410.285156 Z M 580.691406 1410.285156 " fill-opacity="1" fill-rule="nonzero"/><path fill="#eee8e2" d="M 572.902344 1436.542969 C 572.65625 1436.742188 572.394531 1436.945312 572.140625 1437.152344 C 572.308594 1437.28125 572.53125 1437.554688 572.632812 1437.515625 C 572.929688 1437.398438 573.175781 1437.152344 573.445312 1436.957031 C 573.273438 1436.828125 573.105469 1436.699219 572.902344 1436.542969 Z M 572.902344 1436.542969 " fill-opacity="1" fill-rule="nonzero"/><path fill="#eee8e2" d="M 575.757812 1413.609375 C 575.652344 1413.929688 575.542969 1414.246094 575.4375 1414.554688 C 575.640625 1414.710938 575.808594 1414.839844 575.972656 1414.972656 C 576.070312 1414.648438 576.214844 1414.328125 576.230469 1413.996094 C 576.238281 1413.882812 575.925781 1413.738281 575.757812 1413.609375 Z M 575.757812 1413.609375 " fill-opacity="1" fill-rule="nonzero"/><path fill="#eee8e2" d="M 576.597656 1435.789062 C 576.488281 1436.105469 576.378906 1436.425781 576.273438 1436.734375 C 576.476562 1436.890625 576.644531 1437.019531 576.8125 1437.148438 C 576.910156 1436.824219 577.058594 1436.503906 577.078125 1436.175781 C 577.082031 1436.058594 576.765625 1435.917969 576.597656 1435.789062 Z M 576.597656 1435.789062 " fill-opacity="1" fill-rule="nonzero"/><g clip-path="url(#8db2b894d8)"><path fill="#eee8e2" d="M 474.964844 1439.183594 C 474.847656 1439.335938 474.632812 1439.515625 474.621094 1439.632812 L 475.257812 1439.632812 C 475.160156 1439.484375 475.0625 1439.335938 474.964844 1439.183594 Z M 474.964844 1439.183594 " fill-opacity="1" fill-rule="nonzero"/></g><path fill="#eee8e2" d="M 404.335938 1436.800781 C 404.351562 1436.6875 404.054688 1436.515625 403.902344 1436.371094 C 403.761719 1436.679688 403.625 1436.988281 403.492188 1437.28125 C 403.675781 1437.457031 403.828125 1437.601562 403.984375 1437.746094 C 404.109375 1437.433594 404.285156 1437.128906 404.335938 1436.800781 Z M 404.335938 1436.800781 " fill-opacity="1" fill-rule="nonzero"/><path fill="#eee8e2" d="M 449.910156 1438.566406 C 450.042969 1438.402344 450.316406 1438.191406 450.28125 1438.082031 C 450.183594 1437.765625 449.964844 1437.488281 449.792969 1437.195312 C 449.664062 1437.359375 449.53125 1437.523438 449.371094 1437.722656 C 449.546875 1438 449.730469 1438.28125 449.910156 1438.566406 Z M 449.910156 1438.566406 " fill-opacity="1" fill-rule="nonzero"/><path fill="#eee8e2" d="M 780.546875 1435.859375 L 781.152344 1435.027344 L 780.992188 1434.4375 C 780.6875 1434.652344 780.328125 1434.828125 780.117188 1435.113281 C 780.050781 1435.199219 780.390625 1435.601562 780.546875 1435.859375 Z M 780.546875 1435.859375 " fill-opacity="1" fill-rule="nonzero"/><path fill="#eee8e2" d="M 792.75 1426.371094 C 793.277344 1426.855469 793.738281 1427.53125 794.351562 1427.742188 C 794.679688 1427.855469 795.265625 1427.164062 795.820312 1426.773438 C 795.011719 1426.328125 794.40625 1425.886719 793.738281 1425.691406 C 793.488281 1425.617188 793.082031 1426.128906 792.75 1426.371094 Z M 792.75 1426.371094 " fill-opacity="1" fill-rule="nonzero"/><path fill="#eee8e2" d="M 785.8125 1391.511719 C 786.039062 1391.90625 786.542969 1392.136719 786.929688 1392.441406 C 786.96875 1392.035156 787.015625 1391.628906 787.136719 1390.472656 C 786.921875 1390.445312 786.402344 1390.320312 785.90625 1390.375 C 785.8125 1390.386719 785.648438 1391.230469 785.8125 1391.511719 Z M 785.8125 1391.511719 " fill-opacity="1" fill-rule="nonzero"/><path fill="#eee8e2" d="M 784.269531 1422.910156 C 784.140625 1424.054688 784.019531 1424.574219 784.042969 1425.085938 C 784.058594 1425.503906 784.25 1425.914062 784.363281 1426.328125 C 784.710938 1425.898438 785.320312 1425.484375 785.335938 1425.042969 C 785.355469 1424.535156 784.851562 1424.003906 784.269531 1422.910156 Z M 784.269531 1422.910156 " fill-opacity="1" fill-rule="nonzero"/><path fill="#eee8e2" d="M 784.902344 1398.25 C 785.085938 1398.355469 785.339844 1398.601562 785.4375 1398.546875 C 785.71875 1398.390625 785.9375 1398.117188 786.175781 1397.890625 C 785.996094 1397.78125 785.8125 1397.675781 785.589844 1397.546875 C 785.367188 1397.773438 785.132812 1398.011719 784.902344 1398.25 Z M 784.902344 1398.25 " fill-opacity="1" fill-rule="nonzero"/><path fill="#eee8e2" d="M 786.730469 1408.964844 C 787.054688 1409.378906 787.378906 1409.796875 787.523438 1409.980469 C 788.386719 1409.28125 788.695312 1409.03125 789.003906 1408.777344 C 788.554688 1408.589844 788.105469 1408.261719 787.660156 1408.261719 C 787.34375 1408.261719 787.039062 1408.714844 786.730469 1408.964844 Z M 786.730469 1408.964844 " fill-opacity="1" fill-rule="nonzero"/><path fill="#eee8e2" d="M 783.925781 1427.75 L 784.527344 1426.917969 L 784.363281 1426.328125 C 784.0625 1426.542969 783.703125 1426.71875 783.492188 1427.003906 C 783.429688 1427.089844 783.769531 1427.492188 783.925781 1427.75 Z M 783.925781 1427.75 " fill-opacity="1" fill-rule="nonzero"/><path fill="#eee8e2" d="M 787.011719 1395.035156 C 787.019531 1395.152344 787.347656 1395.253906 787.53125 1395.359375 C 787.601562 1395.03125 787.675781 1394.699219 787.742188 1394.378906 C 787.523438 1394.25 787.339844 1394.140625 787.160156 1394.035156 C 787.101562 1394.367188 786.988281 1394.707031 787.011719 1395.035156 Z M 787.011719 1395.035156 " fill-opacity="1" fill-rule="nonzero"/><path fill="#eee8e2" d="M 789.769531 1403.324219 C 789.710938 1403.660156 789.597656 1403.996094 789.621094 1404.328125 C 789.625 1404.445312 789.957031 1404.542969 790.140625 1404.652344 C 790.214844 1404.320312 790.285156 1403.988281 790.355469 1403.667969 C 790.136719 1403.539062 789.953125 1403.433594 789.769531 1403.324219 Z M 789.769531 1403.324219 " fill-opacity="1" fill-rule="nonzero"/><path fill="#eee8e2" d="M 784.679688 1436.015625 L 785.25 1434.667969 L 783.949219 1435.035156 Z M 784.679688 1436.015625 " fill-opacity="1" fill-rule="nonzero"/><path fill="#eee8e2" d="M 789.429688 1393.867188 C 789.585938 1394.160156 789.855469 1394.390625 790.078125 1394.644531 C 790.179688 1394.457031 790.277344 1394.269531 790.398438 1394.046875 C 790.171875 1393.808594 789.9375 1393.5625 789.703125 1393.316406 C 789.605469 1393.503906 789.375 1393.761719 789.429688 1393.867188 Z M 789.429688 1393.867188 " fill-opacity="1" fill-rule="nonzero"/><path fill="#eee8e2" d="M 788.429688 1425.898438 C 788.613281 1426.003906 788.871094 1426.25 788.96875 1426.195312 C 789.253906 1426.039062 789.476562 1425.761719 789.722656 1425.535156 C 789.539062 1425.425781 789.355469 1425.320312 789.132812 1425.191406 C 788.902344 1425.421875 788.667969 1425.660156 788.429688 1425.898438 Z M 788.429688 1425.898438 " fill-opacity="1" fill-rule="nonzero"/><path fill="#eee8e2" d="M 784.84375 1432.140625 C 785.542969 1431.660156 786.203125 1431.207031 786.859375 1430.753906 C 786.347656 1430.621094 785.761719 1430.257812 785.339844 1430.398438 C 784.523438 1430.675781 783.800781 1431.234375 783.035156 1431.675781 C 783.601562 1431.820312 784.164062 1431.964844 784.84375 1432.140625 Z M 784.84375 1432.140625 " fill-opacity="1" fill-rule="nonzero"/><path fill="#eee8e2" d="M 784.011719 1414.007812 C 784.164062 1414.300781 784.4375 1414.53125 784.660156 1414.785156 C 784.761719 1414.597656 784.863281 1414.410156 784.988281 1414.183594 C 784.761719 1413.949219 784.527344 1413.703125 784.292969 1413.457031 C 784.191406 1413.644531 783.960938 1413.902344 784.011719 1414.007812 Z M 784.011719 1414.007812 " fill-opacity="1" fill-rule="nonzero"/><path fill="#eee8e2" d="M 754.664062 1418.109375 C 754.886719 1418.242188 755.066406 1418.355469 755.25 1418.46875 C 755.316406 1418.136719 755.4375 1417.804688 755.421875 1417.472656 C 755.417969 1417.355469 755.085938 1417.246094 754.902344 1417.132812 C 754.824219 1417.460938 754.742188 1417.792969 754.664062 1418.109375 Z M 754.664062 1418.109375 " fill-opacity="1" fill-rule="nonzero"/><path fill="#eee8e2" d="M 753.289062 1429.605469 C 753.617188 1429.683594 753.945312 1429.8125 754.269531 1429.808594 C 754.382812 1429.804688 754.484375 1429.46875 754.589844 1429.28125 C 754.265625 1429.191406 753.941406 1429.101562 753.628906 1429.015625 C 753.5 1429.238281 753.394531 1429.421875 753.289062 1429.605469 Z M 753.289062 1429.605469 " fill-opacity="1" fill-rule="nonzero"/><path fill="#eee8e2" d="M 752.386719 1436.929688 C 752.714844 1437.007812 753.046875 1437.136719 753.371094 1437.128906 C 753.488281 1437.128906 753.585938 1436.789062 753.695312 1436.605469 C 753.371094 1436.515625 753.046875 1436.425781 752.730469 1436.339844 C 752.605469 1436.5625 752.496094 1436.746094 752.386719 1436.929688 Z M 752.386719 1436.929688 " fill-opacity="1" fill-rule="nonzero"/><path fill="#eee8e2" d="M 750.890625 1420.257812 C 751.21875 1420.335938 751.542969 1420.464844 751.867188 1420.460938 C 751.980469 1420.457031 752.082031 1420.121094 752.1875 1419.9375 C 751.863281 1419.847656 751.539062 1419.757812 751.230469 1419.667969 C 751.101562 1419.890625 750.996094 1420.074219 750.890625 1420.257812 Z M 750.890625 1420.257812 " fill-opacity="1" fill-rule="nonzero"/><path fill="#eee8e2" d="M 753.761719 1384.046875 C 754.082031 1384.136719 754.398438 1384.230469 754.707031 1384.316406 C 754.832031 1384.097656 754.933594 1383.914062 755.035156 1383.730469 C 754.710938 1383.652344 754.390625 1383.519531 754.070312 1383.527344 C 753.960938 1383.527344 753.867188 1383.863281 753.761719 1384.046875 Z M 753.761719 1384.046875 " fill-opacity="1" fill-rule="nonzero"/><path fill="#eee8e2" d="M 789.4375 1434.855469 C 789.820312 1434.851562 790.5 1434.070312 790.492188 1433.648438 C 790.488281 1433.140625 789.984375 1432.363281 789.53125 1432.203125 C 789.015625 1432.019531 788.316406 1432.386719 788.15625 1432.421875 C 787.078125 1432.722656 786.421875 1432.824219 785.847656 1433.101562 C 785.519531 1433.261719 785.328125 1433.710938 785.078125 1434.03125 L 786.496094 1434.320312 C 787.476562 1434.519531 788.457031 1434.859375 789.4375 1434.855469 Z M 789.4375 1434.855469 " fill-opacity="1" fill-rule="nonzero"/><path fill="#eee8e2" d="M 783.085938 1421.671875 C 783.414062 1421.742188 783.742188 1421.859375 784.066406 1421.84375 C 784.179688 1421.839844 784.273438 1421.496094 784.375 1421.308594 C 784.054688 1421.230469 783.730469 1421.148438 783.414062 1421.070312 C 783.292969 1421.296875 783.1875 1421.484375 783.085938 1421.671875 Z M 783.085938 1421.671875 " fill-opacity="1" fill-rule="nonzero"/><g clip-path="url(#c042e76341)"><path fill="#eee8e2" d="M 768.839844 1439.472656 C 768.835938 1439.519531 768.820312 1439.578125 768.808594 1439.632812 L 769.210938 1439.632812 C 769.089844 1439.582031 768.960938 1439.527344 768.839844 1439.472656 Z M 768.839844 1439.472656 " fill-opacity="1" fill-rule="nonzero"/></g><g clip-path="url(#e33d4c83e5)"><path fill="#eee8e2" d="M 791.847656 1439.035156 C 791.234375 1438.988281 790.621094 1438.941406 789.671875 1438.867188 C 789.488281 1439.105469 789.277344 1439.375 789.078125 1439.632812 L 791.238281 1439.632812 C 791.441406 1439.429688 791.636719 1439.222656 791.847656 1439.035156 Z M 791.847656 1439.035156 " fill-opacity="1" fill-rule="nonzero"/></g><path fill="#eee8e2" d="M 791.007812 1378.628906 C 790.953125 1378.964844 790.84375 1379.300781 790.867188 1379.632812 C 790.875 1379.746094 791.207031 1379.847656 791.386719 1379.957031 C 791.457031 1379.625 791.527344 1379.296875 791.59375 1378.976562 C 791.375 1378.847656 791.191406 1378.738281 791.007812 1378.628906 Z M 791.007812 1378.628906 " fill-opacity="1" fill-rule="nonzero"/><path fill="#eee8e2" d="M 791.566406 1432.175781 C 791.890625 1432.257812 792.21875 1432.335938 792.535156 1432.414062 C 792.660156 1432.1875 792.761719 1432 792.867188 1431.8125 C 792.535156 1431.746094 792.203125 1431.625 791.878906 1431.640625 C 791.765625 1431.648438 791.671875 1431.988281 791.566406 1432.175781 Z M 791.566406 1432.175781 " fill-opacity="1" fill-rule="nonzero"/><path fill="#eee8e2" d="M 791.316406 1411.128906 C 791.535156 1411.679688 792.011719 1412.125 792.378906 1412.613281 C 792.5 1412.21875 792.800781 1411.765625 792.699219 1411.441406 C 792.523438 1410.875 792.097656 1410.390625 791.699219 1409.742188 C 791.511719 1410.355469 791.195312 1410.832031 791.316406 1411.128906 Z M 791.316406 1411.128906 " fill-opacity="1" fill-rule="nonzero"/><path fill="#eee8e2" d="M 792.625 1406.101562 C 792.953125 1406.167969 793.28125 1406.289062 793.601562 1406.273438 C 793.714844 1406.269531 793.804688 1405.929688 793.90625 1405.742188 L 792.945312 1405.5 C 792.824219 1405.726562 792.726562 1405.914062 792.625 1406.101562 Z M 792.625 1406.101562 " fill-opacity="1" fill-rule="nonzero"/><path fill="#eee8e2" d="M 793.234375 1423.113281 C 792.90625 1423.046875 792.574219 1422.925781 792.25 1422.941406 C 792.136719 1422.949219 792.042969 1423.289062 791.941406 1423.476562 C 792.269531 1423.558594 792.59375 1423.640625 792.90625 1423.714844 C 793.03125 1423.488281 793.132812 1423.300781 793.234375 1423.113281 Z M 793.234375 1423.113281 " fill-opacity="1" fill-rule="nonzero"/><path fill="#eee8e2" d="M 790.890625 1399.792969 C 791.109375 1400.34375 791.585938 1400.789062 791.953125 1401.277344 C 792.074219 1400.882812 792.191406 1400.488281 792.363281 1399.90625 C 792.019531 1399.523438 791.613281 1399.074219 791.203125 1398.625 C 791.085938 1399.019531 790.773438 1399.496094 790.890625 1399.792969 Z M 790.890625 1399.792969 " fill-opacity="1" fill-rule="nonzero"/><g clip-path="url(#2ba1fda683)"><path fill="#eee8e2" d="M 794.527344 1437.789062 C 794.226562 1438.003906 793.863281 1438.179688 793.652344 1438.46875 C 793.589844 1438.550781 793.933594 1438.953125 794.089844 1439.210938 L 794.691406 1438.378906 Z M 794.527344 1437.789062 " fill-opacity="1" fill-rule="nonzero"/></g><path fill="#eee8e2" d="M 790.296875 1388.140625 C 790.621094 1388.207031 790.949219 1388.328125 791.265625 1388.316406 C 791.378906 1388.308594 791.464844 1387.96875 791.566406 1387.78125 C 791.246094 1387.699219 790.925781 1387.621094 790.613281 1387.539062 C 790.496094 1387.765625 790.394531 1387.953125 790.296875 1388.140625 Z M 790.296875 1388.140625 " fill-opacity="1" fill-rule="nonzero"/><path fill="#eee8e2" d="M 795.898438 1434.636719 C 795.378906 1435.488281 794.867188 1436.328125 794.355469 1437.167969 C 794.617188 1437.316406 794.90625 1437.628906 795.132812 1437.589844 C 796.195312 1437.40625 797.265625 1437.117188 796.710938 1435.609375 C 796.582031 1435.261719 796.214844 1435.003906 795.898438 1434.636719 Z M 795.898438 1434.636719 " fill-opacity="1" fill-rule="nonzero"/><path fill="#eee8e2" d="M 796.152344 1429.25 C 795.925781 1429.121094 795.742188 1429.011719 795.554688 1428.90625 C 795.496094 1429.242188 795.378906 1429.582031 795.398438 1429.910156 C 795.40625 1430.027344 795.742188 1430.125 795.929688 1430.234375 C 796.003906 1429.902344 796.078125 1429.570312 796.152344 1429.25 Z M 796.152344 1429.25 " fill-opacity="1" fill-rule="nonzero"/><path fill="#eee8e2" d="M 795.292969 1425.476562 L 796.039062 1425.90625 C 796.164062 1425.589844 796.316406 1425.277344 796.386719 1424.945312 C 796.402344 1424.890625 796.066406 1424.75 795.871094 1424.636719 Z M 795.292969 1425.476562 " fill-opacity="1" fill-rule="nonzero"/><path fill="#eee8e2" d="M 752.394531 1423.433594 C 752.464844 1423.101562 752.582031 1422.769531 752.570312 1422.4375 C 752.566406 1422.324219 752.234375 1422.210938 752.054688 1422.101562 C 751.972656 1422.429688 751.890625 1422.757812 751.8125 1423.074219 C 752.03125 1423.210938 752.214844 1423.324219 752.394531 1423.433594 Z M 752.394531 1423.433594 " fill-opacity="1" fill-rule="nonzero"/><path fill="#eee8e2" d="M 682.402344 1428.660156 C 681.839844 1428.824219 681.324219 1429.164062 680.792969 1429.441406 C 681.019531 1429.699219 681.285156 1430.203125 681.464844 1430.175781 C 682.042969 1430.089844 682.585938 1429.804688 683.269531 1429.546875 C 682.863281 1429.117188 682.554688 1428.617188 682.402344 1428.660156 Z M 682.402344 1428.660156 " fill-opacity="1" fill-rule="nonzero"/><g clip-path="url(#a9fa20d4c9)"><path fill="#eee8e2" d="M 681.949219 1438.382812 C 681.75 1438.917969 681.472656 1439.332031 681.480469 1439.632812 L 682.621094 1439.632812 C 682.433594 1439.242188 682.199219 1438.851562 681.949219 1438.382812 Z M 681.949219 1438.382812 " fill-opacity="1" fill-rule="nonzero"/></g><g clip-path="url(#341a0685b5)"><path fill="#eee8e2" d="M 752.832031 1439.457031 C 752.613281 1439.320312 752.429688 1439.207031 752.246094 1439.09375 C 752.207031 1439.273438 752.160156 1439.453125 752.121094 1439.632812 L 752.785156 1439.632812 C 752.800781 1439.574219 752.816406 1439.511719 752.832031 1439.457031 Z M 752.832031 1439.457031 " fill-opacity="1" fill-rule="nonzero"/></g><path fill="#eee8e2" d="M 683.355469 1423.472656 C 683.53125 1423.589844 683.769531 1423.851562 683.871094 1423.800781 C 684.160156 1423.664062 684.394531 1423.40625 684.648438 1423.195312 C 684.472656 1423.074219 684.296875 1422.957031 684.085938 1422.8125 C 683.847656 1423.027344 683.601562 1423.25 683.355469 1423.472656 Z M 683.355469 1423.472656 " fill-opacity="1" fill-rule="nonzero"/><g clip-path="url(#d04cf3457e)"><path fill="#eee8e2" d="M 691.382812 1439.632812 L 691.863281 1439.632812 C 691.777344 1439.53125 691.691406 1439.429688 691.601562 1439.324219 C 691.542969 1439.421875 691.453125 1439.53125 691.382812 1439.632812 Z M 691.382812 1439.632812 " fill-opacity="1" fill-rule="nonzero"/></g><path fill="#eee8e2" d="M 748.503906 1432.089844 C 748.972656 1432.300781 749.441406 1432.515625 750.089844 1432.808594 C 750.457031 1432.355469 750.746094 1431.992188 751.039062 1431.632812 C 750.675781 1431.46875 750.253906 1431.097656 749.972656 1431.183594 C 749.441406 1431.347656 748.988281 1431.773438 748.503906 1432.089844 Z M 748.503906 1432.089844 " fill-opacity="1" fill-rule="nonzero"/><path fill="#eee8e2" d="M 751.65625 1416.566406 C 751.121094 1416.765625 750.683594 1417.230469 750.207031 1417.585938 C 750.589844 1417.730469 751.027344 1418.058594 751.347656 1417.96875 C 751.898438 1417.816406 752.371094 1417.402344 753.003906 1417.023438 C 752.40625 1416.804688 751.945312 1416.457031 751.65625 1416.566406 Z M 751.65625 1416.566406 " fill-opacity="1" fill-rule="nonzero"/><path fill="#eee8e2" d="M 747.78125 1412.710938 C 748 1412.847656 748.183594 1412.960938 748.363281 1413.074219 C 748.429688 1412.742188 748.550781 1412.40625 748.535156 1412.078125 C 748.53125 1411.960938 748.203125 1411.851562 748.023438 1411.738281 C 747.941406 1412.066406 747.859375 1412.394531 747.78125 1412.710938 Z M 747.78125 1412.710938 " fill-opacity="1" fill-rule="nonzero"/><path fill="#eee8e2" d="M 747.066406 1426.886719 C 747.394531 1426.960938 747.722656 1427.09375 748.046875 1427.085938 C 748.15625 1427.085938 748.257812 1426.75 748.367188 1426.5625 C 748.042969 1426.472656 747.71875 1426.382812 747.410156 1426.296875 C 747.28125 1426.519531 747.175781 1426.703125 747.066406 1426.886719 Z M 747.066406 1426.886719 " fill-opacity="1" fill-rule="nonzero"/><path fill="#eee8e2" d="M 682.585938 1413.765625 C 682.761719 1413.886719 683.003906 1414.144531 683.101562 1414.097656 C 683.390625 1413.960938 683.621094 1413.703125 683.875 1413.488281 C 683.699219 1413.371094 683.523438 1413.253906 683.3125 1413.109375 C 683.074219 1413.324219 682.832031 1413.546875 682.585938 1413.765625 Z M 682.585938 1413.765625 " fill-opacity="1" fill-rule="nonzero"/><path fill="#eee8e2" d="M 752.59375 1432.734375 L 751.777344 1432.109375 L 751.347656 1432.851562 C 751.660156 1432.992188 751.960938 1433.160156 752.285156 1433.25 C 752.339844 1433.261719 752.480469 1432.925781 752.59375 1432.734375 Z M 752.59375 1432.734375 " fill-opacity="1" fill-rule="nonzero"/><g clip-path="url(#abd4e0e077)"><path fill="#eee8e2" d="M 809.5625 1418.15625 C 809.480469 1418.089844 809.09375 1418.4375 808.84375 1418.59375 L 809.667969 1419.210938 L 810.246094 1419.046875 C 810.027344 1418.738281 809.847656 1418.375 809.5625 1418.15625 Z M 809.5625 1418.15625 " fill-opacity="1" fill-rule="nonzero"/></g><g clip-path="url(#a96b2ba8ba)"><path fill="#eee8e2" d="M 808.824219 1436.5 L 809.417969 1435.671875 L 809.25 1435.082031 C 808.949219 1435.296875 808.589844 1435.472656 808.375 1435.757812 C 808.3125 1435.84375 808.660156 1436.246094 808.824219 1436.5 Z M 808.824219 1436.5 " fill-opacity="1" fill-rule="nonzero"/></g><g clip-path="url(#e44b0106dc)"><path fill="#eee8e2" d="M 809.421875 1411.402344 C 809.609375 1411.511719 809.796875 1411.617188 810.019531 1411.746094 C 810.242188 1411.515625 810.476562 1411.28125 810.710938 1411.042969 C 810.527344 1410.933594 810.265625 1410.695312 810.167969 1410.746094 C 809.882812 1410.902344 809.664062 1411.175781 809.421875 1411.402344 Z M 809.421875 1411.402344 " fill-opacity="1" fill-rule="nonzero"/></g><g clip-path="url(#0c47313ddc)"><path fill="#eee8e2" d="M 809.449219 1429.296875 C 808.980469 1429.828125 808.324219 1430.296875 808.125 1430.917969 C 808.019531 1431.25 808.710938 1431.855469 809.105469 1432.425781 C 809.53125 1431.601562 809.957031 1430.992188 810.136719 1430.3125 C 810.203125 1430.058594 809.695312 1429.640625 809.449219 1429.296875 Z M 809.449219 1429.296875 " fill-opacity="1" fill-rule="nonzero"/></g><path fill="#eee8e2" d="M 797.621094 1413.042969 C 797.777344 1413.335938 798.050781 1413.566406 798.28125 1413.820312 C 798.378906 1413.632812 798.613281 1413.375 798.558594 1413.269531 C 798.402344 1412.976562 798.128906 1412.75 797.902344 1412.492188 C 797.800781 1412.679688 797.566406 1412.941406 797.621094 1413.042969 Z M 797.621094 1413.042969 " fill-opacity="1" fill-rule="nonzero"/><path fill="#eee8e2" d="M 798.941406 1361.371094 C 798.757812 1361.261719 798.578125 1361.152344 798.355469 1361.023438 C 798.140625 1361.25 797.914062 1361.484375 797.6875 1361.722656 C 797.867188 1361.828125 798.125 1362.074219 798.21875 1362.019531 C 798.496094 1361.867188 798.703125 1361.59375 798.941406 1361.371094 Z M 798.941406 1361.371094 " fill-opacity="1" fill-rule="nonzero"/><path fill="#eee8e2" d="M 804.828125 1432.078125 C 804.261719 1432.277344 803.761719 1432.652344 803.238281 1432.964844 C 803.484375 1433.207031 803.78125 1433.695312 803.964844 1433.65625 C 804.542969 1433.527344 805.082031 1433.207031 805.757812 1432.90625 C 805.320312 1432.503906 804.976562 1432.023438 804.828125 1432.078125 Z M 804.828125 1432.078125 " fill-opacity="1" fill-rule="nonzero"/><path fill="#eee8e2" d="M 797.265625 1387.820312 C 797.484375 1387.949219 797.667969 1388.054688 797.851562 1388.164062 C 797.910156 1387.832031 798.015625 1387.492188 797.992188 1387.164062 C 797.984375 1387.046875 797.652344 1386.949219 797.472656 1386.839844 C 797.402344 1387.171875 797.332031 1387.5 797.265625 1387.820312 Z M 797.265625 1387.820312 " fill-opacity="1" fill-rule="nonzero"/><path fill="#eee8e2" d="M 779.433594 1402.40625 C 779.585938 1402.699219 779.855469 1402.929688 780.078125 1403.183594 C 780.179688 1403 780.410156 1402.738281 780.355469 1402.636719 C 780.207031 1402.34375 779.933594 1402.113281 779.714844 1401.855469 C 779.613281 1402.042969 779.378906 1402.304688 779.433594 1402.40625 Z M 779.433594 1402.40625 " fill-opacity="1" fill-rule="nonzero"/><path fill="#eee8e2" d="M 806.554688 1420.800781 C 806.226562 1420.722656 805.898438 1420.640625 805.585938 1420.566406 C 805.460938 1420.789062 805.359375 1420.976562 805.257812 1421.167969 C 805.589844 1421.234375 805.921875 1421.351562 806.246094 1421.335938 C 806.359375 1421.332031 806.453125 1420.992188 806.554688 1420.800781 Z M 806.554688 1420.800781 " fill-opacity="1" fill-rule="nonzero"/><path fill="#eee8e2" d="M 793.75 1389.046875 C 794.03125 1388.894531 794.246094 1388.621094 794.484375 1388.394531 C 794.300781 1388.285156 794.117188 1388.179688 793.898438 1388.050781 C 793.675781 1388.277344 793.445312 1388.515625 793.214844 1388.75 C 793.398438 1388.859375 793.652344 1389.101562 793.75 1389.046875 Z M 793.75 1389.046875 " fill-opacity="1" fill-rule="nonzero"/><path fill="#eee8e2" d="M 779.03125 1421.136719 C 779.183594 1421.429688 779.453125 1421.660156 779.679688 1421.917969 C 779.78125 1421.726562 780.015625 1421.46875 779.960938 1421.363281 C 779.808594 1421.070312 779.539062 1420.839844 779.316406 1420.585938 C 779.210938 1420.773438 778.976562 1421.035156 779.03125 1421.136719 Z M 779.03125 1421.136719 " fill-opacity="1" fill-rule="nonzero"/><path fill="#eee8e2" d="M 779.308594 1427.277344 C 779.316406 1427.394531 779.648438 1427.492188 779.832031 1427.601562 C 779.910156 1427.269531 779.988281 1426.933594 780.0625 1426.613281 C 779.839844 1426.484375 779.65625 1426.378906 779.472656 1426.269531 C 779.410156 1426.605469 779.292969 1426.945312 779.308594 1427.277344 Z M 779.308594 1427.277344 " fill-opacity="1" fill-rule="nonzero"/><path fill="#eee8e2" d="M 801.507812 1436.726562 C 802.796875 1437.523438 804.125 1438.25 805.449219 1438.996094 C 805.566406 1438.601562 805.902344 1437.984375 805.765625 1437.851562 C 804.800781 1436.902344 803.742188 1436.046875 802.996094 1435.40625 C 802.160156 1435.640625 801.84375 1435.636719 801.769531 1435.769531 C 801.609375 1436.0625 801.425781 1436.671875 801.507812 1436.726562 Z M 801.507812 1436.726562 " fill-opacity="1" fill-rule="nonzero"/><path fill="#eee8e2" d="M 799.265625 1409.960938 C 799.449219 1410.070312 799.707031 1410.3125 799.804688 1410.257812 C 800.089844 1410.105469 800.308594 1409.828125 800.550781 1409.601562 C 800.367188 1409.496094 800.109375 1409.25 800.011719 1409.304688 C 799.726562 1409.460938 799.507812 1409.734375 799.265625 1409.960938 Z M 799.265625 1409.960938 " fill-opacity="1" fill-rule="nonzero"/><path fill="#eee8e2" d="M 803.640625 1430.214844 C 803.824219 1430.320312 804.085938 1430.5625 804.183594 1430.507812 C 804.46875 1430.351562 804.691406 1430.078125 804.9375 1429.847656 C 804.753906 1429.742188 804.566406 1429.636719 804.339844 1429.507812 C 804.113281 1429.738281 803.875 1429.976562 803.640625 1430.214844 Z M 803.640625 1430.214844 " fill-opacity="1" fill-rule="nonzero"/><path fill="#eee8e2" d="M 802.929688 1392.9375 C 803.085938 1393.230469 803.359375 1393.457031 803.589844 1393.710938 C 803.6875 1393.527344 803.914062 1393.265625 803.859375 1393.164062 C 803.703125 1392.871094 803.429688 1392.644531 803.203125 1392.390625 C 803.105469 1392.574219 802.875 1392.832031 802.929688 1392.9375 Z M 802.929688 1392.9375 " fill-opacity="1" fill-rule="nonzero"/><path fill="#eee8e2" d="M 803.363281 1409.019531 C 803.585938 1409.144531 803.773438 1409.253906 803.957031 1409.359375 C 804.015625 1409.027344 804.125 1408.6875 804.105469 1408.359375 C 804.09375 1408.242188 803.761719 1408.144531 803.574219 1408.035156 C 803.503906 1408.367188 803.433594 1408.699219 803.363281 1409.019531 Z M 803.363281 1409.019531 " fill-opacity="1" fill-rule="nonzero"/><path fill="#eee8e2" d="M 800.457031 1423.949219 C 800.644531 1424.054688 800.898438 1424.296875 801 1424.242188 C 801.285156 1424.089844 801.507812 1423.8125 801.753906 1423.585938 C 801.566406 1423.476562 801.308594 1423.234375 801.207031 1423.289062 C 800.925781 1423.445312 800.703125 1423.71875 800.457031 1423.949219 Z M 800.457031 1423.949219 " fill-opacity="1" fill-rule="nonzero"/><g clip-path="url(#9ba7a3f9a6)"><path fill="#eee8e2" d="M 809.304688 1424.570312 C 809.308594 1424.6875 809.648438 1424.785156 809.835938 1424.890625 C 809.90625 1424.5625 809.980469 1424.230469 810.050781 1423.910156 C 809.824219 1423.78125 809.640625 1423.675781 809.453125 1423.566406 C 809.394531 1423.902344 809.28125 1424.238281 809.304688 1424.570312 Z M 809.304688 1424.570312 " fill-opacity="1" fill-rule="nonzero"/></g><g clip-path="url(#5fef65274f)"><path fill="#eee8e2" d="M 809.4375 1378.46875 C 809.761719 1378.550781 810.082031 1378.632812 810.394531 1378.710938 C 810.507812 1378.484375 810.609375 1378.300781 810.703125 1378.113281 C 810.378906 1378.046875 810.050781 1377.925781 809.730469 1377.9375 C 809.621094 1377.941406 809.535156 1378.28125 809.4375 1378.46875 Z M 809.4375 1378.46875 " fill-opacity="1" fill-rule="nonzero"/></g><g clip-path="url(#02e2245201)"><path fill="#eee8e2" d="M 808.457031 1400.9375 C 808.402344 1401.269531 808.292969 1401.605469 808.316406 1401.9375 C 808.324219 1402.054688 808.660156 1402.152344 808.84375 1402.257812 C 808.914062 1401.929688 808.984375 1401.597656 809.050781 1401.277344 C 808.828125 1401.152344 808.644531 1401.042969 808.457031 1400.9375 Z M 808.457031 1400.9375 " fill-opacity="1" fill-rule="nonzero"/></g><g clip-path="url(#e2ece31a62)"><path fill="#eee8e2" d="M 809.496094 1414.757812 C 809.722656 1414.527344 809.957031 1414.289062 810.191406 1414.050781 C 810.007812 1413.945312 809.746094 1413.703125 809.648438 1413.757812 C 809.363281 1413.914062 809.144531 1414.1875 808.902344 1414.414062 C 809.089844 1414.523438 809.273438 1414.628906 809.496094 1414.757812 Z M 809.496094 1414.757812 " fill-opacity="1" fill-rule="nonzero"/></g><g clip-path="url(#de89ba01e2)"><path fill="#eee8e2" d="M 811.363281 1433.546875 C 812.308594 1434.292969 812.84375 1434.054688 813.148438 1432.988281 C 813.296875 1432.46875 813.398438 1431.941406 813.523438 1431.417969 C 812.910156 1431.457031 812.285156 1431.441406 811.683594 1431.546875 C 811.042969 1431.660156 810.421875 1431.886719 809.792969 1432.0625 L 810.175781 1433.390625 C 810.578125 1433.433594 811.089844 1433.332031 811.363281 1433.546875 Z M 811.363281 1433.546875 " fill-opacity="1" fill-rule="nonzero"/></g><g clip-path="url(#8e1f231d06)"><path fill="#eee8e2" d="M 808.960938 1408.914062 C 808.96875 1409.03125 809.304688 1409.132812 809.488281 1409.238281 C 809.558594 1408.90625 809.628906 1408.574219 809.699219 1408.257812 C 809.476562 1408.128906 809.289062 1408.019531 809.101562 1407.914062 C 809.046875 1408.25 808.9375 1408.585938 808.960938 1408.914062 Z M 808.960938 1408.914062 " fill-opacity="1" fill-rule="nonzero"/></g><g clip-path="url(#6acc6c5c4b)"><path fill="#eee8e2" d="M 808.105469 1368.578125 L 809.414062 1369.167969 L 809.019531 1367.847656 Z M 808.105469 1368.578125 " fill-opacity="1" fill-rule="nonzero"/></g><path fill="#eee8e2" d="M 807.402344 1427.929688 C 807.625 1428.058594 807.8125 1428.164062 808 1428.273438 C 808.058594 1427.9375 808.171875 1427.597656 808.148438 1427.269531 C 808.144531 1427.152344 807.804688 1427.054688 807.617188 1426.945312 C 807.546875 1427.277344 807.472656 1427.609375 807.402344 1427.929688 Z M 807.402344 1427.929688 " fill-opacity="1" fill-rule="nonzero"/><path fill="#eee8e2" d="M 794.394531 1365.265625 C 794.386719 1365.148438 794.058594 1365.046875 793.875 1364.9375 C 793.808594 1365.269531 793.738281 1365.597656 793.675781 1365.917969 C 793.894531 1366.046875 794.074219 1366.15625 794.257812 1366.261719 C 794.3125 1365.929688 794.417969 1365.59375 794.394531 1365.265625 Z M 794.394531 1365.265625 " fill-opacity="1" fill-rule="nonzero"/></svg>