<svg xmlns="http://www.w3.org/2000/svg" xmlns:xlink="http://www.w3.org/1999/xlink" width="1080" zoomAndPan="magnify" viewBox="0 0 810 809.999993" height="1080" preserveAspectRatio="xMidYMid meet" version="1.0"><defs><clipPath id="6269a81590"><path d="M 92 124 L 805 124 L 805 692 L 92 692 Z M 92 124 " clip-rule="nonzero"/></clipPath><clipPath id="c0d31bedbd"><path d="M 0 214.535156 L 672.269531 34.339844 L 810.132812 548.6875 L 137.863281 728.878906 Z M 0 214.535156 " clip-rule="nonzero"/></clipPath><clipPath id="3727ff3a51"><path d="M 0 214.535156 L 672.269531 34.339844 L 810.132812 548.6875 L 137.863281 728.878906 Z M 0 214.535156 " clip-rule="nonzero"/></clipPath><clipPath id="6f69cac890"><path d="M 0 214.535156 L 672.269531 34.339844 L 810.132812 548.6875 L 137.863281 728.878906 Z M 0 214.535156 " clip-rule="nonzero"/></clipPath><clipPath id="becaacb20c"><path d="M 47 115 L 760 115 L 760 683 L 47 683 Z M 47 115 " clip-rule="nonzero"/></clipPath><clipPath id="b98cc44641"><path d="M 0 214.535156 L 672.269531 34.339844 L 810.132812 548.6875 L 137.863281 728.878906 Z M 0 214.535156 " clip-rule="nonzero"/></clipPath><clipPath id="2704b09618"><path d="M 0 214.535156 L 672.269531 34.339844 L 810.132812 548.6875 L 137.863281 728.878906 Z M 0 214.535156 " clip-rule="nonzero"/></clipPath><clipPath id="be5fb38c29"><path d="M 0 214.535156 L 672.269531 34.339844 L 810.132812 548.6875 L 137.863281 728.878906 Z M 0 214.535156 " clip-rule="nonzero"/></clipPath><clipPath id="051cfe450e"><path d="M 67 140 L 735 140 L 735 663 L 67 663 Z M 67 140 " clip-rule="nonzero"/></clipPath><clipPath id="16a41a30fb"><path d="M 0 214.535156 L 672.269531 34.339844 L 810.132812 548.6875 L 137.863281 728.878906 Z M 0 214.535156 " clip-rule="nonzero"/></clipPath><clipPath id="5b0cfb5c57"><path d="M 0 214.535156 L 672.269531 34.339844 L 810.132812 548.6875 L 137.863281 728.878906 Z M 0 214.535156 " clip-rule="nonzero"/></clipPath><clipPath id="a3adf6375d"><path d="M 0 214.535156 L 672.269531 34.339844 L 810.132812 548.6875 L 137.863281 728.878906 Z M 0 214.535156 " clip-rule="nonzero"/></clipPath><clipPath id="e75e868a25"><path d="M 47 115 L 760 115 L 760 683 L 47 683 Z M 47 115 " clip-rule="nonzero"/></clipPath><clipPath id="6e18b7f96d"><path d="M 0 214.535156 L 672.269531 34.339844 L 810.132812 548.6875 L 137.863281 728.878906 Z M 0 214.535156 " clip-rule="nonzero"/></clipPath><clipPath id="53c6bbe2eb"><path d="M 0 214.535156 L 672.269531 34.339844 L 810.132812 548.6875 L 137.863281 728.878906 Z M 0 214.535156 " clip-rule="nonzero"/></clipPath><clipPath id="9891505ccf"><path d="M 0 214.535156 L 672.269531 34.339844 L 810.132812 548.6875 L 137.863281 728.878906 Z M 0 214.535156 " clip-rule="nonzero"/></clipPath><clipPath id="dafce550d7"><path d="M 67 220 L 735 220 L 735 663 L 67 663 Z M 67 220 " clip-rule="nonzero"/></clipPath><clipPath id="c91fb3a86c"><path d="M 0 214.535156 L 672.269531 34.339844 L 810.132812 548.6875 L 137.863281 728.878906 Z M 0 214.535156 " clip-rule="nonzero"/></clipPath><clipPath id="8df44af45e"><path d="M 0 214.535156 L 672.269531 34.339844 L 810.132812 548.6875 L 137.863281 728.878906 Z M 0 214.535156 " clip-rule="nonzero"/></clipPath><clipPath id="38a2b323fe"><path d="M 0 214.535156 L 672.269531 34.339844 L 810.132812 548.6875 L 137.863281 728.878906 Z M 0 214.535156 " clip-rule="nonzero"/></clipPath><clipPath id="e9f62a5133"><path d="M 87 134 L 735 134 L 735 541 L 87 541 Z M 87 134 " clip-rule="nonzero"/></clipPath><clipPath id="efb7a6e662"><path d="M 0 214.535156 L 672.269531 34.339844 L 810.132812 548.6875 L 137.863281 728.878906 Z M 0 214.535156 " clip-rule="nonzero"/></clipPath><clipPath id="db8488024e"><path d="M 0 214.535156 L 672.269531 34.339844 L 810.132812 548.6875 L 137.863281 728.878906 Z M 0 214.535156 " clip-rule="nonzero"/></clipPath><clipPath id="a9454ff33c"><path d="M 0 214.535156 L 672.269531 34.339844 L 810.132812 548.6875 L 137.863281 728.878906 Z M 0 214.535156 " clip-rule="nonzero"/></clipPath></defs><rect x="-81" width="972" fill="#ffffff" y="-80.999999" height="971.999992" fill-opacity="1"/><rect x="-81" width="972" fill="#ffffff" y="-80.999999" height="971.999992" fill-opacity="1"/><g clip-path="url(#6269a81590)"><g clip-path="url(#c0d31bedbd)"><g clip-path="url(#3727ff3a51)"><g clip-path="url(#6f69cac890)"><path fill="#000000" d="M 684.347656 158.46875 L 679.050781 138.707031 L 659.277344 144.007812 L 653.980469 124.242188 L 634.207031 129.542969 L 614.4375 134.84375 L 594.664062 140.144531 L 574.890625 145.441406 L 535.34375 156.042969 L 515.574219 161.339844 L 456.253906 177.242188 L 436.484375 182.539062 L 396.9375 193.140625 L 391.640625 173.378906 L 371.867188 178.675781 L 366.570312 158.914062 L 346.796875 164.214844 L 341.5 144.449219 L 301.953125 155.050781 L 282.183594 160.347656 L 222.863281 176.25 L 203.089844 181.546875 L 183.320312 186.847656 L 188.617188 206.609375 L 168.84375 211.910156 L 174.140625 231.675781 L 154.367188 236.972656 L 159.664062 256.738281 L 139.894531 262.039062 L 150.488281 301.5625 L 155.785156 321.328125 L 161.082031 341.089844 L 166.378906 360.855469 L 146.605469 366.152344 L 126.832031 371.453125 L 107.0625 376.753906 L 112.359375 396.515625 L 92.585938 401.816406 L 97.882812 421.578125 L 103.179688 441.34375 L 108.476562 461.105469 L 128.25 455.804688 L 133.546875 475.570312 L 138.84375 495.332031 L 144.140625 515.097656 L 163.914062 509.796875 L 169.210938 529.558594 L 174.507812 549.324219 L 179.804688 569.085938 L 199.578125 563.785156 L 204.875 583.550781 L 210.171875 603.3125 L 215.472656 623.078125 L 235.242188 617.777344 L 240.539062 637.539062 L 245.835938 657.304688 L 251.136719 677.066406 L 270.90625 671.765625 L 276.203125 691.53125 L 335.523438 675.628906 L 355.296875 670.332031 L 375.066406 665.03125 L 394.839844 659.730469 L 414.613281 654.433594 L 454.160156 643.832031 L 473.929688 638.53125 L 493.703125 633.234375 L 553.023438 617.332031 L 572.792969 612.035156 L 632.113281 596.132812 L 651.886719 590.835938 L 671.65625 585.535156 L 711.203125 574.933594 L 730.976562 569.636719 L 750.75 564.335938 L 770.519531 559.035156 L 790.292969 553.738281 L 784.996094 533.972656 L 804.769531 528.671875 L 794.175781 489.148438 L 788.878906 469.382812 L 783.582031 449.621094 L 778.28125 429.855469 L 767.6875 390.332031 L 762.390625 370.566406 L 757.09375 350.804688 L 751.796875 331.039062 L 746.5 311.277344 L 741.203125 291.511719 L 730.609375 251.988281 L 725.308594 232.222656 L 720.011719 212.460938 L 714.714844 192.695312 L 704.121094 153.171875 Z M 684.347656 158.46875 " fill-opacity="0.3" fill-rule="nonzero"/></g></g></g></g><g clip-path="url(#becaacb20c)"><g clip-path="url(#b98cc44641)"><g clip-path="url(#2704b09618)"><g clip-path="url(#be5fb38c29)"><path fill="#d1d3d4" d="M 639.507812 149.304688 L 634.207031 129.542969 L 614.4375 134.84375 L 609.140625 115.078125 L 549.820312 130.980469 L 530.046875 136.277344 L 510.277344 141.578125 L 470.730469 152.179688 L 450.957031 157.476562 L 431.183594 162.777344 L 411.414062 168.078125 L 391.640625 173.378906 L 371.867188 178.675781 L 352.09375 183.976562 L 346.796875 164.214844 L 327.023438 169.511719 L 321.726562 149.75 L 301.953125 155.050781 L 296.65625 135.285156 L 276.886719 140.585938 L 257.113281 145.886719 L 237.339844 151.183594 L 197.792969 161.785156 L 178.023438 167.085938 L 158.25 172.382812 L 138.476562 177.683594 L 143.773438 197.449219 L 124 202.746094 L 129.296875 222.511719 L 109.527344 227.808594 L 114.824219 247.574219 L 95.050781 252.875 L 105.644531 292.398438 L 110.941406 312.164062 L 116.238281 331.925781 L 121.535156 351.691406 L 101.765625 356.988281 L 62.21875 367.589844 L 67.515625 387.351562 L 47.742188 392.652344 L 53.039062 412.414062 L 58.335938 432.179688 L 63.636719 451.941406 L 83.40625 446.640625 L 88.703125 466.40625 L 94.003906 486.167969 L 99.300781 505.933594 L 119.070312 500.632812 L 124.371094 520.394531 L 129.667969 540.160156 L 134.964844 559.921875 L 154.738281 554.621094 L 160.035156 574.386719 L 165.332031 594.148438 L 170.628906 613.914062 L 190.402344 608.613281 L 195.699219 628.375 L 200.996094 648.140625 L 206.292969 667.902344 L 226.066406 662.601562 L 231.363281 682.367188 L 251.136719 677.066406 L 270.90625 671.765625 L 290.679688 666.46875 L 350 650.566406 L 369.769531 645.269531 L 429.089844 629.367188 L 448.863281 624.070312 L 468.632812 618.769531 L 508.179688 608.167969 L 527.953125 602.871094 L 547.726562 597.570312 L 567.496094 592.269531 L 587.269531 586.96875 L 607.042969 581.671875 L 646.589844 571.070312 L 666.359375 565.773438 L 725.679688 549.871094 L 745.453125 544.574219 L 740.152344 524.808594 L 759.925781 519.507812 L 749.332031 479.984375 L 744.035156 460.21875 L 738.738281 440.457031 L 733.441406 420.691406 L 722.847656 381.167969 L 717.546875 361.402344 L 712.25 341.640625 L 706.953125 321.875 L 696.359375 282.351562 L 691.0625 262.585938 L 685.765625 242.824219 L 680.46875 223.058594 L 669.875 183.535156 L 664.574219 163.769531 L 659.277344 144.007812 Z M 639.507812 149.304688 " fill-opacity="1" fill-rule="nonzero"/></g></g></g></g><g clip-path="url(#051cfe450e)"><g clip-path="url(#16a41a30fb)"><g clip-path="url(#5b0cfb5c57)"><g clip-path="url(#a3adf6375d)"><path fill="#fdff00" d="M 87.289062 382.054688 L 92.585938 401.816406 L 72.8125 407.117188 L 67.515625 387.351562 Z M 126.832031 371.453125 L 107.0625 376.753906 L 112.359375 396.515625 L 132.132812 391.214844 Z M 166.378906 360.855469 L 146.605469 366.152344 L 151.902344 385.917969 L 171.675781 380.617188 Z M 205.925781 350.253906 L 186.152344 355.554688 L 191.449219 375.316406 L 211.222656 370.015625 Z M 245.46875 339.65625 L 225.695312 344.953125 L 230.996094 364.71875 L 250.765625 359.417969 Z M 285.015625 329.054688 L 265.242188 334.355469 L 270.539062 354.117188 L 290.3125 348.820312 Z M 324.558594 318.457031 L 304.789062 323.753906 L 310.085938 343.519531 L 329.859375 338.21875 Z M 364.105469 307.855469 L 344.332031 313.15625 L 349.628906 332.917969 L 369.402344 327.621094 Z M 403.652344 297.257812 L 383.878906 302.554688 L 389.175781 322.320312 L 408.949219 317.019531 Z M 443.195312 286.65625 L 423.421875 291.957031 L 428.71875 311.71875 L 448.492188 306.421875 Z M 482.742188 276.058594 L 462.96875 281.355469 L 468.265625 301.121094 L 488.039062 295.820312 Z M 522.285156 265.457031 L 502.515625 270.757812 L 507.8125 290.519531 L 527.582031 285.222656 Z M 141.308594 346.390625 L 161.082031 341.089844 L 155.785156 321.328125 L 136.011719 326.625 Z M 180.855469 335.789062 L 200.628906 330.492188 L 195.328125 310.726562 L 175.558594 316.027344 Z M 220.398438 325.191406 L 240.171875 319.890625 L 234.875 300.128906 L 215.101562 305.429688 Z M 259.945312 314.589844 L 279.71875 309.292969 L 274.421875 289.527344 L 254.648438 294.828125 Z M 299.492188 303.992188 L 319.261719 298.691406 L 313.964844 278.929688 L 294.191406 284.230469 Z M 339.035156 293.390625 L 358.808594 288.09375 L 353.511719 268.328125 L 333.738281 273.628906 Z M 378.582031 282.792969 L 398.355469 277.492188 L 393.054688 257.730469 L 373.285156 263.03125 Z M 418.125 272.195312 L 437.898438 266.894531 L 432.601562 247.128906 L 412.828125 252.429688 Z M 457.671875 261.59375 L 477.445312 256.292969 L 472.148438 236.53125 L 452.375 241.832031 Z M 497.214844 250.996094 L 516.988281 245.695312 L 511.691406 225.929688 L 491.917969 231.230469 Z M 531.464844 220.632812 L 536.761719 240.394531 L 556.535156 235.09375 L 551.238281 215.332031 Z M 571.011719 210.03125 L 576.308594 229.796875 L 596.078125 224.496094 L 590.78125 204.730469 Z M 610.554688 199.433594 L 615.851562 219.195312 L 635.625 213.894531 L 630.328125 194.132812 Z M 150.488281 301.5625 L 155.785156 321.328125 L 175.558594 316.027344 L 170.261719 296.265625 Z M 190.03125 290.964844 L 195.328125 310.726562 L 215.101562 305.429688 L 209.804688 285.664062 Z M 229.578125 280.363281 L 234.875 300.128906 L 254.648438 294.828125 L 249.351562 275.066406 Z M 269.125 269.765625 L 274.421875 289.527344 L 294.191406 284.230469 L 288.894531 264.464844 Z M 308.667969 259.164062 L 313.964844 278.929688 L 333.738281 273.628906 L 328.441406 253.867188 Z M 348.214844 248.566406 L 353.511719 268.328125 L 373.285156 263.03125 L 367.988281 243.265625 Z M 387.757812 237.964844 L 393.054688 257.730469 L 412.828125 252.429688 L 407.53125 232.667969 Z M 427.304688 227.367188 L 432.601562 247.128906 L 452.375 241.832031 L 447.078125 222.066406 Z M 466.847656 216.769531 L 472.148438 236.53125 L 491.917969 231.230469 L 486.621094 211.46875 Z M 506.394531 206.167969 L 511.691406 225.929688 L 531.464844 220.632812 L 526.167969 200.867188 Z M 545.941406 195.570312 L 551.238281 215.332031 L 571.011719 210.03125 L 565.710938 190.269531 Z M 585.484375 184.96875 L 590.78125 204.730469 L 610.554688 199.433594 L 605.257812 179.667969 Z M 625.03125 174.371094 L 619.734375 154.605469 L 599.960938 159.90625 L 605.257812 179.667969 Z M 650.101562 188.832031 L 644.804688 169.070312 L 625.03125 174.371094 L 630.328125 194.132812 Z M 556.535156 235.09375 L 561.832031 254.859375 L 581.605469 249.558594 L 576.308594 229.796875 Z M 601.378906 244.257812 L 621.148438 238.960938 L 615.851562 219.195312 L 596.078125 224.496094 Z M 601.378906 244.257812 L 581.605469 249.558594 L 586.902344 269.320312 L 606.675781 264.023438 Z M 626.445312 258.722656 L 646.21875 253.421875 L 640.921875 233.660156 L 621.148438 238.960938 Z M 567.128906 274.621094 L 572.425781 294.386719 L 592.199219 289.085938 L 586.902344 269.320312 Z M 611.972656 283.785156 L 631.746094 278.484375 L 626.445312 258.722656 L 606.675781 264.023438 Z M 592.199219 289.085938 L 597.496094 308.847656 L 617.269531 303.550781 L 611.972656 283.785156 Z M 637.042969 298.25 L 656.8125 292.949219 L 651.515625 273.1875 L 631.746094 278.484375 Z M 602.792969 328.613281 L 608.089844 348.375 L 627.863281 343.074219 L 622.566406 323.3125 Z M 637.042969 298.25 L 617.269531 303.550781 L 622.566406 323.3125 L 642.339844 318.011719 Z M 647.636719 337.777344 L 667.410156 332.476562 L 662.113281 312.710938 L 642.339844 318.011719 Z M 681.882812 307.414062 L 676.585938 287.648438 L 656.8125 292.949219 L 662.113281 312.710938 Z M 671.289062 267.886719 L 665.992188 248.121094 L 646.21875 253.421875 L 651.515625 273.1875 Z M 660.695312 228.359375 L 655.398438 208.597656 L 635.625 213.894531 L 640.921875 233.660156 Z M 627.863281 343.074219 L 633.160156 362.839844 L 652.933594 357.539062 L 647.636719 337.777344 Z M 658.230469 377.300781 L 678.003906 372.003906 L 672.707031 352.238281 L 652.933594 357.539062 Z M 668.824219 416.828125 L 688.597656 411.527344 L 683.300781 391.765625 L 663.527344 397.066406 Z M 692.480469 346.941406 L 687.179688 327.175781 L 667.410156 332.476562 L 672.707031 352.238281 Z M 638.457031 382.601562 L 643.753906 402.367188 L 663.527344 397.066406 L 658.230469 377.300781 Z M 703.074219 386.464844 L 697.777344 366.703125 L 678.003906 372.003906 L 683.300781 391.765625 Z M 679.417969 456.355469 L 699.191406 451.054688 L 693.894531 431.292969 L 674.121094 436.59375 Z M 724.261719 465.519531 L 718.964844 445.757812 L 699.191406 451.054688 L 704.488281 470.820312 Z M 715.085938 510.347656 L 734.855469 505.046875 L 729.558594 485.28125 L 709.785156 490.582031 Z M 713.667969 425.992188 L 708.371094 406.230469 L 688.597656 411.527344 L 693.894531 431.292969 Z M 125.417969 287.101562 L 130.714844 306.863281 L 150.488281 301.5625 L 145.191406 281.800781 Z M 164.960938 276.5 L 170.261719 296.265625 L 190.03125 290.964844 L 184.734375 271.199219 Z M 204.507812 265.902344 L 209.804688 285.664062 L 229.578125 280.363281 L 224.28125 260.601562 Z M 244.054688 255.300781 L 249.351562 275.066406 L 269.125 269.765625 L 263.824219 250 Z M 283.597656 244.703125 L 288.894531 264.464844 L 308.667969 259.164062 L 303.371094 239.402344 Z M 323.144531 234.101562 L 328.441406 253.867188 L 348.214844 248.566406 L 342.917969 228.804688 Z M 387.757812 237.964844 L 382.460938 218.203125 L 362.6875 223.503906 L 367.988281 243.265625 Z M 427.304688 227.367188 L 422.007812 207.605469 L 402.234375 212.902344 L 407.53125 232.667969 Z M 466.847656 216.769531 L 461.550781 197.003906 L 441.78125 202.304688 L 447.078125 222.066406 Z M 506.394531 206.167969 L 501.097656 186.40625 L 481.324219 191.703125 L 486.621094 211.46875 Z M 545.941406 195.570312 L 540.644531 175.804688 L 520.871094 181.105469 L 526.167969 200.867188 Z M 585.484375 184.96875 L 580.1875 165.207031 L 560.414062 170.503906 L 565.710938 190.269531 Z M 159.664062 256.738281 L 139.894531 262.039062 L 145.191406 281.800781 L 164.960938 276.5 Z M 149.070312 217.210938 L 129.296875 222.511719 L 134.59375 242.273438 L 154.367188 236.972656 Z M 179.4375 251.4375 L 184.734375 271.199219 L 204.507812 265.902344 L 199.210938 246.136719 Z M 218.984375 240.839844 L 224.28125 260.601562 L 244.054688 255.300781 L 238.757812 235.539062 Z M 258.527344 230.238281 L 263.824219 250 L 283.597656 244.703125 L 278.300781 224.9375 Z M 323.144531 234.101562 L 317.847656 214.339844 L 298.074219 219.640625 L 303.371094 239.402344 Z M 174.140625 231.675781 L 154.367188 236.972656 L 159.664062 256.738281 L 179.4375 251.4375 Z M 114.824219 247.574219 L 120.121094 267.335938 L 139.894531 262.039062 L 134.59375 242.273438 Z M 218.984375 240.839844 L 213.6875 221.074219 L 193.914062 226.375 L 199.210938 246.136719 Z M 258.527344 230.238281 L 253.230469 210.476562 L 233.457031 215.773438 L 238.757812 235.539062 Z M 298.074219 219.640625 L 292.777344 199.875 L 273.003906 205.175781 L 278.300781 224.9375 Z M 193.914062 226.375 L 188.617188 206.609375 L 168.84375 211.910156 L 174.140625 231.675781 Z M 233.457031 215.773438 L 228.160156 196.011719 L 208.390625 201.3125 L 213.6875 221.074219 Z M 273.003906 205.175781 L 267.707031 185.414062 L 247.933594 190.710938 L 253.230469 210.476562 Z M 163.546875 192.148438 L 143.773438 197.449219 L 149.070312 217.210938 L 168.84375 211.910156 Z M 203.089844 181.546875 L 183.320312 186.847656 L 188.617188 206.609375 L 208.390625 201.3125 Z M 242.636719 170.949219 L 222.863281 176.25 L 228.160156 196.011719 L 247.933594 190.710938 Z M 312.550781 194.574219 L 307.253906 174.8125 L 287.480469 180.113281 L 292.777344 199.875 Z M 337.621094 209.039062 L 332.320312 189.277344 L 312.550781 194.574219 L 317.847656 214.339844 Z M 282.183594 160.347656 L 262.410156 165.648438 L 267.707031 185.414062 L 287.480469 180.113281 Z M 362.6875 223.503906 L 357.390625 203.738281 L 337.621094 209.039062 L 342.917969 228.804688 Z M 396.9375 193.140625 L 377.164062 198.441406 L 382.460938 218.203125 L 402.234375 212.902344 Z M 436.484375 182.539062 L 416.710938 187.839844 L 422.007812 207.605469 L 441.78125 202.304688 Z M 476.027344 171.941406 L 456.253906 177.242188 L 461.550781 197.003906 L 481.324219 191.703125 Z M 515.574219 161.339844 L 495.800781 166.640625 L 501.097656 186.40625 L 520.871094 181.105469 Z M 555.117188 150.742188 L 535.34375 156.042969 L 540.644531 175.804688 L 560.414062 170.503906 Z M 594.664062 140.144531 L 574.890625 145.441406 L 580.1875 165.207031 L 599.960938 159.90625 Z M 552.652344 299.683594 L 547.355469 279.921875 L 527.582031 285.222656 L 532.882812 304.984375 Z M 513.109375 310.285156 L 507.8125 290.519531 L 488.039062 295.820312 L 493.335938 315.585938 Z M 473.5625 320.882812 L 468.265625 301.121094 L 448.492188 306.421875 L 453.789062 326.183594 Z M 434.019531 331.484375 L 428.71875 311.71875 L 408.949219 317.019531 L 414.246094 336.78125 Z M 394.472656 342.082031 L 389.175781 322.320312 L 369.402344 327.621094 L 374.699219 347.382812 Z M 354.925781 352.683594 L 349.628906 332.917969 L 329.859375 338.21875 L 335.15625 357.980469 Z M 315.382812 363.28125 L 310.085938 343.519531 L 290.3125 348.820312 L 295.609375 368.582031 Z M 275.835938 373.882812 L 270.539062 354.117188 L 250.765625 359.417969 L 256.0625 379.179688 Z M 236.292969 384.480469 L 230.996094 364.71875 L 211.222656 370.015625 L 216.519531 389.78125 Z M 196.746094 395.082031 L 191.449219 375.316406 L 171.675781 380.617188 L 176.972656 400.378906 Z M 157.199219 405.679688 L 151.902344 385.917969 L 132.132812 391.214844 L 137.429688 410.980469 Z M 112.359375 396.515625 L 92.585938 401.816406 L 97.882812 421.578125 L 117.65625 416.28125 Z M 78.109375 426.878906 L 83.40625 446.640625 L 103.179688 441.34375 L 97.882812 421.578125 Z M 117.65625 416.28125 L 122.953125 436.042969 L 142.726562 430.742188 L 137.429688 410.980469 Z M 182.269531 420.144531 L 176.972656 400.378906 L 157.199219 405.679688 L 162.5 425.445312 Z M 221.816406 409.542969 L 216.519531 389.78125 L 196.746094 395.082031 L 202.042969 414.84375 Z M 261.363281 398.945312 L 256.0625 379.179688 L 236.292969 384.480469 L 241.589844 404.246094 Z M 300.90625 388.34375 L 295.609375 368.582031 L 275.835938 373.882812 L 281.132812 393.644531 Z M 340.453125 377.746094 L 335.15625 357.980469 L 315.382812 363.28125 L 320.679688 383.046875 Z M 379.996094 367.144531 L 374.699219 347.382812 L 354.925781 352.683594 L 360.226562 372.445312 Z M 419.542969 356.546875 L 414.246094 336.78125 L 394.472656 342.082031 L 399.769531 361.847656 Z M 459.085938 345.945312 L 453.789062 326.183594 L 434.019531 331.484375 L 439.316406 351.246094 Z M 498.632812 335.347656 L 493.335938 315.585938 L 473.5625 320.882812 L 478.859375 340.648438 Z M 518.40625 330.046875 L 538.179688 324.746094 L 532.882812 304.984375 L 513.109375 310.285156 Z M 103.179688 441.34375 L 108.476562 461.105469 L 128.25 455.804688 L 122.953125 436.042969 Z M 162.5 425.445312 L 142.726562 430.742188 L 148.023438 450.507812 L 167.796875 445.207031 Z M 207.339844 434.605469 L 202.042969 414.84375 L 182.269531 420.144531 L 187.566406 439.90625 Z M 246.886719 424.007812 L 241.589844 404.246094 L 221.816406 409.542969 L 227.113281 429.308594 Z M 286.429688 413.40625 L 281.132812 393.644531 L 261.363281 398.945312 L 266.660156 418.707031 Z M 325.976562 402.808594 L 320.679688 383.046875 L 300.90625 388.34375 L 306.203125 408.109375 Z M 365.523438 392.210938 L 360.226562 372.445312 L 340.453125 377.746094 L 345.75 397.507812 Z M 405.066406 381.609375 L 399.769531 361.847656 L 379.996094 367.144531 L 385.292969 386.910156 Z M 444.613281 371.011719 L 439.316406 351.246094 L 419.542969 356.546875 L 424.839844 376.308594 Z M 484.15625 360.410156 L 478.859375 340.648438 L 459.085938 345.945312 L 464.386719 365.710938 Z M 503.929688 355.109375 L 523.703125 349.8125 L 518.40625 330.046875 L 498.632812 335.347656 Z M 563.25 339.210938 L 557.949219 319.449219 L 538.179688 324.746094 L 543.476562 344.511719 Z M 148.023438 450.507812 L 128.25 455.804688 L 133.546875 475.570312 L 153.320312 470.269531 Z M 187.566406 439.90625 L 167.796875 445.207031 L 173.09375 464.96875 L 192.867188 459.671875 Z M 232.410156 449.070312 L 227.113281 429.308594 L 207.339844 434.605469 L 212.636719 454.371094 Z M 271.957031 438.472656 L 266.660156 418.707031 L 246.886719 424.007812 L 252.183594 443.769531 Z M 311.5 427.871094 L 306.203125 408.109375 L 286.429688 413.40625 L 291.730469 433.171875 Z M 351.046875 417.273438 L 345.75 397.507812 L 325.976562 402.808594 L 331.273438 422.570312 Z M 390.589844 406.671875 L 385.292969 386.910156 L 365.523438 392.210938 L 370.820312 411.972656 Z M 430.136719 396.074219 L 424.839844 376.308594 L 405.066406 381.609375 L 410.363281 401.371094 Z M 469.683594 385.472656 L 464.386719 365.710938 L 444.613281 371.011719 L 449.910156 390.773438 Z M 489.453125 380.175781 L 509.226562 374.875 L 503.929688 355.109375 L 484.15625 360.410156 Z M 548.773438 364.273438 L 543.476562 344.511719 L 523.703125 349.8125 L 529 369.574219 Z M 588.316406 353.675781 L 583.019531 333.910156 L 563.25 339.210938 L 568.546875 358.976562 Z M 113.773438 480.871094 L 119.070312 500.632812 L 138.84375 495.332031 L 133.546875 475.570312 Z M 173.09375 464.96875 L 153.320312 470.269531 L 158.617188 490.03125 L 178.390625 484.734375 Z M 192.867188 459.671875 L 198.164062 479.433594 L 217.933594 474.132812 L 212.636719 454.371094 Z M 232.410156 449.070312 L 237.707031 468.835938 L 257.480469 463.535156 L 252.183594 443.769531 Z M 297.027344 452.933594 L 291.730469 433.171875 L 271.957031 438.472656 L 277.253906 458.234375 Z M 336.570312 442.335938 L 331.273438 422.570312 L 311.5 427.871094 L 316.796875 447.636719 Z M 376.117188 431.734375 L 370.820312 411.972656 L 351.046875 417.273438 L 356.34375 437.035156 Z M 415.660156 421.136719 L 410.363281 401.371094 L 390.589844 406.671875 L 395.890625 426.4375 Z M 455.207031 410.535156 L 449.910156 390.773438 L 430.136719 396.074219 L 435.433594 415.835938 Z M 474.980469 405.238281 L 494.753906 399.9375 L 489.453125 380.175781 L 469.683594 385.472656 Z M 534.296875 389.335938 L 529 369.574219 L 509.226562 374.875 L 514.523438 394.636719 Z M 554.070312 384.039062 L 573.84375 378.738281 L 568.546875 358.976562 L 548.773438 364.273438 Z M 158.617188 490.03125 L 138.84375 495.332031 L 144.140625 515.097656 L 163.914062 509.796875 Z M 178.390625 484.734375 L 183.6875 504.496094 L 203.460938 499.195312 L 198.164062 479.433594 Z M 217.933594 474.132812 L 223.234375 493.898438 L 243.003906 488.597656 L 237.707031 468.835938 Z M 277.253906 458.234375 L 257.480469 463.535156 L 262.777344 483.296875 L 282.550781 477.996094 Z M 322.097656 467.398438 L 316.796875 447.636719 L 297.027344 452.933594 L 302.324219 472.699219 Z M 361.640625 456.796875 L 356.34375 437.035156 L 336.570312 442.335938 L 341.867188 462.097656 Z M 401.1875 446.199219 L 395.890625 426.4375 L 376.117188 431.734375 L 381.414062 451.5 Z M 440.730469 435.601562 L 435.433594 415.835938 L 415.660156 421.136719 L 420.957031 440.898438 Z M 460.503906 430.300781 L 480.277344 425 L 474.980469 405.238281 L 455.207031 410.535156 Z M 519.820312 414.402344 L 514.523438 394.636719 L 494.753906 399.9375 L 500.050781 419.699219 Z M 539.59375 409.101562 L 559.367188 403.800781 L 554.070312 384.039062 L 534.296875 389.335938 Z M 598.914062 393.203125 L 593.617188 373.4375 L 573.84375 378.738281 L 579.140625 398.5 Z M 124.371094 520.394531 L 129.667969 540.160156 L 149.4375 534.859375 L 144.140625 515.097656 Z M 163.914062 509.796875 L 169.210938 529.558594 L 188.984375 524.261719 L 183.6875 504.496094 Z M 203.460938 499.195312 L 208.757812 518.960938 L 228.53125 513.660156 L 223.234375 493.898438 Z M 262.777344 483.296875 L 243.003906 488.597656 L 248.300781 508.359375 L 268.074219 503.0625 Z M 302.324219 472.699219 L 282.550781 477.996094 L 287.847656 497.761719 L 307.621094 492.460938 Z M 322.097656 467.398438 L 327.394531 487.160156 L 347.164062 481.863281 L 341.867188 462.097656 Z M 361.640625 456.796875 L 366.9375 476.5625 L 386.710938 471.261719 L 381.414062 451.5 Z M 401.1875 446.199219 L 406.484375 465.960938 L 426.257812 460.664062 L 420.957031 440.898438 Z M 446.027344 455.363281 L 465.800781 450.0625 L 460.503906 430.300781 L 440.730469 435.601562 Z M 505.347656 439.464844 L 500.050781 419.699219 L 480.277344 425 L 485.574219 444.761719 Z M 525.121094 434.164062 L 544.890625 428.863281 L 539.59375 409.101562 L 519.820312 414.402344 Z M 584.4375 418.265625 L 579.140625 398.5 L 559.367188 403.800781 L 564.664062 423.566406 Z M 623.984375 407.664062 L 618.683594 387.902344 L 598.914062 393.203125 L 604.210938 412.964844 Z M 149.4375 534.859375 L 154.738281 554.621094 L 174.507812 549.324219 L 169.210938 529.558594 Z M 188.984375 524.261719 L 194.28125 544.023438 L 214.054688 538.722656 L 208.757812 518.960938 Z M 248.300781 508.359375 L 228.53125 513.660156 L 233.828125 533.421875 L 253.601562 528.125 Z M 287.847656 497.761719 L 268.074219 503.0625 L 273.371094 522.824219 L 293.144531 517.523438 Z M 307.621094 492.460938 L 312.917969 512.226562 L 332.691406 506.925781 L 327.394531 487.160156 Z M 347.164062 481.863281 L 352.460938 501.625 L 372.234375 496.324219 L 366.9375 476.5625 Z M 386.710938 471.261719 L 392.007812 491.027344 L 411.78125 485.726562 L 406.484375 465.960938 Z M 426.257812 460.664062 L 431.554688 480.425781 L 451.324219 475.125 L 446.027344 455.363281 Z M 465.800781 450.0625 L 471.097656 469.828125 L 490.871094 464.527344 L 485.574219 444.761719 Z M 510.644531 459.226562 L 530.417969 453.925781 L 525.121094 434.164062 L 505.347656 439.464844 Z M 569.960938 443.328125 L 564.664062 423.566406 L 544.890625 428.863281 L 550.1875 448.628906 Z M 589.734375 438.027344 L 609.507812 432.726562 L 604.210938 412.964844 L 584.4375 418.265625 Z M 174.507812 549.324219 L 179.804688 569.085938 L 199.578125 563.785156 L 194.28125 544.023438 Z M 233.828125 533.421875 L 214.054688 538.722656 L 219.351562 558.488281 L 239.125 553.1875 Z M 273.371094 522.824219 L 253.601562 528.125 L 258.898438 547.886719 L 278.667969 542.585938 Z M 293.144531 517.523438 L 298.441406 537.289062 L 318.214844 531.988281 L 312.917969 512.226562 Z M 332.691406 506.925781 L 337.988281 526.6875 L 357.761719 521.386719 L 352.460938 501.625 Z M 372.234375 496.324219 L 377.53125 516.089844 L 397.304688 510.789062 L 392.007812 491.027344 Z M 411.78125 485.726562 L 417.078125 505.488281 L 436.851562 500.1875 L 431.554688 480.425781 Z M 451.324219 475.125 L 456.625 494.890625 L 476.394531 489.589844 L 471.097656 469.828125 Z M 490.871094 464.527344 L 496.167969 484.289062 L 515.941406 478.992188 L 510.644531 459.226562 Z M 555.488281 468.390625 L 550.1875 448.628906 L 530.417969 453.925781 L 535.714844 473.691406 Z M 575.257812 463.089844 L 595.03125 457.792969 L 589.734375 438.027344 L 569.960938 443.328125 Z M 634.578125 447.191406 L 629.28125 427.429688 L 609.507812 432.726562 L 614.804688 452.492188 Z M 219.351562 558.488281 L 199.578125 563.785156 L 204.875 583.550781 L 224.648438 578.25 Z M 258.898438 547.886719 L 239.125 553.1875 L 244.421875 572.949219 L 264.195312 567.652344 Z M 278.667969 542.585938 L 283.96875 562.351562 L 303.738281 557.050781 L 298.441406 537.289062 Z M 318.214844 531.988281 L 323.511719 551.75 L 343.285156 546.453125 L 337.988281 526.6875 Z M 357.761719 521.386719 L 363.058594 541.152344 L 382.828125 535.851562 L 377.53125 516.089844 Z M 397.304688 510.789062 L 402.601562 530.550781 L 422.375 525.253906 L 417.078125 505.488281 Z M 436.851562 500.1875 L 442.148438 519.953125 L 461.921875 514.652344 L 456.625 494.890625 Z M 476.394531 489.589844 L 481.691406 509.351562 L 501.464844 504.054688 L 496.167969 484.289062 Z M 515.941406 478.992188 L 521.238281 498.753906 L 541.011719 493.453125 L 535.714844 473.691406 Z M 560.785156 488.152344 L 580.554688 482.855469 L 575.257812 463.089844 L 555.488281 468.390625 Z M 620.101562 472.253906 L 614.804688 452.492188 L 595.03125 457.792969 L 600.328125 477.554688 Z M 659.648438 461.65625 L 654.351562 441.890625 L 634.578125 447.191406 L 639.875 466.957031 Z M 185.105469 588.847656 L 190.402344 608.613281 L 210.171875 603.3125 L 204.875 583.550781 Z M 244.421875 572.949219 L 224.648438 578.25 L 229.945312 598.011719 L 249.71875 592.714844 Z M 264.195312 567.652344 L 269.492188 587.414062 L 289.265625 582.113281 L 283.96875 562.351562 Z M 303.738281 557.050781 L 309.035156 576.8125 L 328.808594 571.515625 L 323.511719 551.75 Z M 343.285156 546.453125 L 348.582031 566.214844 L 368.355469 560.914062 L 363.058594 541.152344 Z M 382.828125 535.851562 L 388.128906 555.617188 L 407.898438 550.316406 L 402.601562 530.550781 Z M 422.375 525.253906 L 427.671875 545.015625 L 447.445312 539.714844 L 442.148438 519.953125 Z M 461.921875 514.652344 L 467.21875 534.417969 L 486.992188 529.117188 L 481.691406 509.351562 Z M 501.464844 504.054688 L 506.761719 523.816406 L 526.535156 518.515625 L 521.238281 498.753906 Z M 541.011719 493.453125 L 546.308594 513.21875 L 566.082031 507.917969 L 560.785156 488.152344 Z M 580.554688 482.855469 L 585.855469 502.617188 L 605.625 497.316406 L 600.328125 477.554688 Z M 625.398438 492.019531 L 645.171875 486.71875 L 639.875 466.957031 L 620.101562 472.253906 Z M 229.945312 598.011719 L 210.171875 603.3125 L 215.472656 623.078125 L 235.242188 617.777344 Z M 249.71875 592.714844 L 255.015625 612.476562 L 274.789062 607.175781 L 269.492188 587.414062 Z M 289.265625 582.113281 L 294.5625 601.878906 L 314.332031 596.578125 L 309.035156 576.8125 Z M 328.808594 571.515625 L 334.105469 591.277344 L 353.878906 585.976562 L 348.582031 566.214844 Z M 368.355469 560.914062 L 373.652344 580.679688 L 393.425781 575.378906 L 388.128906 555.617188 Z M 407.898438 550.316406 L 413.195312 570.078125 L 432.96875 564.777344 L 427.671875 545.015625 Z M 447.445312 539.714844 L 452.742188 559.480469 L 472.515625 554.179688 L 467.21875 534.417969 Z M 486.992188 529.117188 L 492.289062 548.878906 L 512.058594 543.578125 L 506.761719 523.816406 Z M 526.535156 518.515625 L 531.832031 538.28125 L 551.605469 532.980469 L 546.308594 513.21875 Z M 566.082031 507.917969 L 571.378906 527.679688 L 591.152344 522.382812 L 585.855469 502.617188 Z M 605.625 497.316406 L 610.921875 517.082031 L 630.695312 511.78125 L 625.398438 492.019531 Z M 670.242188 501.183594 L 664.945312 481.417969 L 645.171875 486.71875 L 650.46875 506.480469 Z M 195.699219 628.375 L 200.996094 648.140625 L 220.769531 642.839844 L 215.472656 623.078125 Z M 235.242188 617.777344 L 240.539062 637.539062 L 260.3125 632.238281 L 255.015625 612.476562 Z M 274.789062 607.175781 L 280.085938 626.941406 L 299.859375 621.640625 L 294.5625 601.878906 Z M 314.332031 596.578125 L 319.632812 616.339844 L 339.402344 611.042969 L 334.105469 591.277344 Z M 353.878906 585.976562 L 359.175781 605.742188 L 378.949219 600.441406 L 373.652344 580.679688 Z M 393.425781 575.378906 L 398.722656 595.140625 L 418.496094 589.84375 L 413.195312 570.078125 Z M 432.96875 564.777344 L 438.265625 584.542969 L 458.039062 579.242188 L 452.742188 559.480469 Z M 472.515625 554.179688 L 477.8125 573.941406 L 497.585938 568.644531 L 492.289062 548.878906 Z M 512.058594 543.578125 L 517.359375 563.34375 L 537.128906 558.042969 L 531.832031 538.28125 Z M 551.605469 532.980469 L 556.902344 552.742188 L 576.675781 547.445312 L 571.378906 527.679688 Z M 591.152344 522.382812 L 596.449219 542.144531 L 616.222656 536.84375 L 610.921875 517.082031 Z M 630.695312 511.78125 L 635.992188 531.542969 L 655.765625 526.246094 L 650.46875 506.480469 Z M 675.539062 520.945312 L 695.3125 515.644531 L 690.015625 495.882812 L 670.242188 501.183594 Z M 226.066406 662.601562 L 245.835938 657.304688 L 240.539062 637.539062 L 220.769531 642.839844 Z M 265.609375 652.003906 L 285.382812 646.703125 L 280.085938 626.941406 L 260.3125 632.238281 Z M 305.15625 641.402344 L 324.929688 636.105469 L 319.632812 616.339844 L 299.859375 621.640625 Z M 344.699219 630.804688 L 364.472656 625.503906 L 359.175781 605.742188 L 339.402344 611.042969 Z M 384.246094 620.203125 L 404.019531 614.90625 L 398.722656 595.140625 L 378.949219 600.441406 Z M 423.792969 609.605469 L 443.5625 604.304688 L 438.265625 584.542969 L 418.496094 589.84375 Z M 463.335938 599.007812 L 483.109375 593.707031 L 477.8125 573.941406 L 458.039062 579.242188 Z M 502.882812 588.40625 L 522.65625 583.105469 L 517.359375 563.34375 L 497.585938 568.644531 Z M 542.425781 577.808594 L 562.199219 572.507812 L 556.902344 552.742188 L 537.128906 558.042969 Z M 581.972656 567.207031 L 601.746094 561.90625 L 596.449219 542.144531 L 576.675781 547.445312 Z M 621.519531 556.609375 L 641.289062 551.308594 L 635.992188 531.542969 L 616.222656 536.84375 Z M 661.0625 546.007812 L 680.835938 540.707031 L 675.539062 520.945312 L 655.765625 526.246094 Z M 661.0625 546.007812 " fill-opacity="1" fill-rule="nonzero"/></g></g></g></g><g clip-path="url(#e75e868a25)"><g clip-path="url(#6e18b7f96d)"><g clip-path="url(#53c6bbe2eb)"><g clip-path="url(#9891505ccf)"><path fill="#000000" d="M 163.546875 192.148438 L 143.773438 197.449219 L 138.476562 177.683594 L 158.25 172.382812 L 178.023438 167.085938 L 197.792969 161.785156 L 237.339844 151.183594 L 257.113281 145.886719 L 276.886719 140.585938 L 296.65625 135.285156 L 301.953125 155.050781 L 282.183594 160.347656 L 222.863281 176.25 L 203.089844 181.546875 L 183.320312 186.847656 Z M 143.773438 197.449219 L 124 202.746094 L 129.296875 222.511719 L 149.070312 217.210938 Z M 327.023438 169.511719 L 321.726562 149.75 L 301.953125 155.050781 L 307.253906 174.8125 Z M 129.296875 222.511719 L 109.527344 227.808594 L 114.824219 247.574219 L 134.59375 242.273438 Z M 352.09375 183.976562 L 346.796875 164.214844 L 327.023438 169.511719 L 332.320312 189.277344 Z M 377.164062 198.441406 L 436.484375 182.539062 L 456.253906 177.242188 L 515.574219 161.339844 L 535.34375 156.042969 L 574.890625 145.441406 L 594.664062 140.144531 L 614.4375 134.84375 L 609.140625 115.078125 L 549.820312 130.980469 L 530.046875 136.277344 L 510.277344 141.578125 L 470.730469 152.179688 L 450.957031 157.476562 L 431.183594 162.777344 L 411.414062 168.078125 L 391.640625 173.378906 L 371.867188 178.675781 L 352.09375 183.976562 L 357.390625 203.738281 Z M 639.507812 149.304688 L 634.207031 129.542969 L 614.4375 134.84375 L 619.734375 154.605469 Z M 639.507812 149.304688 L 644.804688 169.070312 L 650.101562 188.832031 L 655.398438 208.597656 L 665.992188 248.121094 L 671.289062 267.886719 L 676.585938 287.648438 L 681.882812 307.414062 L 687.179688 327.175781 L 692.480469 346.941406 L 703.074219 386.464844 L 708.371094 406.230469 L 713.667969 425.992188 L 718.964844 445.757812 L 729.558594 485.28125 L 734.855469 505.046875 L 715.085938 510.347656 L 709.785156 490.582031 L 704.488281 470.820312 L 684.71875 476.117188 L 690.015625 495.882812 L 695.3125 515.644531 L 700.609375 535.410156 L 680.835938 540.707031 L 641.289062 551.308594 L 621.519531 556.609375 L 601.746094 561.90625 L 542.425781 577.808594 L 522.65625 583.105469 L 463.335938 599.007812 L 443.5625 604.304688 L 423.792969 609.605469 L 404.019531 614.90625 L 384.246094 620.203125 L 344.699219 630.804688 L 324.929688 636.105469 L 305.15625 641.402344 L 245.835938 657.304688 L 226.066406 662.601562 L 231.363281 682.367188 L 251.136719 677.066406 L 270.90625 671.765625 L 290.679688 666.46875 L 350 650.566406 L 369.769531 645.269531 L 429.089844 629.367188 L 448.863281 624.070312 L 468.632812 618.769531 L 508.179688 608.167969 L 527.953125 602.871094 L 547.726562 597.570312 L 567.496094 592.269531 L 587.269531 586.96875 L 607.042969 581.671875 L 646.589844 571.070312 L 666.359375 565.773438 L 725.679688 549.871094 L 745.453125 544.574219 L 740.152344 524.808594 L 759.925781 519.507812 L 749.332031 479.984375 L 744.035156 460.21875 L 738.738281 440.457031 L 733.441406 420.691406 L 722.847656 381.167969 L 717.546875 361.402344 L 712.25 341.640625 L 706.953125 321.875 L 696.359375 282.351562 L 691.0625 262.585938 L 685.765625 242.824219 L 680.46875 223.058594 L 669.875 183.535156 L 664.574219 163.769531 L 659.277344 144.007812 Z M 107.0625 376.753906 L 126.832031 371.453125 L 146.605469 366.152344 L 166.378906 360.855469 L 205.925781 350.253906 L 225.695312 344.953125 L 245.46875 339.65625 L 304.789062 323.753906 L 324.558594 318.457031 L 383.878906 302.554688 L 403.652344 297.257812 L 423.421875 291.957031 L 462.96875 281.355469 L 482.742188 276.058594 L 502.515625 270.757812 L 522.285156 265.457031 L 542.058594 260.160156 L 536.761719 240.394531 L 497.214844 250.996094 L 477.445312 256.292969 L 418.125 272.195312 L 398.355469 277.492188 L 358.808594 288.09375 L 339.035156 293.390625 L 319.261719 298.691406 L 299.492188 303.992188 L 279.71875 309.292969 L 259.945312 314.589844 L 220.398438 325.191406 L 200.628906 330.492188 L 180.855469 335.789062 L 141.308594 346.390625 L 136.011719 326.625 L 125.417969 287.101562 L 120.121094 267.335938 L 114.824219 247.574219 L 95.050781 252.875 L 105.644531 292.398438 L 110.941406 312.164062 L 116.238281 331.925781 L 121.535156 351.691406 L 101.765625 356.988281 L 62.21875 367.589844 L 67.515625 387.351562 L 87.289062 382.054688 Z M 72.8125 407.117188 L 67.515625 387.351562 L 47.742188 392.652344 L 53.039062 412.414062 L 58.335938 432.179688 L 63.636719 451.941406 L 83.40625 446.640625 Z M 567.128906 274.621094 L 561.832031 254.859375 L 542.058594 260.160156 L 552.652344 299.683594 L 557.949219 319.449219 L 577.722656 314.148438 L 572.425781 294.386719 Z M 108.476562 461.105469 L 103.179688 441.34375 L 83.40625 446.640625 L 88.703125 466.40625 L 94.003906 486.167969 L 99.300781 505.933594 L 119.070312 500.632812 L 113.773438 480.871094 Z M 602.792969 328.613281 L 597.496094 308.847656 L 577.722656 314.148438 L 583.019531 333.910156 L 588.316406 353.675781 L 593.617188 373.4375 L 613.386719 368.136719 Z M 144.140625 515.097656 L 138.84375 495.332031 L 119.070312 500.632812 L 124.371094 520.394531 L 129.667969 540.160156 L 134.964844 559.921875 L 154.738281 554.621094 L 149.4375 534.859375 Z M 638.457031 382.601562 L 633.160156 362.839844 L 613.386719 368.136719 L 618.683594 387.902344 L 623.984375 407.664062 L 629.28125 427.429688 L 649.050781 422.128906 L 643.753906 402.367188 Z M 179.804688 569.085938 L 174.507812 549.324219 L 154.738281 554.621094 L 160.035156 574.386719 L 165.332031 594.148438 L 170.628906 613.914062 L 190.402344 608.613281 L 185.105469 588.847656 Z M 674.121094 436.59375 L 668.824219 416.828125 L 649.050781 422.128906 L 654.351562 441.890625 L 659.648438 461.65625 L 664.945312 481.417969 L 684.71875 476.117188 L 679.417969 456.355469 Z M 215.472656 623.078125 L 210.171875 603.3125 L 190.402344 608.613281 L 195.699219 628.375 L 200.996094 648.140625 L 206.292969 667.902344 L 226.066406 662.601562 Z M 215.472656 623.078125 " fill-opacity="1" fill-rule="nonzero"/></g></g></g></g><g clip-path="url(#dafce550d7)"><g clip-path="url(#c91fb3a86c)"><g clip-path="url(#8df44af45e)"><g clip-path="url(#38a2b323fe)"><path fill="#000000" d="M 556.535156 235.09375 L 561.832031 254.859375 L 542.058594 260.160156 L 536.761719 240.394531 Z M 586.902344 269.320312 L 581.605469 249.558594 L 561.832031 254.859375 L 567.128906 274.621094 L 572.425781 294.386719 L 577.722656 314.148438 L 597.496094 308.847656 L 592.199219 289.085938 Z M 622.566406 323.3125 L 617.269531 303.550781 L 597.496094 308.847656 L 602.792969 328.613281 L 613.386719 368.136719 L 633.160156 362.839844 L 627.863281 343.074219 Z M 658.230469 377.300781 L 652.933594 357.539062 L 633.160156 362.839844 L 638.457031 382.601562 L 643.753906 402.367188 L 649.050781 422.128906 L 668.824219 416.828125 L 663.527344 397.066406 Z M 693.894531 431.292969 L 688.597656 411.527344 L 668.824219 416.828125 L 674.121094 436.59375 L 679.417969 456.355469 L 684.71875 476.117188 L 704.488281 470.820312 L 699.191406 451.054688 Z M 704.488281 470.820312 L 709.785156 490.582031 L 715.085938 510.347656 L 734.855469 505.046875 L 729.558594 485.28125 L 724.261719 465.519531 Z M 136.011719 326.625 L 141.308594 346.390625 L 536.761719 240.394531 L 531.464844 220.632812 Z M 67.515625 387.351562 L 83.40625 446.640625 L 103.179688 441.34375 L 87.289062 382.054688 Z M 103.179688 441.34375 L 119.070312 500.632812 L 138.84375 495.332031 L 122.953125 436.042969 Z M 138.84375 495.332031 L 154.738281 554.621094 L 174.507812 549.324219 L 158.617188 490.03125 Z M 174.507812 549.324219 L 190.402344 608.613281 L 210.171875 603.3125 L 194.28125 544.023438 Z M 229.945312 598.011719 L 210.171875 603.3125 L 226.066406 662.601562 L 245.835938 657.304688 L 680.835938 540.707031 L 675.539062 520.945312 L 240.539062 637.539062 Z M 229.945312 598.011719 " fill-opacity="0.3" fill-rule="nonzero"/></g></g></g></g><g clip-path="url(#e9f62a5133)"><g clip-path="url(#efb7a6e662)"><g clip-path="url(#db8488024e)"><g clip-path="url(#a9454ff33c)"><path fill="#ffffff" d="M 547.355469 279.921875 L 557.949219 319.449219 L 538.179688 324.746094 L 527.582031 285.222656 L 92.585938 401.816406 L 87.289062 382.054688 L 542.058594 260.160156 Z M 357.390625 203.738281 L 362.6875 223.503906 L 619.734375 154.605469 L 614.4375 134.84375 Z M 557.949219 319.449219 L 573.84375 378.738281 L 593.617188 373.4375 L 577.722656 314.148438 Z M 593.617188 373.4375 L 609.507812 432.726562 L 629.28125 427.429688 L 613.386719 368.136719 Z M 629.28125 427.429688 L 645.171875 486.71875 L 664.945312 481.417969 L 649.050781 422.128906 Z M 680.835938 540.707031 L 700.609375 535.410156 L 684.71875 476.117188 L 664.945312 481.417969 Z M 619.734375 154.605469 L 715.085938 510.347656 L 734.855469 505.046875 L 639.507812 149.304688 Z M 143.773438 197.449219 L 149.070312 217.210938 L 307.253906 174.8125 L 301.953125 155.050781 Z M 307.253906 174.8125 L 312.550781 194.574219 L 332.320312 189.277344 L 327.023438 169.511719 Z M 134.59375 242.273438 L 154.367188 236.972656 L 149.070312 217.210938 L 129.296875 222.511719 Z M 332.320312 189.277344 L 337.621094 209.039062 L 357.390625 203.738281 L 352.09375 183.976562 Z M 136.011719 326.625 L 155.785156 321.328125 L 134.59375 242.273438 L 114.824219 247.574219 Z M 136.011719 326.625 " fill-opacity="0.5" fill-rule="nonzero"/></g></g></g></g></svg>