<svg xmlns="http://www.w3.org/2000/svg" xmlns:xlink="http://www.w3.org/1999/xlink" width="1080" zoomAndPan="magnify" viewBox="0 0 810 809.999993" height="1080" preserveAspectRatio="xMidYMid meet" version="1.0"><defs><clipPath id="3bc5e75602"><path d="M 58.523438 219.945312 L 768.335938 219.945312 L 768.335938 607.007812 L 58.523438 607.007812 Z M 58.523438 219.945312 " clip-rule="nonzero"/></clipPath><clipPath id="49c9e44d62"><path d="M 0.523438 0.945312 L 710 0.945312 L 710 388.007812 L 0.523438 388.007812 Z M 0.523438 0.945312 " clip-rule="nonzero"/></clipPath><clipPath id="12edbf92f2"><rect x="0" width="711" y="0" height="389"/></clipPath><clipPath id="9806dac0b3"><path d="M 58.523438 219.945312 L 768.023438 219.945312 L 768.023438 606.941406 L 58.523438 606.941406 Z M 58.523438 219.945312 " clip-rule="nonzero"/></clipPath><clipPath id="390e8650d2"><path d="M 41.664062 202.992188 L 751.476562 202.992188 L 751.476562 590.054688 L 41.664062 590.054688 Z M 41.664062 202.992188 " clip-rule="nonzero"/></clipPath><clipPath id="85ad530a6e"><path d="M 0.664062 0.992188 L 710 0.992188 L 710 388.054688 L 0.664062 388.054688 Z M 0.664062 0.992188 " clip-rule="nonzero"/></clipPath><clipPath id="a851e3ad1a"><rect x="0" width="711" y="0" height="389"/></clipPath><clipPath id="8ad7f623f6"><path d="M 41.664062 202.992188 L 751.164062 202.992188 L 751.164062 589.992188 L 41.664062 589.992188 Z M 41.664062 202.992188 " clip-rule="nonzero"/></clipPath></defs><rect x="-81" width="972" fill="#ffffff" y="-80.999999" height="971.999992" fill-opacity="1"/><rect x="-81" width="972" fill="#ffffff" y="-80.999999" height="971.999992" fill-opacity="1"/><g clip-path="url(#3bc5e75602)"><g transform="matrix(1, 0, 0, 1, 58, 219)"><g clip-path="url(#12edbf92f2)"><g clip-path="url(#49c9e44d62)"><path fill="#000000" d="M 0.523438 0.945312 L 709.632812 0.945312 L 709.632812 388.007812 L 0.523438 388.007812 Z M 0.523438 0.945312 " fill-opacity="1" fill-rule="nonzero"/></g></g></g></g><g clip-path="url(#9806dac0b3)"><path stroke-linecap="butt" transform="matrix(0.75, 0, 0, 0.75, 58.523185, 219.943367)" fill="none" stroke-linejoin="miter" d="M 0.000337259 0.00259355 L 946.406695 0.00259355 L 946.406695 516.075569 L 0.000337259 516.075569 Z M 0.000337259 0.00259355 " stroke="#000000" stroke-width="10" stroke-opacity="1" stroke-miterlimit="4"/></g><g clip-path="url(#390e8650d2)"><g transform="matrix(1, 0, 0, 1, 41, 202)"><g clip-path="url(#a851e3ad1a)"><g clip-path="url(#85ad530a6e)"><path fill="#8b8677" d="M 0.664062 0.992188 L 709.773438 0.992188 L 709.773438 388.054688 L 0.664062 388.054688 Z M 0.664062 0.992188 " fill-opacity="1" fill-rule="nonzero"/></g></g></g></g><g clip-path="url(#8ad7f623f6)"><path stroke-linecap="butt" transform="matrix(0.75, 0, 0, 0.75, 41.662921, 202.993368)" fill="none" stroke-linejoin="miter" d="M 0.00152146 -0.00157425 L 946.40788 -0.00157425 L 946.40788 516.07661 L 0.00152146 516.07661 Z M 0.00152146 -0.00157425 " stroke="#000000" stroke-width="10" stroke-opacity="1" stroke-miterlimit="4"/></g></svg>