<svg xmlns="http://www.w3.org/2000/svg" xmlns:xlink="http://www.w3.org/1999/xlink" width="1080" zoomAndPan="magnify" viewBox="0 0 810 809.999993" height="1080" preserveAspectRatio="xMidYMid meet" version="1.0"><defs><clipPath id="a337be075f"><path d="M 127 57 L 740 57 L 740 764 L 127 764 Z M 127 57 " clip-rule="nonzero"/></clipPath><clipPath id="2b590536c6"><path d="M -101.636719 173.582031 L 520.960938 -60.78125 L 755.328125 561.816406 L 132.726562 796.179688 Z M -101.636719 173.582031 " clip-rule="nonzero"/></clipPath><clipPath id="7d808afb3a"><path d="M -101.636719 173.582031 L 520.960938 -60.78125 L 755.328125 561.816406 L 132.726562 796.179688 Z M -101.636719 173.582031 " clip-rule="nonzero"/></clipPath><clipPath id="69e108f050"><path d="M -101.636719 173.582031 L 520.960938 -60.78125 L 755.328125 561.816406 L 132.726562 796.179688 Z M -101.636719 173.582031 " clip-rule="nonzero"/></clipPath><clipPath id="302873abb8"><path d="M 97 73 L 667 73 L 667 738 L 97 738 Z M 97 73 " clip-rule="nonzero"/></clipPath><clipPath id="e898ce44fb"><path d="M -101.636719 173.582031 L 520.960938 -60.78125 L 755.328125 561.816406 L 132.726562 796.179688 Z M -101.636719 173.582031 " clip-rule="nonzero"/></clipPath><clipPath id="064895c8a1"><path d="M -101.636719 173.582031 L 520.960938 -60.78125 L 755.328125 561.816406 L 132.726562 796.179688 Z M -101.636719 173.582031 " clip-rule="nonzero"/></clipPath><clipPath id="613644dd02"><path d="M -101.636719 173.582031 L 520.960938 -60.78125 L 755.328125 561.816406 L 132.726562 796.179688 Z M -101.636719 173.582031 " clip-rule="nonzero"/></clipPath><clipPath id="750b8089c9"><path d="M 76 52 L 689 52 L 689 759 L 76 759 Z M 76 52 " clip-rule="nonzero"/></clipPath><clipPath id="6be4b358d7"><path d="M -101.636719 173.582031 L 520.960938 -60.78125 L 755.328125 561.816406 L 132.726562 796.179688 Z M -101.636719 173.582031 " clip-rule="nonzero"/></clipPath><clipPath id="47bc845d98"><path d="M -101.636719 173.582031 L 520.960938 -60.78125 L 755.328125 561.816406 L 132.726562 796.179688 Z M -101.636719 173.582031 " clip-rule="nonzero"/></clipPath><clipPath id="9777a955cd"><path d="M -101.636719 173.582031 L 520.960938 -60.78125 L 755.328125 561.816406 L 132.726562 796.179688 Z M -101.636719 173.582031 " clip-rule="nonzero"/></clipPath><clipPath id="5e678300a9"><path d="M 97 119 L 654 119 L 654 738 L 97 738 Z M 97 119 " clip-rule="nonzero"/></clipPath><clipPath id="65260dca2a"><path d="M -101.636719 173.582031 L 520.960938 -60.78125 L 755.328125 561.816406 L 132.726562 796.179688 Z M -101.636719 173.582031 " clip-rule="nonzero"/></clipPath><clipPath id="36f23e90c0"><path d="M -101.636719 173.582031 L 520.960938 -60.78125 L 755.328125 561.816406 L 132.726562 796.179688 Z M -101.636719 173.582031 " clip-rule="nonzero"/></clipPath><clipPath id="93f0925703"><path d="M -101.636719 173.582031 L 520.960938 -60.78125 L 755.328125 561.816406 L 132.726562 796.179688 Z M -101.636719 173.582031 " clip-rule="nonzero"/></clipPath><clipPath id="c19362e73d"><path d="M 612 435 L 667 435 L 667 530 L 612 530 Z M 612 435 " clip-rule="nonzero"/></clipPath><clipPath id="9ee08821d9"><path d="M -101.636719 173.582031 L 520.960938 -60.78125 L 755.328125 561.816406 L 132.726562 796.179688 Z M -101.636719 173.582031 " clip-rule="nonzero"/></clipPath><clipPath id="2385572347"><path d="M -101.636719 173.582031 L 520.960938 -60.78125 L 755.328125 561.816406 L 132.726562 796.179688 Z M -101.636719 173.582031 " clip-rule="nonzero"/></clipPath><clipPath id="dab0db8756"><path d="M -101.636719 173.582031 L 520.960938 -60.78125 L 755.328125 561.816406 L 132.726562 796.179688 Z M -101.636719 173.582031 " clip-rule="nonzero"/></clipPath><clipPath id="5ec9c6840a"><path d="M 575 400 L 613 400 L 613 452 L 575 452 Z M 575 400 " clip-rule="nonzero"/></clipPath><clipPath id="cb29bfdad9"><path d="M -101.636719 173.582031 L 520.960938 -60.78125 L 755.328125 561.816406 L 132.726562 796.179688 Z M -101.636719 173.582031 " clip-rule="nonzero"/></clipPath><clipPath id="a32323a878"><path d="M -101.636719 173.582031 L 520.960938 -60.78125 L 755.328125 561.816406 L 132.726562 796.179688 Z M -101.636719 173.582031 " clip-rule="nonzero"/></clipPath><clipPath id="9c9939c982"><path d="M -101.636719 173.582031 L 520.960938 -60.78125 L 755.328125 561.816406 L 132.726562 796.179688 Z M -101.636719 173.582031 " clip-rule="nonzero"/></clipPath><clipPath id="5377b01285"><path d="M 537 366 L 576 366 L 576 418 L 537 418 Z M 537 366 " clip-rule="nonzero"/></clipPath><clipPath id="cbaa12f82f"><path d="M -101.636719 173.582031 L 520.960938 -60.78125 L 755.328125 561.816406 L 132.726562 796.179688 Z M -101.636719 173.582031 " clip-rule="nonzero"/></clipPath><clipPath id="38e27bea76"><path d="M -101.636719 173.582031 L 520.960938 -60.78125 L 755.328125 561.816406 L 132.726562 796.179688 Z M -101.636719 173.582031 " clip-rule="nonzero"/></clipPath><clipPath id="795657b604"><path d="M -101.636719 173.582031 L 520.960938 -60.78125 L 755.328125 561.816406 L 132.726562 796.179688 Z M -101.636719 173.582031 " clip-rule="nonzero"/></clipPath><clipPath id="285ec35dcd"><path d="M 499 331 L 538 331 L 538 383 L 499 383 Z M 499 331 " clip-rule="nonzero"/></clipPath><clipPath id="275e3648bb"><path d="M -101.636719 173.582031 L 520.960938 -60.78125 L 755.328125 561.816406 L 132.726562 796.179688 Z M -101.636719 173.582031 " clip-rule="nonzero"/></clipPath><clipPath id="5126ddbaf7"><path d="M -101.636719 173.582031 L 520.960938 -60.78125 L 755.328125 561.816406 L 132.726562 796.179688 Z M -101.636719 173.582031 " clip-rule="nonzero"/></clipPath><clipPath id="2cc212b41a"><path d="M -101.636719 173.582031 L 520.960938 -60.78125 L 755.328125 561.816406 L 132.726562 796.179688 Z M -101.636719 173.582031 " clip-rule="nonzero"/></clipPath><clipPath id="7ea9ca39df"><path d="M 462 296 L 500 296 L 500 348 L 462 348 Z M 462 296 " clip-rule="nonzero"/></clipPath><clipPath id="702a9eb6f8"><path d="M -101.636719 173.582031 L 520.960938 -60.78125 L 755.328125 561.816406 L 132.726562 796.179688 Z M -101.636719 173.582031 " clip-rule="nonzero"/></clipPath><clipPath id="c5528b9b03"><path d="M -101.636719 173.582031 L 520.960938 -60.78125 L 755.328125 561.816406 L 132.726562 796.179688 Z M -101.636719 173.582031 " clip-rule="nonzero"/></clipPath><clipPath id="1e6e2f0806"><path d="M -101.636719 173.582031 L 520.960938 -60.78125 L 755.328125 561.816406 L 132.726562 796.179688 Z M -101.636719 173.582031 " clip-rule="nonzero"/></clipPath><clipPath id="6deaefaf8e"><path d="M 424 261 L 463 261 L 463 313 L 424 313 Z M 424 261 " clip-rule="nonzero"/></clipPath><clipPath id="cd050eec4f"><path d="M -101.636719 173.582031 L 520.960938 -60.78125 L 755.328125 561.816406 L 132.726562 796.179688 Z M -101.636719 173.582031 " clip-rule="nonzero"/></clipPath><clipPath id="c76b0c3622"><path d="M -101.636719 173.582031 L 520.960938 -60.78125 L 755.328125 561.816406 L 132.726562 796.179688 Z M -101.636719 173.582031 " clip-rule="nonzero"/></clipPath><clipPath id="18222b2076"><path d="M -101.636719 173.582031 L 520.960938 -60.78125 L 755.328125 561.816406 L 132.726562 796.179688 Z M -101.636719 173.582031 " clip-rule="nonzero"/></clipPath><clipPath id="67327272eb"><path d="M 387 226 L 425 226 L 425 278 L 387 278 Z M 387 226 " clip-rule="nonzero"/></clipPath><clipPath id="890c17dae7"><path d="M -101.636719 173.582031 L 520.960938 -60.78125 L 755.328125 561.816406 L 132.726562 796.179688 Z M -101.636719 173.582031 " clip-rule="nonzero"/></clipPath><clipPath id="bbcb8100b7"><path d="M -101.636719 173.582031 L 520.960938 -60.78125 L 755.328125 561.816406 L 132.726562 796.179688 Z M -101.636719 173.582031 " clip-rule="nonzero"/></clipPath><clipPath id="1f56baad5d"><path d="M -101.636719 173.582031 L 520.960938 -60.78125 L 755.328125 561.816406 L 132.726562 796.179688 Z M -101.636719 173.582031 " clip-rule="nonzero"/></clipPath><clipPath id="1636ad9f50"><path d="M 349 191 L 388 191 L 388 243 L 349 243 Z M 349 191 " clip-rule="nonzero"/></clipPath><clipPath id="38d4f7384f"><path d="M -101.636719 173.582031 L 520.960938 -60.78125 L 755.328125 561.816406 L 132.726562 796.179688 Z M -101.636719 173.582031 " clip-rule="nonzero"/></clipPath><clipPath id="08cc611617"><path d="M -101.636719 173.582031 L 520.960938 -60.78125 L 755.328125 561.816406 L 132.726562 796.179688 Z M -101.636719 173.582031 " clip-rule="nonzero"/></clipPath><clipPath id="07a1ab2f6b"><path d="M -101.636719 173.582031 L 520.960938 -60.78125 L 755.328125 561.816406 L 132.726562 796.179688 Z M -101.636719 173.582031 " clip-rule="nonzero"/></clipPath><clipPath id="70363c705e"><path d="M 311 156 L 350 156 L 350 208 L 311 208 Z M 311 156 " clip-rule="nonzero"/></clipPath><clipPath id="942491e29c"><path d="M -101.636719 173.582031 L 520.960938 -60.78125 L 755.328125 561.816406 L 132.726562 796.179688 Z M -101.636719 173.582031 " clip-rule="nonzero"/></clipPath><clipPath id="d2fe6c98eb"><path d="M -101.636719 173.582031 L 520.960938 -60.78125 L 755.328125 561.816406 L 132.726562 796.179688 Z M -101.636719 173.582031 " clip-rule="nonzero"/></clipPath><clipPath id="09e96bd055"><path d="M -101.636719 173.582031 L 520.960938 -60.78125 L 755.328125 561.816406 L 132.726562 796.179688 Z M -101.636719 173.582031 " clip-rule="nonzero"/></clipPath><clipPath id="01df8438bf"><path d="M 274 122 L 312 122 L 312 174 L 274 174 Z M 274 122 " clip-rule="nonzero"/></clipPath><clipPath id="24cf600729"><path d="M -101.636719 173.582031 L 520.960938 -60.78125 L 755.328125 561.816406 L 132.726562 796.179688 Z M -101.636719 173.582031 " clip-rule="nonzero"/></clipPath><clipPath id="0faa898082"><path d="M -101.636719 173.582031 L 520.960938 -60.78125 L 755.328125 561.816406 L 132.726562 796.179688 Z M -101.636719 173.582031 " clip-rule="nonzero"/></clipPath><clipPath id="02e08d8d16"><path d="M -101.636719 173.582031 L 520.960938 -60.78125 L 755.328125 561.816406 L 132.726562 796.179688 Z M -101.636719 173.582031 " clip-rule="nonzero"/></clipPath><clipPath id="4f27990074"><path d="M 236 87 L 275 87 L 275 139 L 236 139 Z M 236 87 " clip-rule="nonzero"/></clipPath><clipPath id="5f29bf7fdc"><path d="M -101.636719 173.582031 L 520.960938 -60.78125 L 755.328125 561.816406 L 132.726562 796.179688 Z M -101.636719 173.582031 " clip-rule="nonzero"/></clipPath><clipPath id="8f30318431"><path d="M -101.636719 173.582031 L 520.960938 -60.78125 L 755.328125 561.816406 L 132.726562 796.179688 Z M -101.636719 173.582031 " clip-rule="nonzero"/></clipPath><clipPath id="edb0611992"><path d="M -101.636719 173.582031 L 520.960938 -60.78125 L 755.328125 561.816406 L 132.726562 796.179688 Z M -101.636719 173.582031 " clip-rule="nonzero"/></clipPath><clipPath id="ba01def3fc"><path d="M 164 73 L 237 73 L 237 120 L 164 120 Z M 164 73 " clip-rule="nonzero"/></clipPath><clipPath id="3331927063"><path d="M -101.636719 173.582031 L 520.960938 -60.78125 L 755.328125 561.816406 L 132.726562 796.179688 Z M -101.636719 173.582031 " clip-rule="nonzero"/></clipPath><clipPath id="7247e7f66c"><path d="M -101.636719 173.582031 L 520.960938 -60.78125 L 755.328125 561.816406 L 132.726562 796.179688 Z M -101.636719 173.582031 " clip-rule="nonzero"/></clipPath><clipPath id="1a5b4c5a1f"><path d="M -101.636719 173.582031 L 520.960938 -60.78125 L 755.328125 561.816406 L 132.726562 796.179688 Z M -101.636719 173.582031 " clip-rule="nonzero"/></clipPath></defs><rect x="-81" width="972" fill="#ffffff" y="-80.999999" height="971.999992" fill-opacity="1"/><rect x="-81" width="972" fill="#ffffff" y="-80.999999" height="971.999992" fill-opacity="1"/><g clip-path="url(#a337be075f)"><g clip-path="url(#2b590536c6)"><g clip-path="url(#7d808afb3a)"><g clip-path="url(#69e108f050)"><path fill="#000000" d="M 685.367188 441.085938 L 677.285156 419.617188 L 669.207031 398.148438 L 647.738281 406.230469 L 639.65625 384.761719 L 631.574219 363.289062 L 610.105469 371.371094 L 593.941406 328.433594 L 572.472656 336.515625 L 556.308594 293.578125 L 534.839844 301.660156 L 518.675781 258.722656 L 497.207031 266.804688 L 489.128906 245.335938 L 481.046875 223.863281 L 459.578125 231.945312 L 443.414062 189.007812 L 421.945312 197.089844 L 405.78125 154.152344 L 384.3125 162.234375 L 368.148438 119.296875 L 346.679688 127.378906 L 338.597656 105.910156 L 330.515625 84.4375 L 309.046875 92.519531 L 300.96875 71.050781 L 279.5 79.132812 L 271.417969 57.664062 L 228.480469 73.828125 L 207.007812 81.910156 L 215.089844 103.378906 L 193.621094 111.460938 L 201.703125 132.929688 L 180.234375 141.007812 L 188.316406 162.480469 L 196.398438 183.949219 L 174.929688 192.027344 L 183.011719 213.5 L 191.089844 234.96875 L 169.621094 243.046875 L 177.703125 264.519531 L 185.785156 285.988281 L 164.316406 294.066406 L 172.398438 315.539062 L 180.480469 337.007812 L 159.011719 345.085938 L 167.09375 366.554688 L 175.171875 388.027344 L 153.703125 396.105469 L 161.785156 417.574219 L 169.867188 439.046875 L 148.398438 447.125 L 156.480469 468.59375 L 164.5625 490.066406 L 143.09375 498.144531 L 159.257812 541.082031 L 137.785156 549.164062 L 153.949219 592.101562 L 132.480469 600.183594 L 148.644531 643.121094 L 127.175781 651.203125 L 143.339844 694.140625 L 151.417969 715.609375 L 159.5 737.082031 L 180.96875 729 L 189.050781 750.46875 L 210.519531 742.386719 L 218.601562 763.855469 L 304.476562 731.527344 L 325.945312 723.449219 L 368.882812 707.285156 L 390.355469 699.203125 L 454.761719 674.957031 L 476.230469 666.878906 L 605.042969 618.386719 L 626.511719 610.308594 L 712.386719 577.980469 L 704.308594 556.511719 L 725.777344 548.429688 L 717.695312 526.960938 L 739.164062 518.878906 L 706.835938 433.003906 Z M 685.367188 441.085938 " fill-opacity="0.3" fill-rule="nonzero"/></g></g></g></g><g clip-path="url(#302873abb8)"><g clip-path="url(#e898ce44fb)"><g clip-path="url(#064895c8a1)"><g clip-path="url(#613644dd02)"><path fill="#fdff00" d="M 207.007812 81.910156 L 228.480469 73.828125 L 258.027344 87.214844 L 295.660156 122.070312 L 634.347656 435.78125 L 666.675781 521.65625 L 653.289062 551.207031 L 159.5 737.082031 L 129.949219 723.691406 L 97.625 637.816406 L 150.683594 127.621094 L 164.070312 98.070312 Z M 207.007812 81.910156 " fill-opacity="1" fill-rule="nonzero"/></g></g></g></g><g clip-path="url(#750b8089c9)"><g clip-path="url(#6be4b358d7)"><g clip-path="url(#47bc845d98)"><g clip-path="url(#9777a955cd)"><path fill="#000000" d="M 185.539062 89.992188 L 164.070312 98.070312 L 155.988281 76.601562 L 177.460938 68.519531 L 198.929688 60.441406 L 220.398438 52.359375 L 228.480469 73.828125 L 207.007812 81.910156 Z M 164.070312 98.070312 L 142.601562 106.152344 L 150.683594 127.621094 L 172.152344 119.539062 Z M 258.027344 87.214844 L 249.949219 65.746094 L 228.480469 73.828125 L 236.558594 95.296875 Z M 158.765625 149.089844 L 150.683594 127.621094 L 129.214844 135.703125 L 145.378906 178.640625 L 166.847656 170.558594 Z M 274.191406 130.152344 L 295.660156 122.070312 L 287.578125 100.601562 L 279.5 79.132812 L 258.027344 87.214844 Z M 153.460938 200.109375 L 145.378906 178.640625 L 123.910156 186.722656 L 140.074219 229.660156 L 161.542969 221.578125 Z M 311.824219 165.007812 L 333.292969 156.925781 L 317.128906 113.988281 L 295.660156 122.070312 Z M 148.152344 251.128906 L 140.074219 229.660156 L 118.601562 237.742188 L 134.765625 280.679688 L 156.234375 272.597656 Z M 349.457031 199.867188 L 370.925781 191.785156 L 354.761719 148.847656 L 333.292969 156.925781 L 341.375 178.398438 Z M 285.050781 224.109375 L 263.582031 232.191406 L 242.109375 240.273438 L 220.640625 248.355469 L 228.722656 269.824219 L 207.253906 277.90625 L 247.664062 385.25 L 269.132812 377.167969 L 277.210938 398.636719 L 293.375 441.574219 L 314.84375 433.492188 L 322.925781 454.964844 L 339.089844 497.902344 L 360.558594 489.820312 L 336.3125 425.414062 L 357.78125 417.332031 L 349.699219 395.863281 L 341.621094 374.394531 L 333.539062 352.925781 L 355.007812 344.84375 L 330.761719 280.4375 L 322.679688 258.964844 L 314.601562 237.496094 L 293.128906 245.578125 Z M 142.847656 302.148438 L 134.765625 280.679688 L 113.296875 288.761719 L 129.460938 331.699219 L 150.929688 323.617188 Z M 387.089844 234.722656 L 408.558594 226.640625 L 392.394531 183.703125 L 370.925781 191.785156 Z M 137.542969 353.167969 L 129.460938 331.699219 L 107.992188 339.78125 L 124.15625 382.71875 L 145.625 374.636719 Z M 424.71875 269.578125 L 446.1875 261.496094 L 438.109375 240.027344 L 430.027344 218.558594 L 408.558594 226.640625 L 416.636719 248.109375 Z M 132.234375 404.1875 L 124.15625 382.71875 L 102.683594 390.800781 L 118.847656 433.738281 L 140.316406 425.65625 Z M 462.351562 304.433594 L 483.820312 296.355469 L 475.738281 274.882812 L 467.65625 253.414062 L 446.1875 261.496094 Z M 126.929688 455.207031 L 118.847656 433.738281 L 97.378906 441.820312 L 113.542969 484.757812 L 135.011719 476.675781 Z M 499.984375 339.292969 L 521.453125 331.210938 L 505.289062 288.273438 L 483.820312 296.355469 Z M 121.625 506.226562 L 113.542969 484.757812 L 92.074219 492.839844 L 108.238281 535.777344 L 129.707031 527.695312 Z M 537.617188 374.148438 L 559.085938 366.066406 L 542.921875 323.128906 L 521.453125 331.210938 Z M 116.316406 557.246094 L 108.238281 535.777344 L 86.765625 543.859375 L 102.929688 586.796875 L 124.398438 578.714844 Z M 575.246094 409.003906 L 596.71875 400.921875 L 580.554688 357.984375 L 559.085938 366.066406 L 567.167969 387.535156 Z M 111.011719 608.265625 L 102.929688 586.796875 L 81.460938 594.878906 L 97.625 637.816406 L 119.09375 629.734375 Z M 368.640625 511.289062 L 347.171875 519.371094 L 355.253906 540.839844 L 333.785156 548.921875 L 341.863281 570.390625 L 363.332031 562.308594 L 371.414062 583.777344 L 392.882812 575.695312 L 384.800781 554.226562 L 406.273438 546.144531 L 398.191406 524.675781 L 376.722656 532.757812 Z M 612.878906 443.859375 L 634.347656 435.78125 L 626.265625 414.308594 L 618.1875 392.839844 L 596.71875 400.921875 L 604.796875 422.390625 Z M 634.347656 435.78125 L 666.675781 521.65625 L 688.144531 513.574219 L 655.816406 427.699219 Z M 113.789062 680.753906 L 97.625 637.816406 L 76.15625 645.898438 L 92.320312 688.835938 L 100.398438 710.304688 L 108.480469 731.773438 L 129.949219 723.691406 L 121.867188 702.222656 Z M 129.949219 723.691406 L 138.03125 745.160156 L 159.5 737.082031 L 151.417969 715.609375 Z M 653.289062 551.207031 L 674.757812 543.125 L 666.675781 521.65625 L 645.207031 529.738281 Z M 610.347656 567.367188 L 481.535156 615.859375 L 460.066406 623.9375 L 331.253906 672.429688 L 309.785156 680.507812 L 266.847656 696.671875 L 245.375 704.753906 L 159.5 737.082031 L 167.582031 758.550781 L 296.394531 710.058594 L 317.867188 701.980469 L 446.679688 653.488281 L 468.148438 645.410156 L 618.429688 588.835938 L 639.898438 580.757812 L 661.367188 572.675781 L 653.289062 551.207031 L 631.820312 559.289062 Z M 610.347656 567.367188 " fill-opacity="1" fill-rule="nonzero"/></g></g></g></g><g clip-path="url(#5e678300a9)"><g clip-path="url(#65260dca2a)"><g clip-path="url(#36f23e90c0)"><g clip-path="url(#93f0925703)"><path fill="#000000" d="M 355.253906 540.839844 L 333.785156 548.921875 L 325.703125 527.453125 L 347.171875 519.371094 Z M 314.84375 433.492188 L 293.375 441.574219 L 301.457031 463.042969 L 322.925781 454.964844 Z M 269.132812 377.167969 L 247.664062 385.25 L 255.742188 406.71875 L 277.210938 398.636719 Z M 357.78125 417.332031 L 336.3125 425.414062 L 344.394531 446.882812 L 365.863281 438.800781 Z M 355.007812 344.84375 L 333.539062 352.925781 L 341.621094 374.394531 L 363.089844 366.3125 Z M 363.332031 562.308594 L 341.863281 570.390625 L 349.945312 591.859375 L 371.414062 583.777344 Z M 390.109375 503.207031 L 368.640625 511.289062 L 376.722656 532.757812 L 398.191406 524.675781 Z M 406.273438 546.144531 L 384.800781 554.226562 L 392.882812 575.695312 L 414.351562 567.613281 Z M 151.417969 715.609375 L 159.5 737.082031 L 653.289062 551.207031 L 645.207031 529.738281 Z M 97.625 637.816406 L 129.949219 723.691406 L 151.417969 715.609375 L 119.09375 629.734375 Z M 124.398438 578.714844 L 102.929688 586.796875 L 119.09375 629.734375 L 140.5625 621.652344 Z M 129.707031 527.695312 L 108.238281 535.777344 L 124.398438 578.714844 L 145.867188 570.632812 Z M 135.011719 476.675781 L 113.542969 484.757812 L 129.707031 527.695312 L 151.175781 519.613281 Z M 140.316406 425.65625 L 118.847656 433.738281 L 135.011719 476.675781 L 156.480469 468.59375 Z M 145.625 374.636719 L 124.15625 382.71875 L 140.316406 425.65625 L 161.785156 417.574219 Z M 150.929688 323.617188 L 129.460938 331.699219 L 145.625 374.636719 L 167.09375 366.554688 Z M 156.234375 272.597656 L 134.765625 280.679688 L 150.929688 323.617188 L 172.398438 315.539062 Z M 161.542969 221.578125 L 140.074219 229.660156 L 156.234375 272.597656 L 177.703125 264.519531 Z M 166.847656 170.558594 L 145.378906 178.640625 L 161.542969 221.578125 L 183.011719 213.5 Z M 172.152344 119.539062 L 150.683594 127.621094 L 166.847656 170.558594 L 188.316406 162.480469 Z M 172.152344 119.539062 " fill-opacity="0.3" fill-rule="nonzero"/></g></g></g></g><g clip-path="url(#c19362e73d)"><g clip-path="url(#9ee08821d9)"><g clip-path="url(#2385572347)"><g clip-path="url(#dab0db8756)"><path fill="#ffffff" d="M 612.878906 443.859375 L 634.347656 435.78125 L 666.675781 521.65625 L 645.207031 529.738281 Z M 612.878906 443.859375 " fill-opacity="0.5" fill-rule="nonzero"/></g></g></g></g><g clip-path="url(#5ec9c6840a)"><g clip-path="url(#cb29bfdad9)"><g clip-path="url(#a32323a878)"><g clip-path="url(#9c9939c982)"><path fill="#ffffff" d="M 575.246094 409.003906 L 596.71875 400.921875 L 612.878906 443.859375 L 591.410156 451.941406 Z M 575.246094 409.003906 " fill-opacity="0.5" fill-rule="nonzero"/></g></g></g></g><g clip-path="url(#5377b01285)"><g clip-path="url(#cbaa12f82f)"><g clip-path="url(#38e27bea76)"><g clip-path="url(#795657b604)"><path fill="#ffffff" d="M 537.617188 374.148438 L 559.085938 366.066406 L 575.246094 409.003906 L 553.777344 417.085938 Z M 537.617188 374.148438 " fill-opacity="0.5" fill-rule="nonzero"/></g></g></g></g><g clip-path="url(#285ec35dcd)"><g clip-path="url(#275e3648bb)"><g clip-path="url(#5126ddbaf7)"><g clip-path="url(#2cc212b41a)"><path fill="#ffffff" d="M 499.984375 339.292969 L 521.453125 331.210938 L 537.617188 374.148438 L 516.148438 382.230469 Z M 499.984375 339.292969 " fill-opacity="0.5" fill-rule="nonzero"/></g></g></g></g><g clip-path="url(#7ea9ca39df)"><g clip-path="url(#702a9eb6f8)"><g clip-path="url(#c5528b9b03)"><g clip-path="url(#1e6e2f0806)"><path fill="#ffffff" d="M 462.351562 304.433594 L 483.820312 296.355469 L 499.984375 339.292969 L 478.515625 347.371094 Z M 462.351562 304.433594 " fill-opacity="0.5" fill-rule="nonzero"/></g></g></g></g><g clip-path="url(#6deaefaf8e)"><g clip-path="url(#cd050eec4f)"><g clip-path="url(#c76b0c3622)"><g clip-path="url(#18222b2076)"><path fill="#ffffff" d="M 424.71875 269.578125 L 446.1875 261.496094 L 462.351562 304.433594 L 440.882812 312.515625 Z M 424.71875 269.578125 " fill-opacity="0.5" fill-rule="nonzero"/></g></g></g></g><g clip-path="url(#67327272eb)"><g clip-path="url(#890c17dae7)"><g clip-path="url(#bbcb8100b7)"><g clip-path="url(#1f56baad5d)"><path fill="#ffffff" d="M 387.089844 234.722656 L 408.558594 226.640625 L 424.71875 269.578125 L 403.25 277.660156 Z M 387.089844 234.722656 " fill-opacity="0.5" fill-rule="nonzero"/></g></g></g></g><g clip-path="url(#1636ad9f50)"><g clip-path="url(#38d4f7384f)"><g clip-path="url(#08cc611617)"><g clip-path="url(#07a1ab2f6b)"><path fill="#ffffff" d="M 349.457031 199.867188 L 370.925781 191.785156 L 387.089844 234.722656 L 365.617188 242.804688 Z M 349.457031 199.867188 " fill-opacity="0.5" fill-rule="nonzero"/></g></g></g></g><g clip-path="url(#70363c705e)"><g clip-path="url(#942491e29c)"><g clip-path="url(#d2fe6c98eb)"><g clip-path="url(#09e96bd055)"><path fill="#ffffff" d="M 311.824219 165.007812 L 333.292969 156.925781 L 349.457031 199.867188 L 327.988281 207.945312 Z M 311.824219 165.007812 " fill-opacity="0.5" fill-rule="nonzero"/></g></g></g></g><g clip-path="url(#01df8438bf)"><g clip-path="url(#24cf600729)"><g clip-path="url(#0faa898082)"><g clip-path="url(#02e08d8d16)"><path fill="#ffffff" d="M 274.191406 130.152344 L 295.660156 122.070312 L 311.824219 165.007812 L 290.355469 173.089844 Z M 274.191406 130.152344 " fill-opacity="0.5" fill-rule="nonzero"/></g></g></g></g><g clip-path="url(#4f27990074)"><g clip-path="url(#5f29bf7fdc)"><g clip-path="url(#8f30318431)"><g clip-path="url(#edb0611992)"><path fill="#ffffff" d="M 236.558594 95.296875 L 258.027344 87.214844 L 274.191406 130.152344 L 252.722656 138.234375 Z M 236.558594 95.296875 " fill-opacity="0.5" fill-rule="nonzero"/></g></g></g></g><g clip-path="url(#ba01def3fc)"><g clip-path="url(#3331927063)"><g clip-path="url(#7247e7f66c)"><g clip-path="url(#1a5b4c5a1f)"><path fill="#ffffff" d="M 164.070312 98.070312 L 228.480469 73.828125 L 236.558594 95.296875 L 172.152344 119.539062 Z M 164.070312 98.070312 " fill-opacity="0.5" fill-rule="nonzero"/></g></g></g></g></svg>