<svg xmlns="http://www.w3.org/2000/svg" xmlns:xlink="http://www.w3.org/1999/xlink" width="1080" zoomAndPan="magnify" viewBox="0 0 810 809.999993" height="1080" preserveAspectRatio="xMidYMid meet" version="1.0"><defs><clipPath id="5846f25503"><path d="M 92 67 L 768 67 L 768 743 L 92 743 Z M 92 67 " clip-rule="nonzero"/></clipPath><clipPath id="840d005e5c"><path d="M -14.234375 156.878906 L 660.992188 -11.894531 L 824.3125 641.503906 L 149.085938 810.277344 Z M -14.234375 156.878906 " clip-rule="nonzero"/></clipPath><clipPath id="13a56439e3"><path d="M -14.234375 156.878906 L 660.992188 -11.894531 L 824.3125 641.503906 L 149.085938 810.277344 Z M -14.234375 156.878906 " clip-rule="nonzero"/></clipPath><clipPath id="18a7d6a962"><path d="M -14.234375 156.878906 L 660.992188 -11.894531 L 824.3125 641.503906 L 149.085938 810.277344 Z M -14.234375 156.878906 " clip-rule="nonzero"/></clipPath><clipPath id="55992626d2"><path d="M 64 78 L 695 78 L 695 709 L 64 709 Z M 64 78 " clip-rule="nonzero"/></clipPath><clipPath id="279c978812"><path d="M -14.234375 156.878906 L 660.992188 -11.894531 L 824.3125 641.503906 L 149.085938 810.277344 Z M -14.234375 156.878906 " clip-rule="nonzero"/></clipPath><clipPath id="4cdc6cb30e"><path d="M -14.234375 156.878906 L 660.992188 -11.894531 L 824.3125 641.503906 L 149.085938 810.277344 Z M -14.234375 156.878906 " clip-rule="nonzero"/></clipPath><clipPath id="b4c2410b97"><path d="M -14.234375 156.878906 L 660.992188 -11.894531 L 824.3125 641.503906 L 149.085938 810.277344 Z M -14.234375 156.878906 " clip-rule="nonzero"/></clipPath><clipPath id="78e685f722"><path d="M 64 145 L 543 145 L 543 709 L 64 709 Z M 64 145 " clip-rule="nonzero"/></clipPath><clipPath id="f424dd5a5f"><path d="M -14.234375 156.878906 L 660.992188 -11.894531 L 824.3125 641.503906 L 149.085938 810.277344 Z M -14.234375 156.878906 " clip-rule="nonzero"/></clipPath><clipPath id="63f8175c2d"><path d="M -14.234375 156.878906 L 660.992188 -11.894531 L 824.3125 641.503906 L 149.085938 810.277344 Z M -14.234375 156.878906 " clip-rule="nonzero"/></clipPath><clipPath id="538f10ec10"><path d="M -14.234375 156.878906 L 660.992188 -11.894531 L 824.3125 641.503906 L 149.085938 810.277344 Z M -14.234375 156.878906 " clip-rule="nonzero"/></clipPath><clipPath id="e97c19a7a0"><path d="M 42 55 L 718 55 L 718 732 L 42 732 Z M 42 55 " clip-rule="nonzero"/></clipPath><clipPath id="70ec18ceb6"><path d="M -14.234375 156.878906 L 660.992188 -11.894531 L 824.3125 641.503906 L 149.085938 810.277344 Z M -14.234375 156.878906 " clip-rule="nonzero"/></clipPath><clipPath id="bd4cc368b0"><path d="M -14.234375 156.878906 L 660.992188 -11.894531 L 824.3125 641.503906 L 149.085938 810.277344 Z M -14.234375 156.878906 " clip-rule="nonzero"/></clipPath><clipPath id="99e544e7e8"><path d="M -14.234375 156.878906 L 660.992188 -11.894531 L 824.3125 641.503906 L 149.085938 810.277344 Z M -14.234375 156.878906 " clip-rule="nonzero"/></clipPath><clipPath id="c01feb089a"><path d="M 165 179 L 594 179 L 594 608 L 165 608 Z M 165 179 " clip-rule="nonzero"/></clipPath><clipPath id="2a8668227e"><path d="M -14.234375 156.878906 L 660.992188 -11.894531 L 824.3125 641.503906 L 149.085938 810.277344 Z M -14.234375 156.878906 " clip-rule="nonzero"/></clipPath><clipPath id="14fcdcd238"><path d="M -14.234375 156.878906 L 660.992188 -11.894531 L 824.3125 641.503906 L 149.085938 810.277344 Z M -14.234375 156.878906 " clip-rule="nonzero"/></clipPath><clipPath id="be03920d88"><path d="M -14.234375 156.878906 L 660.992188 -11.894531 L 824.3125 641.503906 L 149.085938 810.277344 Z M -14.234375 156.878906 " clip-rule="nonzero"/></clipPath><clipPath id="1a4b2da4ae"><path d="M 216 78 L 695 78 L 695 642 L 216 642 Z M 216 78 " clip-rule="nonzero"/></clipPath><clipPath id="ec83e463de"><path d="M -14.234375 156.878906 L 660.992188 -11.894531 L 824.3125 641.503906 L 149.085938 810.277344 Z M -14.234375 156.878906 " clip-rule="nonzero"/></clipPath><clipPath id="cb7856dc04"><path d="M -14.234375 156.878906 L 660.992188 -11.894531 L 824.3125 641.503906 L 149.085938 810.277344 Z M -14.234375 156.878906 " clip-rule="nonzero"/></clipPath><clipPath id="80994c5844"><path d="M -14.234375 156.878906 L 660.992188 -11.894531 L 824.3125 641.503906 L 149.085938 810.277344 Z M -14.234375 156.878906 " clip-rule="nonzero"/></clipPath></defs><rect x="-81" width="972" fill="#ffffff" y="-80.999999" height="971.999992" fill-opacity="1"/><rect x="-81" width="972" fill="#ffffff" y="-80.999999" height="971.999992" fill-opacity="1"/><g clip-path="url(#5846f25503)"><g clip-path="url(#840d005e5c)"><g clip-path="url(#13a56439e3)"><g clip-path="url(#18a7d6a962)"><path fill="#000000" d="M 700.445312 241.621094 L 694.816406 219.101562 L 689.191406 196.585938 L 666.683594 202.210938 L 661.054688 179.695312 L 655.425781 157.175781 L 632.917969 162.804688 L 627.289062 140.285156 L 604.78125 145.910156 L 599.15625 123.394531 L 576.648438 129.019531 L 571.019531 106.503906 L 548.511719 112.128906 L 542.882812 89.613281 L 520.375 95.238281 L 514.746094 72.722656 L 492.238281 78.347656 L 469.734375 83.972656 L 447.226562 89.597656 L 441.597656 67.082031 L 374.074219 83.957031 L 351.566406 89.585938 L 261.535156 112.085938 L 267.164062 134.605469 L 199.640625 151.480469 L 205.269531 174 L 182.761719 179.625 L 188.390625 202.140625 L 165.882812 207.769531 L 171.511719 230.285156 L 149.003906 235.910156 L 154.632812 258.425781 L 132.125 264.054688 L 137.753906 286.570312 L 115.246094 292.195312 L 120.871094 314.714844 L 126.5 337.230469 L 103.992188 342.855469 L 109.621094 365.371094 L 115.25 387.890625 L 92.742188 393.515625 L 98.371094 416.03125 L 104 438.550781 L 109.625 461.066406 L 115.253906 483.582031 L 120.882812 506.101562 L 132.140625 551.132812 L 137.765625 573.652344 L 160.273438 568.027344 L 171.53125 613.058594 L 194.039062 607.433594 L 199.667969 629.949219 L 205.292969 652.46875 L 227.800781 646.84375 L 233.429688 669.359375 L 255.9375 663.734375 L 261.566406 686.25 L 284.074219 680.625 L 289.703125 703.140625 L 312.210938 697.515625 L 317.835938 720.03125 L 340.34375 714.40625 L 345.972656 736.921875 L 413.496094 720.046875 L 419.125 742.5625 L 486.648438 725.6875 L 509.15625 720.058594 L 531.660156 714.433594 L 599.183594 697.558594 L 593.554688 675.039062 L 661.078125 658.164062 L 655.449219 635.644531 L 677.957031 630.019531 L 672.332031 607.503906 L 694.839844 601.878906 L 689.210938 579.359375 L 711.71875 573.734375 L 706.089844 551.21875 L 728.597656 545.589844 L 722.96875 523.074219 L 745.476562 517.449219 L 739.847656 494.933594 L 734.21875 472.414062 L 756.726562 466.789062 L 751.097656 444.273438 L 745.472656 421.753906 L 767.980469 416.128906 L 762.351562 393.613281 L 756.722656 371.09375 L 745.464844 326.0625 L 739.839844 303.542969 L 728.582031 258.511719 L 722.953125 235.992188 Z M 700.445312 241.621094 " fill-opacity="0.3" fill-rule="nonzero"/></g></g></g></g><g clip-path="url(#55992626d2)"><g clip-path="url(#279c978812)"><g clip-path="url(#4cdc6cb30e)"><g clip-path="url(#b4c2410b97)"><path fill="#ed1c24" d="M 109.632812 556.761719 L 64.605469 376.625 L 75.859375 325.964844 L 87.109375 275.304688 L 154.625 162.734375 L 216.519531 123.339844 L 396.582031 78.332031 L 469.734375 83.972656 L 582.273438 151.539062 L 616.039062 190.945312 L 649.804688 230.355469 L 694.828125 410.488281 L 683.578125 461.148438 L 672.324219 511.808594 L 604.808594 624.378906 L 542.914062 663.773438 L 362.851562 708.78125 L 289.703125 703.140625 L 177.160156 635.578125 Z M 109.632812 556.761719 " fill-opacity="1" fill-rule="nonzero"/></g></g></g></g><g clip-path="url(#78e685f722)"><g clip-path="url(#f424dd5a5f)"><g clip-path="url(#63f8175c2d)"><g clip-path="url(#538f10ec10)"><path fill="#000000" d="M 227.777344 168.375 L 160.253906 185.25 L 154.625 162.734375 L 222.148438 145.855469 Z M 160.253906 185.25 L 137.746094 190.875 L 143.375 213.394531 L 165.882812 207.769531 Z M 143.375 213.394531 L 120.867188 219.019531 L 126.496094 241.535156 L 149.003906 235.910156 Z M 126.496094 241.535156 L 103.988281 247.160156 L 109.617188 269.679688 L 132.125 264.054688 Z M 115.246094 292.195312 L 109.617188 269.679688 L 87.109375 275.304688 L 92.738281 297.820312 L 98.363281 320.339844 L 120.871094 314.714844 Z M 103.992188 342.855469 L 98.363281 320.339844 L 75.859375 325.964844 L 81.484375 348.480469 L 87.113281 371 L 109.621094 365.371094 Z M 120.882812 506.101562 L 115.253906 483.582031 L 109.625 461.066406 L 104 438.550781 L 98.371094 416.03125 L 87.113281 371 L 64.605469 376.625 L 75.863281 421.65625 L 81.492188 444.175781 L 87.117188 466.691406 L 92.746094 489.210938 L 104.003906 534.242188 L 109.632812 556.761719 L 132.140625 551.132812 Z M 154.648438 545.507812 L 132.140625 551.132812 L 137.765625 573.652344 L 143.394531 596.167969 L 165.902344 590.542969 L 160.273438 568.027344 Z M 188.410156 584.917969 L 165.902344 590.542969 L 171.53125 613.058594 L 177.160156 635.578125 L 199.667969 629.949219 Z M 199.667969 629.949219 L 205.292969 652.46875 L 227.800781 646.84375 L 222.175781 624.324219 Z M 227.800781 646.84375 L 233.429688 669.359375 L 255.9375 663.734375 L 250.308594 641.214844 Z M 255.9375 663.734375 L 261.566406 686.25 L 284.074219 680.625 L 278.445312 658.105469 Z M 284.074219 680.625 L 289.703125 703.140625 L 357.222656 686.265625 L 351.597656 663.746094 Z M 357.222656 686.265625 L 362.851562 708.78125 L 542.914062 663.773438 L 537.285156 641.257812 Z M 357.222656 686.265625 " fill-opacity="0.3" fill-rule="nonzero"/></g></g></g></g><g clip-path="url(#e97c19a7a0)"><g clip-path="url(#70ec18ceb6)"><g clip-path="url(#bd4cc368b0)"><g clip-path="url(#99e544e7e8)"><path fill="#000000" d="M 239.027344 117.714844 L 216.519531 123.339844 L 210.894531 100.824219 L 233.402344 95.195312 L 255.90625 89.570312 L 323.429688 72.695312 L 345.9375 67.066406 L 390.953125 55.816406 L 396.582031 78.332031 L 374.074219 83.957031 L 351.566406 89.585938 L 261.535156 112.085938 Z M 199.640625 151.480469 L 222.148438 145.855469 L 216.519531 123.339844 L 194.011719 128.964844 L 171.507812 134.589844 L 149 140.214844 L 154.625 162.734375 L 177.132812 157.109375 Z M 424.71875 95.222656 L 469.734375 83.972656 L 464.105469 61.457031 L 396.582031 78.332031 L 402.210938 100.851562 Z M 154.625 162.734375 L 132.117188 168.359375 L 137.746094 190.875 L 160.253906 185.25 Z M 497.867188 100.863281 L 492.238281 78.347656 L 469.734375 83.972656 L 475.359375 106.488281 Z M 137.746094 190.875 L 115.238281 196.503906 L 120.867188 219.019531 L 143.375 213.394531 Z M 526.003906 117.753906 L 520.375 95.238281 L 497.867188 100.863281 L 503.496094 123.382812 Z M 120.867188 219.019531 L 98.359375 224.644531 L 103.988281 247.160156 L 126.496094 241.535156 Z M 554.140625 134.644531 L 548.511719 112.128906 L 526.003906 117.753906 L 531.632812 140.273438 Z M 103.988281 247.160156 L 81.480469 252.789062 L 87.109375 275.304688 L 109.617188 269.679688 Z M 582.273438 151.539062 L 576.648438 129.019531 L 554.140625 134.644531 L 559.769531 157.164062 Z M 92.738281 297.820312 L 87.109375 275.304688 L 64.601562 280.929688 L 70.230469 303.449219 L 75.859375 325.964844 L 98.363281 320.339844 Z M 593.53125 196.570312 L 616.039062 190.945312 L 610.410156 168.429688 L 604.78125 145.910156 L 582.273438 151.539062 Z M 81.484375 348.480469 L 75.859375 325.964844 L 53.351562 331.589844 L 58.976562 354.105469 L 64.605469 376.625 L 87.113281 371 Z M 627.296875 235.980469 L 649.804688 230.355469 L 644.175781 207.835938 L 638.546875 185.320312 L 616.039062 190.945312 L 621.667969 213.460938 Z M 649.804688 230.355469 L 655.429688 252.871094 L 661.058594 275.386719 L 666.6875 297.90625 L 677.945312 342.9375 L 683.570312 365.457031 L 694.828125 410.488281 L 717.335938 404.863281 L 711.707031 382.347656 L 706.078125 359.828125 L 700.453125 337.3125 L 694.824219 314.796875 L 689.195312 292.277344 L 677.9375 247.246094 L 672.308594 224.726562 Z M 98.375 511.726562 L 92.746094 489.210938 L 87.117188 466.691406 L 81.492188 444.175781 L 75.863281 421.65625 L 64.605469 376.625 L 42.097656 382.25 L 47.726562 404.765625 L 53.355469 427.285156 L 58.984375 449.800781 L 64.609375 472.316406 L 70.238281 494.835938 L 81.496094 539.867188 L 87.125 562.386719 L 109.632812 556.761719 L 104.003906 534.242188 Z M 132.140625 551.132812 L 109.632812 556.761719 L 115.257812 579.277344 L 120.886719 601.792969 L 143.394531 596.167969 L 137.765625 573.652344 Z M 677.949219 438.632812 L 683.578125 461.148438 L 706.085938 455.523438 L 700.457031 433.007812 L 694.828125 410.488281 L 672.320312 416.117188 Z M 165.902344 590.542969 L 143.394531 596.167969 L 149.023438 618.683594 L 154.652344 641.203125 L 177.160156 635.578125 L 171.53125 613.058594 Z M 666.699219 489.292969 L 672.324219 511.808594 L 694.832031 506.183594 L 689.203125 483.667969 L 683.578125 461.148438 L 661.070312 466.773438 Z M 177.160156 635.578125 L 182.789062 658.09375 L 205.292969 652.46875 L 199.667969 629.949219 Z M 655.445312 539.953125 L 677.953125 534.324219 L 672.324219 511.808594 L 649.816406 517.433594 Z M 205.292969 652.46875 L 210.921875 674.984375 L 233.429688 669.359375 L 227.800781 646.84375 Z M 638.566406 568.09375 L 661.074219 562.46875 L 655.445312 539.953125 L 632.9375 545.578125 Z M 233.429688 669.359375 L 239.058594 691.875 L 261.566406 686.25 L 255.9375 663.734375 Z M 621.6875 596.238281 L 644.195312 590.613281 L 638.566406 568.09375 L 616.058594 573.71875 Z M 261.566406 686.25 L 267.195312 708.765625 L 289.703125 703.140625 L 284.074219 680.625 Z M 604.808594 624.378906 L 627.316406 618.753906 L 621.6875 596.238281 L 599.179688 601.863281 Z M 334.71875 691.890625 L 289.703125 703.140625 L 295.328125 725.65625 L 362.851562 708.78125 L 357.222656 686.265625 Z M 559.792969 635.632812 L 537.285156 641.257812 L 542.914062 663.773438 L 610.4375 646.898438 L 604.808594 624.378906 L 582.300781 630.007812 Z M 497.898438 675.027344 L 407.867188 697.527344 L 385.359375 703.15625 L 362.851562 708.78125 L 368.480469 731.296875 L 436.003906 714.421875 L 458.511719 708.792969 L 548.542969 686.292969 L 542.914062 663.773438 L 520.40625 669.398438 Z M 497.898438 675.027344 " fill-opacity="1" fill-rule="nonzero"/></g></g></g></g><g clip-path="url(#c01feb089a)"><g clip-path="url(#2a8668227e)"><g clip-path="url(#14fcdcd238)"><g clip-path="url(#be03920d88)"><path fill="#ffffff" d="M 441.613281 354.164062 L 452.867188 399.195312 L 475.375 393.570312 L 481.003906 416.085938 L 503.511719 410.460938 L 509.140625 432.980469 L 531.648438 427.351562 L 537.273438 449.871094 L 559.78125 444.246094 L 565.410156 466.761719 L 587.917969 461.136719 L 593.546875 483.652344 L 571.039062 489.277344 L 576.667969 511.796875 L 554.160156 517.421875 L 559.789062 539.9375 L 537.28125 545.5625 L 531.652344 523.046875 L 509.144531 528.671875 L 503.515625 506.15625 L 481.007812 511.78125 L 475.378906 489.265625 L 452.871094 494.890625 L 447.246094 472.375 L 424.738281 478 L 419.109375 455.480469 L 374.09375 466.734375 L 379.722656 489.25 L 357.214844 494.875 L 362.84375 517.394531 L 340.335938 523.019531 L 345.964844 545.535156 L 323.457031 551.160156 L 329.082031 573.679688 L 306.578125 579.304688 L 312.203125 601.820312 L 289.695312 607.449219 L 284.070312 584.929688 L 261.5625 590.554688 L 255.933594 568.039062 L 233.425781 573.664062 L 227.796875 551.148438 L 250.304688 545.523438 L 244.675781 523.003906 L 267.183594 517.378906 L 261.554688 494.863281 L 284.0625 489.238281 L 278.4375 466.71875 L 300.941406 461.09375 L 295.316406 438.578125 L 317.824219 432.953125 L 306.566406 387.917969 L 284.058594 393.542969 L 278.429688 371.027344 L 255.921875 376.652344 L 250.292969 354.136719 L 227.789062 359.761719 L 222.160156 337.242188 L 199.652344 342.871094 L 194.023438 320.351562 L 171.515625 325.976562 L 165.886719 303.460938 L 188.394531 297.835938 L 182.765625 275.320312 L 205.273438 269.691406 L 199.648438 247.175781 L 222.152344 241.550781 L 227.78125 264.066406 L 250.289062 258.441406 L 255.917969 280.957031 L 278.425781 275.332031 L 284.054688 297.847656 L 306.5625 292.222656 L 312.191406 314.742188 L 334.695312 309.113281 L 340.324219 331.632812 L 385.339844 320.378906 L 379.710938 297.863281 L 402.21875 292.238281 L 396.589844 269.71875 L 419.097656 264.09375 L 413.472656 241.578125 L 435.980469 235.953125 L 430.351562 213.433594 L 452.859375 207.808594 L 447.230469 185.292969 L 469.738281 179.667969 L 475.367188 202.183594 L 497.875 196.558594 L 503.5 219.074219 L 526.007812 213.449219 L 531.636719 235.964844 L 509.128906 241.589844 L 514.757812 264.109375 L 492.25 269.734375 L 497.878906 292.25 L 475.371094 297.878906 L 481 320.394531 L 458.492188 326.019531 L 464.121094 348.535156 Z M 441.613281 354.164062 " fill-opacity="1" fill-rule="nonzero"/></g></g></g></g><g clip-path="url(#1a4b2da4ae)"><g clip-path="url(#ec83e463de)"><g clip-path="url(#cb7856dc04)"><g clip-path="url(#80994c5844)"><path fill="#ffffff" d="M 531.65625 618.742188 L 599.179688 601.863281 L 604.808594 624.378906 L 537.285156 641.257812 Z M 599.179688 601.863281 L 621.6875 596.238281 L 616.058594 573.71875 L 593.550781 579.347656 Z M 616.058594 573.71875 L 638.566406 568.09375 L 632.9375 545.578125 L 610.429688 551.203125 Z M 632.9375 545.578125 L 655.445312 539.953125 L 649.816406 517.433594 L 627.308594 523.0625 Z M 644.191406 494.917969 L 649.816406 517.433594 L 672.324219 511.808594 L 666.699219 489.292969 L 661.070312 466.773438 L 638.5625 472.402344 Z M 655.441406 444.257812 L 661.070312 466.773438 L 683.578125 461.148438 L 672.320312 416.117188 L 649.8125 421.742188 Z M 627.296875 235.980469 L 632.921875 258.496094 L 638.550781 281.011719 L 644.179688 303.53125 L 649.808594 326.046875 L 655.4375 348.566406 L 661.0625 371.082031 L 666.691406 393.597656 L 672.320312 416.117188 L 694.828125 410.488281 L 683.570312 365.457031 L 677.945312 342.9375 L 666.6875 297.90625 L 661.058594 275.386719 L 655.429688 252.871094 L 649.804688 230.355469 Z M 616.039062 190.945312 L 593.53125 196.570312 L 599.160156 219.089844 L 604.789062 241.605469 L 627.296875 235.980469 L 621.667969 213.460938 Z M 582.273438 151.539062 L 559.769531 157.164062 L 565.394531 179.679688 L 571.023438 202.195312 L 593.53125 196.570312 Z M 531.632812 140.273438 L 537.261719 162.789062 L 559.769531 157.164062 L 554.140625 134.644531 Z M 503.496094 123.382812 L 509.125 145.898438 L 531.632812 140.273438 L 526.003906 117.753906 Z M 475.359375 106.488281 L 480.988281 129.007812 L 503.496094 123.382812 L 497.867188 100.863281 Z M 402.210938 100.851562 L 407.839844 123.367188 L 475.359375 106.488281 L 469.734375 83.972656 Z M 216.519531 123.339844 L 222.148438 145.855469 L 402.210938 100.851562 L 396.582031 78.332031 Z M 216.519531 123.339844 " fill-opacity="0.3" fill-rule="nonzero"/></g></g></g></g></svg>